<svg xmlns="http://www.w3.org/2000/svg" xmlns:xlink="http://www.w3.org/1999/xlink" width="500" zoomAndPan="magnify" viewBox="0 0 375 374.999991" height="500" preserveAspectRatio="xMidYMid meet" version="1.0"><defs><g/><clipPath id="9db3750474"><path d="M 113.0625 91 L 251.460938 91 L 251.460938 224 L 113.0625 224 Z M 113.0625 91 " clip-rule="nonzero"/></clipPath></defs><g fill="#ffffff" fill-opacity="1"><g transform="translate(1.781943, 253.646996)"><g><path d="M 51.578125 -3.9375 C 51.515625 -3.875 51.460938 -3.910156 51.421875 -4.046875 C 51.390625 -4.179688 51.410156 -4.28125 51.484375 -4.34375 C 52.285156 -4.6875 52.753906 -5.296875 52.890625 -6.171875 C 53.023438 -7.046875 52.957031 -8.019531 52.6875 -9.09375 C 52.425781 -10.175781 52.109375 -11.207031 51.734375 -12.1875 C 51.359375 -13.164062 51.070312 -13.890625 50.875 -14.359375 C 49.394531 -18.472656 47.539062 -22.332031 45.3125 -25.9375 C 43.082031 -29.550781 40.484375 -32.972656 37.515625 -36.203125 C 38.265625 -35.265625 39.226562 -33.867188 40.40625 -32.015625 C 41.582031 -30.160156 42.8125 -28.101562 44.09375 -25.84375 C 45.375 -23.582031 46.585938 -21.285156 47.734375 -18.953125 C 48.878906 -16.628906 49.835938 -14.472656 50.609375 -12.484375 C 51.390625 -10.492188 51.816406 -8.925781 51.890625 -7.78125 C 52.023438 -6.4375 51.648438 -5.207031 50.765625 -4.09375 C 49.890625 -2.976562 48.675781 -2.421875 47.125 -2.421875 C 44.96875 -2.421875 43.453125 -3.367188 42.578125 -5.265625 C 42.109375 -6.140625 41.875 -7.082031 41.875 -8.09375 C 39.988281 -11.863281 37.765625 -15.46875 35.203125 -18.90625 C 32.640625 -22.351562 29.972656 -25.59375 27.203125 -28.625 C 25.992188 -29.96875 24.765625 -31.296875 23.515625 -32.609375 C 22.265625 -33.929688 20.898438 -35.128906 19.421875 -36.203125 L 17.796875 -35.59375 C 17.328125 -35.394531 16.890625 -35.210938 16.484375 -35.046875 C 16.078125 -34.878906 15.707031 -34.726562 15.375 -34.59375 C 15.914062 -28.925781 16.519531 -23.296875 17.1875 -17.703125 C 17.320312 -16.617188 17.507812 -15.519531 17.75 -14.40625 C 17.988281 -13.300781 18.207031 -12.175781 18.40625 -11.03125 C 18.675781 -10.082031 18.992188 -9.050781 19.359375 -7.9375 C 19.734375 -6.820312 20.023438 -5.691406 20.234375 -4.546875 C 20.367188 -4.140625 20.382812 -3.71875 20.28125 -3.28125 C 20.175781 -2.84375 19.957031 -2.457031 19.625 -2.125 C 17.0625 0.03125 14.296875 0.570312 11.328125 -0.5 C 10.179688 -0.363281 9.066406 -0.613281 7.984375 -1.25 C 6.910156 -1.894531 6.101562 -2.757812 5.5625 -3.84375 C 4.957031 -5.257812 4.585938 -6.722656 4.453125 -8.234375 C 4.316406 -9.753906 4.179688 -11.257812 4.046875 -12.75 C 3.640625 -16.1875 3.25 -19.625 2.875 -23.0625 C 2.507812 -26.5 2.191406 -29.9375 1.921875 -33.375 C 1.648438 -36.8125 1.429688 -40.25 1.265625 -43.6875 C 1.097656 -47.125 0.945312 -50.597656 0.8125 -54.109375 C 0.8125 -55.054688 0.789062 -55.984375 0.75 -56.890625 C 0.71875 -57.796875 0.703125 -58.691406 0.703125 -59.578125 C 0.640625 -60.515625 0.722656 -61.472656 0.953125 -62.453125 C 1.191406 -63.429688 1.851562 -64.054688 2.9375 -64.328125 C 3 -64.523438 3.082031 -64.707031 3.1875 -64.875 C 3.289062 -65.050781 3.375 -65.238281 3.4375 -65.4375 C 4.113281 -66.65625 5.039062 -67.414062 6.21875 -67.71875 C 7.394531 -68.019531 8.554688 -67.929688 9.703125 -67.453125 C 10.847656 -66.984375 11.722656 -66.226562 12.328125 -65.1875 C 12.941406 -64.144531 13.015625 -62.945312 12.546875 -61.59375 C 12.273438 -60.582031 12.117188 -59.484375 12.078125 -58.296875 C 12.046875 -57.117188 12 -55.957031 11.9375 -54.8125 L 11.625 -45.71875 C 11.96875 -46.050781 12.238281 -46.253906 12.4375 -46.328125 C 12.644531 -48.484375 12.878906 -50.640625 13.140625 -52.796875 C 13.410156 -54.953125 13.71875 -57.078125 14.0625 -59.171875 C 14.0625 -59.234375 14.078125 -59.25 14.109375 -59.21875 C 14.140625 -59.1875 14.15625 -59.171875 14.15625 -59.171875 L 14.15625 -58.453125 C 14.226562 -56.566406 14.296875 -54.710938 14.359375 -52.890625 C 14.429688 -51.078125 14.5 -49.222656 14.5625 -47.328125 C 18.738281 -49.148438 23.171875 -51.207031 27.859375 -53.5 C 32.546875 -55.789062 36.847656 -58.082031 40.765625 -60.375 C 41.566406 -60.851562 42.488281 -61.410156 43.53125 -62.046875 C 44.582031 -62.691406 45.613281 -62.84375 46.625 -62.5 C 47.4375 -62.300781 48.039062 -61.863281 48.4375 -61.1875 C 48.84375 -60.507812 49.046875 -59.769531 49.046875 -58.96875 L 49.359375 -59.265625 C 49.898438 -59.671875 50.421875 -59.671875 50.921875 -59.265625 C 51.429688 -58.859375 51.515625 -58.351562 51.171875 -57.75 C 49.421875 -54.445312 47.007812 -51.679688 43.9375 -49.453125 C 40.875 -47.234375 37.722656 -45.210938 34.484375 -43.390625 L 31.859375 -41.96875 C 32.128906 -41.769531 32.363281 -41.566406 32.5625 -41.359375 C 32.769531 -41.160156 33.007812 -40.960938 33.28125 -40.765625 C 33.207031 -41.097656 33.375 -41.398438 33.78125 -41.671875 C 34.1875 -41.941406 34.523438 -41.90625 34.796875 -41.5625 C 37.890625 -38.664062 40.648438 -35.515625 43.078125 -32.109375 C 45.515625 -28.703125 47.570312 -25.078125 49.25 -21.234375 C 50.132812 -19.347656 50.910156 -17.441406 51.578125 -15.515625 C 52.253906 -13.597656 52.828125 -11.660156 53.296875 -9.703125 C 53.503906 -8.691406 53.570312 -7.5625 53.5 -6.3125 C 53.4375 -5.070312 52.796875 -4.28125 51.578125 -3.9375 Z M 51.578125 -3.9375 "/></g></g></g><g fill="#ffffff" fill-opacity="1"><g transform="translate(47.902078, 253.646996)"><g><path d="M 57.65625 -38.53125 L 57.34375 -36.40625 C 57.28125 -35.46875 56.84375 -34.644531 56.03125 -33.9375 C 55.21875 -33.226562 54.410156 -32.90625 53.609375 -32.96875 C 51.242188 -33.101562 48.863281 -33.269531 46.46875 -33.46875 C 44.082031 -33.675781 41.707031 -33.878906 39.34375 -34.078125 C 42.101562 -29.972656 44.53125 -25.796875 46.625 -21.546875 C 47.976562 -18.640625 49.328125 -15.617188 50.671875 -12.484375 C 52.015625 -9.347656 52.488281 -6.128906 52.09375 -2.828125 C 51.957031 -1.753906 51.414062 -1.0625 50.46875 -0.75 C 49.519531 -0.445312 48.609375 -0.46875 47.734375 -0.8125 C 47.265625 -0.738281 46.8125 -0.71875 46.375 -0.75 C 45.9375 -0.789062 45.476562 -0.910156 45 -1.109375 C 44.875 -1.109375 44.8125 -1.144531 44.8125 -1.21875 C 44.40625 -0.8125 43.960938 -0.707031 43.484375 -0.90625 C 42.609375 -3.269531 41.664062 -5.644531 40.65625 -8.03125 C 39.644531 -10.425781 38.632812 -12.769531 37.625 -15.0625 C 37.289062 -15.945312 36.785156 -17.179688 36.109375 -18.765625 C 35.429688 -20.347656 34.722656 -22 33.984375 -23.71875 C 33.242188 -25.4375 32.535156 -26.898438 31.859375 -28.109375 C 31.316406 -29.328125 30.773438 -30.375 30.234375 -31.25 L 30.234375 -31.359375 C 29.628906 -32.234375 29.054688 -33.175781 28.515625 -34.1875 C 27.234375 -34.25 25.914062 -34.3125 24.5625 -34.375 C 23.21875 -34.445312 21.875 -34.519531 20.53125 -34.59375 C 20.800781 -32.300781 21.035156 -30.007812 21.234375 -27.71875 C 21.441406 -25.425781 21.578125 -23.097656 21.640625 -20.734375 C 21.773438 -18.234375 21.925781 -15.71875 22.09375 -13.1875 C 22.269531 -10.664062 22.289062 -8.15625 22.15625 -5.65625 C 22.21875 -5.394531 22.25 -5.109375 22.25 -4.796875 C 22.25 -4.492188 22.25 -4.207031 22.25 -3.9375 C 21.570312 -2.65625 20.796875 -1.644531 19.921875 -0.90625 C 19.242188 -0.363281 18.46875 -0.09375 17.59375 -0.09375 C 16.71875 -0.09375 15.976562 -0.429688 15.375 -1.109375 C 15.039062 -1.648438 14.835938 -2.191406 14.765625 -2.734375 C 14.359375 -2.660156 13.953125 -2.773438 13.546875 -3.078125 C 13.148438 -3.390625 12.953125 -3.8125 12.953125 -4.34375 C 12.679688 -5.425781 12.5625 -6.554688 12.59375 -7.734375 C 12.625 -8.910156 12.570312 -10.039062 12.4375 -11.125 L 11.53125 -17.796875 C 11.125 -20.160156 10.71875 -22.535156 10.3125 -24.921875 C 9.90625 -27.316406 9.503906 -29.695312 9.109375 -32.0625 L 8.5 -35.59375 C 8.425781 -35.59375 8.335938 -35.59375 8.234375 -35.59375 C 8.140625 -35.59375 8.023438 -35.59375 7.890625 -35.59375 C 7.890625 -36 7.6875 -36.238281 7.28125 -36.3125 C 6.738281 -36.445312 6.179688 -36.613281 5.609375 -36.8125 C 5.035156 -37.019531 4.476562 -37.222656 3.9375 -37.421875 L 6.265625 -37.71875 C 5.253906 -38.125 4.242188 -38.664062 3.234375 -39.34375 C 2.296875 -39.945312 1.773438 -40.804688 1.671875 -41.921875 C 1.566406 -43.035156 1.785156 -44.03125 2.328125 -44.90625 C 2.867188 -45.78125 3.644531 -46.21875 4.65625 -46.21875 C 4.988281 -46.289062 5.304688 -46.328125 5.609375 -46.328125 C 5.910156 -46.328125 6.195312 -46.328125 6.46875 -46.328125 C 6.132812 -48.078125 5.78125 -49.828125 5.40625 -51.578125 C 5.039062 -53.335938 4.65625 -55.054688 4.25 -56.734375 C 5.125 -57.410156 5.832031 -58.15625 6.375 -58.96875 C 5.425781 -59.769531 4.734375 -60.8125 4.296875 -62.09375 C 3.859375 -63.375 3.910156 -64.585938 4.453125 -65.734375 C 5.128906 -67.015625 6.140625 -67.789062 7.484375 -68.0625 C 8.828125 -68.332031 10.273438 -68.363281 11.828125 -68.15625 C 13.378906 -67.957031 14.695312 -67.757812 15.78125 -67.5625 C 16.113281 -67.5625 16.414062 -67.425781 16.6875 -67.15625 C 17.019531 -67.019531 17.375 -66.882812 17.75 -66.75 C 18.125 -66.613281 18.476562 -66.476562 18.8125 -66.34375 C 18.875 -66.34375 18.921875 -66.328125 18.953125 -66.296875 C 18.992188 -66.265625 19.046875 -66.25 19.109375 -66.25 C 24.710938 -64.5 30.054688 -62.054688 35.140625 -58.921875 C 40.234375 -55.785156 45.242188 -52.53125 50.171875 -49.15625 C 50.835938 -48.613281 51.304688 -47.867188 51.578125 -46.921875 C 52.316406 -46.453125 53.023438 -45.945312 53.703125 -45.40625 C 54.378906 -44.875 55.054688 -44.335938 55.734375 -43.796875 C 57.347656 -42.578125 57.988281 -40.820312 57.65625 -38.53125 Z M 16.59375 -54.015625 C 16.65625 -53.941406 16.6875 -53.835938 16.6875 -53.703125 C 16.6875 -53.566406 16.722656 -53.429688 16.796875 -53.296875 C 17.054688 -53.566406 17.375 -53.6875 17.75 -53.65625 C 18.125 -53.625 18.34375 -53.367188 18.40625 -52.890625 C 18.675781 -51.816406 18.925781 -50.753906 19.15625 -49.703125 C 19.394531 -48.660156 19.617188 -47.601562 19.828125 -46.53125 C 20.097656 -46.457031 20.363281 -46.421875 20.625 -46.421875 C 20.894531 -46.421875 21.164062 -46.390625 21.4375 -46.328125 C 21.570312 -46.929688 21.878906 -47.4375 22.359375 -47.84375 C 23.367188 -48.507812 24.394531 -48.707031 25.4375 -48.4375 C 26.476562 -48.175781 27.488281 -47.722656 28.46875 -47.078125 C 29.445312 -46.441406 30.304688 -45.785156 31.046875 -45.109375 L 40.859375 -43.890625 C 36.953125 -46.585938 32.972656 -48.960938 28.921875 -51.015625 C 24.878906 -53.078125 20.664062 -54.613281 16.28125 -55.625 Z M 23.765625 -8.5 C 23.566406 -12.675781 23.347656 -16.867188 23.109375 -21.078125 C 22.867188 -25.296875 22.445312 -29.460938 21.84375 -33.578125 L 22.65625 -33.578125 C 23.195312 -30.679688 23.601562 -27.710938 23.875 -24.671875 C 24.144531 -21.640625 24.410156 -18.609375 24.671875 -15.578125 C 24.804688 -13.753906 24.738281 -12.421875 24.46875 -11.578125 C 24.207031 -10.734375 23.972656 -9.707031 23.765625 -8.5 Z M 23.765625 -8.5 "/></g></g></g><g fill="#ffffff" fill-opacity="1"><g transform="translate(103.12497, 253.646996)"><g><path d="M 2.328125 -53.40625 C 5.703125 -55.15625 9.207031 -56.632812 12.84375 -57.84375 C 16.488281 -59.0625 20.128906 -60.144531 23.765625 -61.09375 L 26.09375 -61.703125 C 28.1875 -62.097656 30.273438 -62.484375 32.359375 -62.859375 C 34.453125 -63.234375 36.578125 -63.488281 38.734375 -63.625 C 39.203125 -63.6875 39.65625 -63.71875 40.09375 -63.71875 C 40.539062 -63.71875 41 -63.71875 41.46875 -63.71875 C 39.507812 -63.25 37.519531 -62.757812 35.5 -62.25 C 33.476562 -61.75 31.488281 -61.257812 29.53125 -60.78125 C 26.09375 -60.039062 22.671875 -59.25 19.265625 -58.40625 C 15.859375 -57.5625 12.472656 -56.566406 9.109375 -55.421875 C 7.960938 -55.085938 6.832031 -54.703125 5.71875 -54.265625 C 4.601562 -53.828125 3.472656 -53.335938 2.328125 -52.796875 C 2.054688 -52.929688 2.054688 -53.132812 2.328125 -53.40625 Z M 59.0625 -12.234375 C 58.925781 -11.628906 58.59375 -11.296875 58.0625 -11.234375 C 54.34375 -10.554688 50.613281 -9.726562 46.875 -8.75 C 43.132812 -7.769531 39.476562 -6.640625 35.90625 -5.359375 C 34.21875 -4.753906 32.515625 -4.144531 30.796875 -3.53125 C 29.078125 -2.925781 27.375 -2.253906 25.6875 -1.515625 L 25.59375 -1.515625 C 25.519531 -1.453125 25.414062 -1.398438 25.28125 -1.359375 C 25.144531 -1.328125 25.007812 -1.28125 24.875 -1.21875 C 24.34375 -0.945312 23.789062 -0.707031 23.21875 -0.5 C 22.644531 -0.300781 22.085938 -0.0664062 21.546875 0.203125 L 21.4375 0.296875 C 21.03125 0.566406 20.269531 0.90625 19.15625 1.3125 C 18.050781 1.71875 17.007812 2.054688 16.03125 2.328125 C 15.050781 2.597656 14.5625 2.734375 14.5625 2.734375 C 14.5625 2.734375 14.441406 2.75 14.203125 2.78125 C 13.972656 2.8125 13.753906 2.828125 13.546875 2.828125 C 12.742188 2.960938 11.9375 2.960938 11.125 2.828125 C 10.3125 2.691406 9.707031 2.1875 9.3125 1.3125 C 9.101562 0.90625 9.066406 0.4375 9.203125 -0.09375 C 7.921875 -0.632812 6.925781 -1.5625 6.21875 -2.875 C 5.507812 -4.195312 5.390625 -5.5 5.859375 -6.78125 C 5.597656 -8.53125 5.378906 -10.296875 5.203125 -12.078125 C 5.035156 -13.867188 4.882812 -15.640625 4.75 -17.390625 L 3.546875 -29.53125 L 2.328125 -41.0625 C 1.046875 -42.476562 0.503906 -44.128906 0.703125 -46.015625 C 0.910156 -47.898438 1.753906 -49.484375 3.234375 -50.765625 C 3.304688 -50.898438 3.375 -51.035156 3.4375 -51.171875 C 3.507812 -51.304688 3.578125 -51.441406 3.640625 -51.578125 C 4.722656 -52.054688 5.800781 -52.492188 6.875 -52.890625 C 7.957031 -53.296875 9.035156 -53.671875 10.109375 -54.015625 C 13.484375 -55.160156 16.875 -56.148438 20.28125 -56.984375 C 23.6875 -57.828125 27.109375 -58.585938 30.546875 -59.265625 C 33.242188 -59.867188 35.90625 -60.523438 38.53125 -61.234375 C 41.164062 -61.941406 43.796875 -62.632812 46.421875 -63.3125 C 46.753906 -63.25 47.109375 -63.195312 47.484375 -63.15625 C 47.859375 -63.125 48.179688 -63.039062 48.453125 -62.90625 L 50.0625 -62.296875 C 50.332031 -62.097656 50.601562 -61.878906 50.875 -61.640625 C 51.144531 -61.410156 51.414062 -61.191406 51.6875 -60.984375 C 52.019531 -59.910156 52.253906 -58.847656 52.390625 -57.796875 C 52.523438 -56.753906 52.492188 -55.726562 52.296875 -54.71875 L 47.234375 -53.203125 C 46.148438 -52.859375 45.019531 -52.519531 43.84375 -52.1875 C 42.664062 -51.851562 41.503906 -51.515625 40.359375 -51.171875 C 40.085938 -51.035156 39.882812 -50.96875 39.75 -50.96875 C 38.46875 -50.632812 36.96875 -50.210938 35.25 -49.703125 C 33.53125 -49.203125 31.8125 -48.695312 30.09375 -48.1875 C 28.375 -47.6875 26.90625 -47.234375 25.6875 -46.828125 C 24.476562 -46.421875 23.738281 -46.148438 23.46875 -46.015625 C 21.84375 -45.472656 20.222656 -44.898438 18.609375 -44.296875 C 16.992188 -43.691406 15.410156 -43.050781 13.859375 -42.375 L 13.65625 -42.171875 C 13.71875 -41.835938 13.800781 -41.28125 13.90625 -40.5 C 14.007812 -39.726562 14.109375 -39.003906 14.203125 -38.328125 C 14.304688 -37.660156 14.359375 -37.222656 14.359375 -37.015625 C 17.191406 -38.234375 20.003906 -39.429688 22.796875 -40.609375 C 25.597656 -41.785156 28.453125 -42.914062 31.359375 -44 C 32.972656 -44.40625 34.601562 -44.828125 36.25 -45.265625 C 37.90625 -45.703125 39.546875 -46.15625 41.171875 -46.625 L 42.484375 -46.921875 C 43.085938 -47.054688 43.675781 -47.140625 44.25 -47.171875 C 44.820312 -47.210938 45.410156 -47.265625 46.015625 -47.328125 C 47.296875 -47.398438 48.507812 -47.316406 49.65625 -47.078125 C 50.800781 -46.847656 51.710938 -46.125 52.390625 -44.90625 C 52.523438 -44.769531 52.609375 -44.632812 52.640625 -44.5 C 52.671875 -44.363281 52.722656 -44.226562 52.796875 -44.09375 C 52.929688 -43.894531 53.03125 -43.691406 53.09375 -43.484375 C 53.164062 -43.285156 53.234375 -43.085938 53.296875 -42.890625 C 53.367188 -42.816406 53.4375 -42.78125 53.5 -42.78125 C 54.445312 -42.3125 55.019531 -41.46875 55.21875 -40.25 C 55.425781 -39.3125 55.273438 -38.351562 54.765625 -37.375 C 54.265625 -36.394531 53.539062 -35.671875 52.59375 -35.203125 C 51.507812 -34.722656 50.410156 -34.429688 49.296875 -34.328125 C 48.191406 -34.234375 47.066406 -34.050781 45.921875 -33.78125 C 44.703125 -33.582031 43.46875 -33.363281 42.21875 -33.125 C 40.976562 -32.882812 39.75 -32.597656 38.53125 -32.265625 C 36.101562 -31.585938 33.691406 -30.859375 31.296875 -30.078125 C 28.910156 -29.304688 26.535156 -28.414062 24.171875 -27.40625 C 22.691406 -26.800781 21.257812 -26.160156 19.875 -25.484375 C 18.488281 -24.804688 17.085938 -24.097656 15.671875 -23.359375 L 16.28125 -16.796875 C 16.28125 -16.722656 16.28125 -16.671875 16.28125 -16.640625 C 16.28125 -16.609375 16.28125 -16.523438 16.28125 -16.390625 L 16.59375 -16.59375 C 17.738281 -17.125 18.863281 -17.609375 19.96875 -18.046875 C 21.082031 -18.492188 22.179688 -18.953125 23.265625 -19.421875 L 31.859375 -22.75 C 32.597656 -23.09375 33.351562 -23.398438 34.125 -23.671875 C 34.90625 -23.941406 35.664062 -24.207031 36.40625 -24.46875 C 37.625 -24.945312 38.835938 -25.40625 40.046875 -25.84375 C 41.265625 -26.28125 42.476562 -26.703125 43.6875 -27.109375 L 47.640625 -28.3125 C 48.179688 -28.445312 48.71875 -28.632812 49.25 -28.875 C 49.789062 -29.113281 50.332031 -29.300781 50.875 -29.4375 C 52.832031 -29.832031 54.429688 -29.660156 55.671875 -28.921875 C 56.921875 -28.179688 57.914062 -27.101562 58.65625 -25.6875 C 59.40625 -24.269531 59.960938 -22.71875 60.328125 -21.03125 C 60.703125 -19.351562 60.921875 -17.804688 60.984375 -16.390625 C 61.054688 -15.503906 60.90625 -14.707031 60.53125 -14 C 60.15625 -13.300781 59.664062 -12.710938 59.0625 -12.234375 Z M 34.59375 -33.6875 C 33.039062 -33.207031 31.472656 -32.734375 29.890625 -32.265625 C 28.304688 -31.796875 26.738281 -31.289062 25.1875 -30.75 C 24.175781 -30.476562 23.179688 -30.191406 22.203125 -29.890625 C 21.222656 -29.585938 20.257812 -29.300781 19.3125 -29.03125 C 19.113281 -27.882812 18.578125 -26.941406 17.703125 -26.203125 C 20.191406 -27.472656 22.734375 -28.613281 25.328125 -29.625 C 27.929688 -30.644531 30.476562 -31.660156 32.96875 -32.671875 C 33.507812 -32.941406 34.082031 -33.175781 34.6875 -33.375 Z M 12.234375 1.3125 C 12.972656 1.382812 13.816406 1.398438 14.765625 1.359375 C 15.710938 1.328125 16.253906 1.28125 16.390625 1.21875 C 16.523438 1.21875 16.625 1.179688 16.6875 1.109375 C 17.09375 0.910156 17.5 0.707031 17.90625 0.5 C 18.3125 0.300781 18.679688 0.101562 19.015625 -0.09375 C 19.828125 -0.5 20.617188 -0.90625 21.390625 -1.3125 C 22.160156 -1.71875 22.921875 -2.125 23.671875 -2.53125 L 23.671875 -2.734375 C 22.796875 -2.390625 21.882812 -2.050781 20.9375 -1.71875 C 19.988281 -1.382812 19.046875 -1.046875 18.109375 -0.703125 C 17.160156 -0.367188 16.195312 -0.0195312 15.21875 0.34375 C 14.238281 0.71875 13.242188 1.039062 12.234375 1.3125 Z M 12.234375 1.3125 "/></g></g></g><g fill="#ffffff" fill-opacity="1"><g transform="translate(159.359298, 253.646996)"><g><path d="M 53.203125 -7.578125 C 53.066406 -7.515625 52.929688 -7.414062 52.796875 -7.28125 C 51.710938 -5.53125 50.175781 -4.265625 48.1875 -3.484375 C 46.195312 -2.710938 44.226562 -2.054688 42.28125 -1.515625 C 40.050781 -0.972656 37.789062 -0.515625 35.5 -0.140625 C 33.207031 0.222656 30.878906 0.472656 28.515625 0.609375 C 26.429688 0.671875 24.242188 0.6875 21.953125 0.65625 C 19.660156 0.625 17.5 0.269531 15.46875 -0.40625 C 13.789062 -0.945312 12.054688 -1.769531 10.265625 -2.875 C 8.472656 -3.988281 7.378906 -5.492188 6.984375 -7.390625 C 6.773438 -8.535156 6.703125 -9.695312 6.765625 -10.875 C 6.835938 -12.050781 7.210938 -13.144531 7.890625 -14.15625 C 8.492188 -15.164062 9.164062 -16.144531 9.90625 -17.09375 C 10.65625 -18.039062 11.363281 -18.984375 12.03125 -19.921875 C 13.445312 -21.742188 14.863281 -23.582031 16.28125 -25.4375 C 17.695312 -27.289062 19.113281 -29.160156 20.53125 -31.046875 C 20.863281 -31.453125 21.179688 -31.875 21.484375 -32.3125 C 21.796875 -32.75 22.117188 -33.171875 22.453125 -33.578125 L 8.796875 -48.25 C 8.117188 -49.050781 7.8125 -49.90625 7.875 -50.8125 C 7.945312 -51.726562 8.289062 -52.488281 8.90625 -53.09375 C 8.96875 -53.09375 8.863281 -53.53125 8.59375 -54.40625 C 8.320312 -55.289062 8.1875 -55.765625 8.1875 -55.828125 C 8.050781 -57.441406 8.554688 -58.738281 9.703125 -59.71875 C 10.847656 -60.695312 12.128906 -61.359375 13.546875 -61.703125 C 14.359375 -61.898438 15.164062 -62.046875 15.96875 -62.140625 C 16.78125 -62.242188 17.5625 -62.332031 18.3125 -62.40625 C 20.46875 -62.8125 22.640625 -63.03125 24.828125 -63.0625 C 27.015625 -63.09375 29.15625 -62.90625 31.25 -62.5 C 33.132812 -62.164062 35.125 -61.644531 37.21875 -60.9375 C 39.3125 -60.226562 41.25 -59.28125 43.03125 -58.09375 C 44.820312 -56.914062 46.1875 -55.382812 47.125 -53.5 C 48.882812 -50.132812 49.125 -46.664062 47.84375 -43.09375 C 47.570312 -42.414062 47.046875 -41.550781 46.265625 -40.5 C 45.492188 -39.457031 44.632812 -38.410156 43.6875 -37.359375 C 42.75 -36.316406 41.90625 -35.390625 41.15625 -34.578125 C 40.414062 -33.773438 39.945312 -33.273438 39.75 -33.078125 C 39.75 -33.003906 39.882812 -32.832031 40.15625 -32.5625 C 40.425781 -32.289062 40.59375 -32.15625 40.65625 -32.15625 C 41.332031 -32.90625 41.988281 -33.664062 42.625 -34.4375 C 43.269531 -35.207031 43.929688 -36 44.609375 -36.8125 C 46.085938 -38.5625 47.484375 -40.515625 48.796875 -42.671875 C 50.109375 -44.835938 50.53125 -47.164062 50.0625 -49.65625 C 50.0625 -49.726562 50.09375 -49.765625 50.15625 -49.765625 C 50.226562 -49.765625 50.265625 -49.765625 50.265625 -49.765625 C 50.867188 -47.671875 50.800781 -45.644531 50.0625 -43.6875 C 49.320312 -41.738281 48.378906 -39.921875 47.234375 -38.234375 C 46.359375 -37.015625 45.460938 -35.796875 44.546875 -34.578125 C 43.640625 -33.367188 42.710938 -32.191406 41.765625 -31.046875 C 42.847656 -30.035156 43.910156 -29.003906 44.953125 -27.953125 C 46.003906 -26.910156 47.035156 -25.816406 48.046875 -24.671875 C 49.191406 -23.390625 50.335938 -22.09375 51.484375 -20.78125 C 52.628906 -19.46875 53.570312 -18.035156 54.3125 -16.484375 C 55.050781 -15.066406 55.367188 -13.515625 55.265625 -11.828125 C 55.171875 -10.148438 54.484375 -8.734375 53.203125 -7.578125 Z M 23.0625 -57.75 C 23.195312 -57.75 23.3125 -57.765625 23.40625 -57.796875 C 23.507812 -57.835938 23.597656 -57.859375 23.671875 -57.859375 C 23.597656 -57.859375 23.5625 -57.875 23.5625 -57.90625 C 23.5625 -57.9375 23.5625 -57.953125 23.5625 -57.953125 C 22.488281 -58.148438 21.507812 -58.128906 20.625 -57.890625 C 19.75 -57.660156 18.941406 -57.3125 18.203125 -56.84375 C 17.734375 -56.4375 17.429688 -55.894531 17.296875 -55.21875 L 17.296875 -55.015625 C 17.972656 -55.890625 18.847656 -56.515625 19.921875 -56.890625 C 21.003906 -57.265625 22.050781 -57.550781 23.0625 -57.75 Z M 33.484375 -56.84375 C 33.410156 -56.84375 33.375 -56.820312 33.375 -56.78125 C 33.375 -56.75 33.34375 -56.734375 33.28125 -56.734375 C 33.8125 -56.535156 34.378906 -56.195312 34.984375 -55.71875 C 35.597656 -55.25 36.613281 -54.710938 38.03125 -54.109375 C 37.957031 -54.179688 37.582031 -54.601562 36.90625 -55.375 C 36.238281 -56.144531 35.097656 -56.632812 33.484375 -56.84375 Z M 26.703125 -56.53125 C 25.421875 -56.664062 24.070312 -56.648438 22.65625 -56.484375 C 21.238281 -56.316406 19.957031 -55.894531 18.8125 -55.21875 C 18.132812 -54.8125 17.695312 -54.375 17.5 -53.90625 C 17.90625 -52.5625 18.75 -51.316406 20.03125 -50.171875 C 21.3125 -49.023438 22.457031 -47.976562 23.46875 -47.03125 C 24.613281 -45.945312 25.789062 -44.898438 27 -43.890625 C 28.21875 -42.878906 29.429688 -41.867188 30.640625 -40.859375 C 32.191406 -42.273438 33.609375 -43.789062 34.890625 -45.40625 C 35.429688 -46.019531 35.972656 -46.644531 36.515625 -47.28125 C 37.054688 -47.925781 37.5625 -48.582031 38.03125 -49.25 L 39.140625 -50.671875 C 39.140625 -50.804688 39.15625 -50.90625 39.1875 -50.96875 C 39.226562 -51.039062 39.25 -51.109375 39.25 -51.171875 C 39.175781 -51.304688 39.140625 -51.441406 39.140625 -51.578125 C 39.140625 -51.710938 39.109375 -51.816406 39.046875 -51.890625 C 37.148438 -53.035156 35.171875 -54.0625 33.109375 -54.96875 C 31.054688 -55.875 28.921875 -56.394531 26.703125 -56.53125 Z M 38.84375 -20.03125 C 37.832031 -20.769531 36.816406 -21.523438 35.796875 -22.296875 C 34.785156 -23.078125 33.773438 -23.867188 32.765625 -24.671875 L 32.671875 -24.671875 C 32.265625 -24.273438 31.859375 -23.875 31.453125 -23.46875 C 31.046875 -23.0625 30.640625 -22.691406 30.234375 -22.359375 C 29.359375 -21.472656 28.484375 -20.539062 27.609375 -19.5625 C 26.734375 -18.59375 25.859375 -17.632812 24.984375 -16.6875 C 24.304688 -15.8125 23.597656 -14.765625 22.859375 -13.546875 C 22.117188 -12.335938 22.1875 -11.160156 23.0625 -10.015625 C 23.394531 -9.546875 23.796875 -9.109375 24.265625 -8.703125 C 24.742188 -8.296875 25.21875 -7.890625 25.6875 -7.484375 C 27.039062 -6.804688 28.488281 -6.25 30.03125 -5.8125 C 31.582031 -5.375 33.132812 -5.125 34.6875 -5.0625 C 36.445312 -4.988281 38.203125 -5.304688 39.953125 -6.015625 C 41.703125 -6.722656 42.878906 -7.953125 43.484375 -9.703125 C 43.960938 -11.253906 43.8125 -12.789062 43.03125 -14.3125 C 42.257812 -15.832031 41.398438 -17.128906 40.453125 -18.203125 C 40.179688 -18.546875 39.925781 -18.867188 39.6875 -19.171875 C 39.457031 -19.472656 39.175781 -19.757812 38.84375 -20.03125 Z M 38.84375 -20.03125 "/></g></g></g><g fill="#ffffff" fill-opacity="1"><g transform="translate(212.55937, 253.646996)"><g><path d="M 57.75 -59.578125 C 57.613281 -59.171875 57.476562 -58.832031 57.34375 -58.5625 C 57.28125 -57.6875 57.113281 -56.804688 56.84375 -55.921875 C 56.570312 -55.046875 56.03125 -54.34375 55.21875 -53.8125 C 54.882812 -53.539062 54.378906 -53.335938 53.703125 -53.203125 C 53.429688 -52.929688 53.195312 -52.796875 53 -52.796875 C 50.4375 -52.328125 47.875 -51.851562 45.3125 -51.375 C 42.75 -50.90625 40.1875 -50.503906 37.625 -50.171875 C 37.625 -47.941406 37.601562 -45.710938 37.5625 -43.484375 C 37.53125 -41.265625 37.515625 -39.039062 37.515625 -36.8125 C 37.515625 -33.707031 37.53125 -30.617188 37.5625 -27.546875 C 37.601562 -24.484375 37.625 -21.40625 37.625 -18.3125 C 37.6875 -16.550781 37.75 -14.773438 37.8125 -12.984375 C 37.882812 -11.203125 37.957031 -9.4375 38.03125 -7.6875 C 37.957031 -6.46875 37.769531 -5.300781 37.46875 -4.1875 C 37.164062 -3.082031 36.539062 -2.160156 35.59375 -1.421875 L 35.59375 -1.625 C 35.664062 -2.363281 35.703125 -3.085938 35.703125 -3.796875 C 35.703125 -4.503906 35.734375 -5.191406 35.796875 -5.859375 L 35.796875 -9.703125 C 35.597656 -8.828125 35.429688 -7.75 35.296875 -6.46875 C 35.160156 -5.1875 34.925781 -4.039062 34.59375 -3.03125 C 34.25 -1.957031 33.535156 -1.148438 32.453125 -0.609375 C 31.378906 -0.0664062 30.304688 0.0664062 29.234375 -0.203125 C 27.140625 -0.878906 25.753906 -2.210938 25.078125 -4.203125 C 24.410156 -6.191406 24.007812 -8.160156 23.875 -10.109375 C 23.738281 -12.671875 23.6875 -15.265625 23.71875 -17.890625 C 23.75 -20.523438 23.800781 -23.125 23.875 -25.6875 C 24.007812 -28.25 24.160156 -30.84375 24.328125 -33.46875 C 24.492188 -36.101562 24.609375 -38.734375 24.671875 -41.359375 L 24.875 -45.8125 L 24.875 -49.046875 C 24.207031 -49.046875 23.550781 -49.046875 22.90625 -49.046875 C 22.269531 -49.046875 21.613281 -49.046875 20.9375 -49.046875 C 18.175781 -49.046875 15.476562 -49.148438 12.84375 -49.359375 C 11.769531 -49.492188 10.707031 -49.675781 9.65625 -49.90625 C 8.613281 -50.144531 7.617188 -50.535156 6.671875 -51.078125 C 5.992188 -51.546875 5.367188 -52.117188 4.796875 -52.796875 C 4.222656 -53.472656 3.769531 -54.210938 3.4375 -55.015625 C 2.425781 -55.554688 1.664062 -56.382812 1.15625 -57.5 C 0.65625 -58.613281 0.539062 -59.773438 0.8125 -60.984375 C 1.144531 -61.992188 1.765625 -62.90625 2.671875 -63.71875 C 3.585938 -64.53125 4.582031 -64.867188 5.65625 -64.734375 C 8.425781 -64.460938 11.191406 -64.238281 13.953125 -64.0625 C 16.722656 -63.894531 19.488281 -63.8125 22.25 -63.8125 C 22.25 -63.882812 22.265625 -63.9375 22.296875 -63.96875 C 22.335938 -64 22.359375 -64.050781 22.359375 -64.125 C 16.890625 -64.457031 11.425781 -65.0625 5.96875 -65.9375 C 5.832031 -65.9375 5.78125 -66.035156 5.8125 -66.234375 C 5.84375 -66.441406 5.925781 -66.515625 6.0625 -66.453125 C 13.144531 -66.046875 20.222656 -65.910156 27.296875 -66.046875 C 34.378906 -66.179688 41.429688 -66.550781 48.453125 -67.15625 C 48.984375 -67.289062 49.519531 -67.375 50.0625 -67.40625 C 50.601562 -67.4375 51.109375 -67.488281 51.578125 -67.5625 C 51.847656 -67.5625 52.132812 -67.578125 52.4375 -67.609375 C 52.738281 -67.640625 53.023438 -67.625 53.296875 -67.5625 C 54.035156 -67.695312 54.789062 -67.796875 55.5625 -67.859375 C 56.34375 -67.929688 57.109375 -68 57.859375 -68.0625 C 58.328125 -68.132812 58.609375 -67.882812 58.703125 -67.3125 C 58.804688 -66.738281 58.59375 -66.382812 58.0625 -66.25 C 57.71875 -66.25 57.476562 -66.210938 57.34375 -66.140625 C 57.613281 -66.003906 57.816406 -65.867188 57.953125 -65.734375 C 59.097656 -65.066406 59.65625 -64.003906 59.625 -62.546875 C 59.59375 -61.097656 58.96875 -60.109375 57.75 -59.578125 Z M 12.84375 -51.78125 C 14.59375 -51.644531 16.378906 -51.644531 18.203125 -51.78125 C 16.179688 -51.988281 14.160156 -52.273438 12.140625 -52.640625 C 10.117188 -53.015625 8.128906 -53.503906 6.171875 -54.109375 C 6.984375 -53.367188 7.992188 -52.8125 9.203125 -52.4375 C 10.421875 -52.070312 11.632812 -51.851562 12.84375 -51.78125 Z M 12.84375 -51.78125 "/></g></g></g><g fill="#ffffff" fill-opacity="1"><g transform="translate(266.770839, 253.646996)"><g><path d="M 1.421875 -58.359375 C 1.210938 -59.035156 1.273438 -59.707031 1.609375 -60.375 C 1.953125 -61.050781 2.289062 -61.625 2.625 -62.09375 C 3.300781 -63.113281 4.144531 -63.957031 5.15625 -64.625 C 5.425781 -64.894531 5.628906 -65.066406 5.765625 -65.140625 C 7.109375 -66.078125 8.539062 -66.78125 10.0625 -67.25 C 11.582031 -67.726562 13.117188 -67.765625 14.671875 -67.359375 C 16.015625 -67.023438 17.191406 -66.46875 18.203125 -65.6875 C 19.210938 -64.914062 19.957031 -63.851562 20.4375 -62.5 C 20.632812 -61.96875 20.597656 -61.460938 20.328125 -60.984375 C 20.054688 -60.515625 19.71875 -60.113281 19.3125 -59.78125 C 17.632812 -58.5625 15.847656 -57.75 13.953125 -57.34375 C 13.347656 -56.664062 12.539062 -56.175781 11.53125 -55.875 C 10.519531 -55.570312 9.539062 -55.421875 8.59375 -55.421875 C 7.789062 -55.421875 7 -55.488281 6.21875 -55.625 C 5.445312 -55.757812 4.6875 -55.960938 3.9375 -56.234375 C 3.46875 -56.367188 2.960938 -56.640625 2.421875 -57.046875 C 1.890625 -57.453125 1.554688 -57.890625 1.421875 -58.359375 Z M 8.1875 -55.9375 C 9.675781 -55.9375 10.65625 -56.085938 11.125 -56.390625 C 11.59375 -56.691406 11.796875 -56.84375 11.734375 -56.84375 C 11.128906 -56.707031 10.453125 -56.601562 9.703125 -56.53125 C 8.960938 -56.46875 8.019531 -56.535156 6.875 -56.734375 C 5.394531 -57.078125 4.398438 -57.753906 3.890625 -58.765625 C 3.390625 -59.773438 3.375 -60.851562 3.84375 -62 C 3.375 -61.457031 2.9375 -60.816406 2.53125 -60.078125 C 2.320312 -59.609375 2.21875 -59.1875 2.21875 -58.8125 C 2.21875 -58.4375 2.421875 -58.082031 2.828125 -57.75 C 3.503906 -57.207031 4.144531 -56.835938 4.75 -56.640625 C 5.757812 -56.304688 6.90625 -56.070312 8.1875 -55.9375 Z M 18.71875 -5.359375 C 18.238281 -4.546875 17.53125 -3.972656 16.59375 -3.640625 C 16.65625 -3.304688 16.617188 -2.953125 16.484375 -2.578125 C 16.347656 -2.203125 16.046875 -1.914062 15.578125 -1.71875 C 14.359375 -1.113281 13.054688 -0.945312 11.671875 -1.21875 C 10.296875 -1.488281 9.132812 -2.09375 8.1875 -3.03125 L 7.984375 -3.34375 C 7.515625 -3.539062 7.007812 -3.84375 6.46875 -4.25 C 5.394531 -5.257812 4.738281 -6.472656 4.5 -7.890625 C 4.257812 -9.304688 4.039062 -10.722656 3.84375 -12.140625 C 3.375 -15.910156 3.019531 -19.664062 2.78125 -23.40625 C 2.539062 -27.15625 2.457031 -30.914062 2.53125 -34.6875 C 2.53125 -36.507812 2.53125 -38.347656 2.53125 -40.203125 C 2.53125 -42.054688 2.628906 -43.894531 2.828125 -45.71875 C 2.960938 -46.65625 3.195312 -47.578125 3.53125 -48.484375 C 3.875 -49.398438 4.347656 -50.160156 4.953125 -50.765625 C 5.085938 -50.972656 5.222656 -51.160156 5.359375 -51.328125 C 5.492188 -51.492188 5.628906 -51.644531 5.765625 -51.78125 C 6.503906 -52.25 7.460938 -52.835938 8.640625 -53.546875 C 9.828125 -54.253906 10.992188 -54.660156 12.140625 -54.765625 C 13.285156 -54.867188 14.128906 -54.242188 14.671875 -52.890625 C 15.003906 -52.960938 15.335938 -52.894531 15.671875 -52.6875 C 16.015625 -52.488281 16.21875 -52.15625 16.28125 -51.6875 C 16.28125 -49.789062 16.242188 -47.929688 16.171875 -46.109375 C 16.109375 -44.296875 16.078125 -42.445312 16.078125 -40.5625 C 16.078125 -38.738281 16.109375 -36.898438 16.171875 -35.046875 C 16.242188 -33.191406 16.316406 -31.320312 16.390625 -29.4375 C 16.390625 -29.09375 16.40625 -28.703125 16.4375 -28.265625 C 16.46875 -27.828125 16.519531 -27.375 16.59375 -26.90625 C 16.65625 -26.96875 16.734375 -26.695312 16.828125 -26.09375 C 16.929688 -25.488281 17.015625 -24.898438 17.078125 -24.328125 C 17.148438 -23.753906 17.222656 -23.46875 17.296875 -23.46875 C 17.222656 -25.894531 17.171875 -28.585938 17.140625 -31.546875 C 17.109375 -34.515625 17.109375 -37.484375 17.140625 -40.453125 C 17.171875 -43.421875 17.253906 -46.085938 17.390625 -48.453125 C 17.390625 -48.585938 17.507812 -48.671875 17.75 -48.703125 C 17.988281 -48.734375 18.109375 -48.71875 18.109375 -48.65625 C 17.898438 -41.4375 18 -34.234375 18.40625 -27.046875 C 18.8125 -19.867188 19.488281 -12.675781 20.4375 -5.46875 C 20.5 -4.988281 20.257812 -4.734375 19.71875 -4.703125 C 19.175781 -4.671875 18.84375 -4.890625 18.71875 -5.359375 Z M 7.484375 -46.625 C 6.742188 -44.332031 6.320312 -41.921875 6.21875 -39.390625 C 6.113281 -36.859375 5.992188 -34.414062 5.859375 -32.0625 L 5.859375 -31.046875 C 5.859375 -30.984375 5.859375 -30.953125 5.859375 -30.953125 C 5.859375 -30.953125 5.859375 -30.914062 5.859375 -30.84375 C 5.992188 -29.632812 6.128906 -28.421875 6.265625 -27.203125 C 6.398438 -25.992188 6.535156 -24.78125 6.671875 -23.5625 L 6.984375 -23.5625 C 6.984375 -25.851562 6.960938 -28.128906 6.921875 -30.390625 C 6.890625 -32.648438 6.910156 -34.925781 6.984375 -37.21875 C 6.984375 -38.96875 7.066406 -40.734375 7.234375 -42.515625 C 7.398438 -44.304688 7.753906 -46.015625 8.296875 -47.640625 L 8.1875 -47.640625 C 7.71875 -47.296875 7.484375 -46.957031 7.484375 -46.625 Z M 7.484375 -46.625 "/></g></g></g><g fill="#ffffff" fill-opacity="1"><g transform="translate(283.458675, 253.646996)"><g><path d="M 38.234375 -43.390625 C 38.773438 -40.285156 39.109375 -37.148438 39.234375 -33.984375 C 39.367188 -30.816406 39.269531 -27.644531 38.9375 -24.46875 C 38.664062 -21.707031 38.226562 -18.859375 37.625 -15.921875 C 37.019531 -12.992188 35.875 -10.347656 34.1875 -7.984375 C 33.644531 -7.242188 33.070312 -6.519531 32.46875 -5.8125 C 31.863281 -5.101562 31.1875 -4.445312 30.4375 -3.84375 C 29.5 -2.894531 28.4375 -2.097656 27.25 -1.453125 C 26.070312 -0.816406 24.773438 -0.398438 23.359375 -0.203125 C 22.285156 -0.128906 21.175781 -0.128906 20.03125 -0.203125 C 18.34375 0.0664062 16.617188 -0.0664062 14.859375 -0.609375 C 13.109375 -1.148438 11.5625 -1.957031 10.21875 -3.03125 C 7.851562 -5.050781 6.097656 -7.492188 4.953125 -10.359375 C 3.804688 -13.234375 2.960938 -16.148438 2.421875 -19.109375 C 1.410156 -25.585938 1.410156 -32.0625 2.421875 -38.53125 C 3.429688 -45.007812 5.625 -51.078125 9 -56.734375 C 9 -56.734375 9.066406 -56.800781 9.203125 -56.9375 C 10.210938 -59.632812 11.5625 -62.0625 13.25 -64.21875 C 13.3125 -64.351562 13.375 -64.40625 13.4375 -64.375 C 13.507812 -64.34375 13.515625 -64.257812 13.453125 -64.125 C 13.179688 -63.65625 12.894531 -63.164062 12.59375 -62.65625 C 12.289062 -62.144531 12.035156 -61.625 11.828125 -61.09375 C 11.554688 -60.550781 11.320312 -59.992188 11.125 -59.421875 C 10.925781 -58.847656 10.722656 -58.289062 10.515625 -57.75 C 10.648438 -57.820312 10.800781 -57.835938 10.96875 -57.796875 C 11.144531 -57.765625 11.265625 -57.75 11.328125 -57.75 C 12.203125 -59.632812 13.242188 -61.285156 14.453125 -62.703125 C 15.671875 -64.117188 17.09375 -65 18.71875 -65.34375 C 19.382812 -65.601562 20.035156 -65.816406 20.671875 -65.984375 C 21.316406 -66.160156 21.976562 -66.210938 22.65625 -66.140625 C 23.394531 -66.273438 24.148438 -66.328125 24.921875 -66.296875 C 25.703125 -66.265625 26.394531 -66.078125 27 -65.734375 C 27.675781 -65.335938 28.265625 -64.765625 28.765625 -64.015625 C 29.273438 -63.273438 29.695312 -62.566406 30.03125 -61.890625 C 30.4375 -62.023438 30.859375 -62.039062 31.296875 -61.9375 C 31.734375 -61.84375 32.085938 -61.5625 32.359375 -61.09375 C 33.109375 -59.738281 33.816406 -58.351562 34.484375 -56.9375 C 35.160156 -55.519531 35.734375 -54.070312 36.203125 -52.59375 C 36.679688 -51.113281 37.070312 -49.597656 37.375 -48.046875 C 37.675781 -46.492188 37.960938 -44.941406 38.234375 -43.390625 Z M 25.59375 -13.953125 C 26.46875 -16.316406 27.070312 -18.742188 27.40625 -21.234375 C 27.75 -23.734375 27.921875 -26.226562 27.921875 -28.71875 C 27.710938 -31.28125 27.503906 -33.828125 27.296875 -36.359375 C 27.097656 -38.890625 26.796875 -41.398438 26.390625 -43.890625 C 26.265625 -44.628906 26.132812 -45.382812 26 -46.15625 C 25.863281 -46.9375 25.726562 -47.664062 25.59375 -48.34375 C 25.320312 -49.289062 25.015625 -50.203125 24.671875 -51.078125 C 24.335938 -51.953125 24.003906 -52.828125 23.671875 -53.703125 C 23.535156 -54.046875 23.378906 -54.414062 23.203125 -54.8125 C 23.035156 -55.21875 22.851562 -55.59375 22.65625 -55.9375 C 22.519531 -56.070312 22.382812 -56.140625 22.25 -56.140625 L 21.75 -56.140625 C 21.476562 -55.597656 21.222656 -55.019531 20.984375 -54.40625 C 20.742188 -53.800781 20.5625 -53.226562 20.4375 -52.6875 C 19.894531 -50.875 19.40625 -49.039062 18.96875 -47.1875 C 18.53125 -45.332031 18.175781 -43.425781 17.90625 -41.46875 C 17.425781 -37.757812 17.21875 -33.984375 17.28125 -30.140625 C 17.351562 -26.296875 17.695312 -22.488281 18.3125 -18.71875 C 18.507812 -17.5625 18.375 -16.546875 17.90625 -15.671875 C 16.488281 -22.285156 15.929688 -29.113281 16.234375 -36.15625 C 16.535156 -43.207031 18.132812 -49.765625 21.03125 -55.828125 C 20.757812 -55.628906 20.503906 -55.34375 20.265625 -54.96875 C 20.035156 -54.59375 19.820312 -54.238281 19.625 -53.90625 C 18.675781 -52.019531 17.863281 -50.0625 17.1875 -48.03125 C 16.519531 -46.007812 15.984375 -43.957031 15.578125 -41.875 C 15.441406 -41.601562 15.375 -41.46875 15.375 -41.46875 C 15.164062 -40.320312 15.007812 -39.15625 14.90625 -37.96875 C 14.8125 -36.789062 14.695312 -35.628906 14.5625 -34.484375 C 14.425781 -31.046875 14.539062 -27.625 14.90625 -24.21875 C 15.28125 -20.8125 15.84375 -17.457031 16.59375 -14.15625 C 16.25 -13.882812 15.875 -13.71875 15.46875 -13.65625 C 14.257812 -13.382812 13.082031 -13.585938 11.9375 -14.265625 C 12.476562 -13.179688 13.21875 -12.066406 14.15625 -10.921875 C 15.101562 -9.773438 16.195312 -8.914062 17.4375 -8.34375 C 18.6875 -7.769531 20.019531 -7.6875 21.4375 -8.09375 C 22.582031 -8.5 23.492188 -9.304688 24.171875 -10.515625 C 24.503906 -11.054688 24.789062 -11.613281 25.03125 -12.1875 C 25.269531 -12.757812 25.457031 -13.347656 25.59375 -13.953125 Z M 25.59375 -13.953125 "/></g></g></g><g fill="#ffffff" fill-opacity="1"><g transform="translate(321.48746, 253.646996)"><g><path d="M 43.890625 0.296875 C 43.285156 0.703125 42.613281 0.703125 41.875 0.296875 C 40.519531 -0.304688 39.609375 -1.296875 39.140625 -2.671875 C 38.671875 -4.054688 38.300781 -5.390625 38.03125 -6.671875 L 37.421875 -10.109375 L 19.828125 -41.5625 C 19.554688 -41.90625 19.285156 -42.273438 19.015625 -42.671875 C 18.742188 -43.078125 18.472656 -43.453125 18.203125 -43.796875 C 18.273438 -40.359375 18.289062 -36.914062 18.25 -33.46875 C 18.21875 -30.03125 18.203125 -26.59375 18.203125 -23.15625 C 18.335938 -21.132812 18.421875 -19.113281 18.453125 -17.09375 C 18.492188 -15.070312 18.546875 -13.050781 18.609375 -11.03125 C 18.679688 -10.007812 18.75 -8.773438 18.8125 -7.328125 C 18.875 -5.878906 18.71875 -4.582031 18.34375 -3.4375 C 17.976562 -2.289062 17.085938 -1.617188 15.671875 -1.421875 C 15.066406 -0.410156 14.238281 0.28125 13.1875 0.65625 C 12.144531 1.03125 11.050781 1.046875 9.90625 0.703125 C 8.832031 0.429688 7.890625 -0.207031 7.078125 -1.21875 C 6.804688 -5.457031 6.585938 -9.703125 6.421875 -13.953125 C 6.253906 -18.203125 6.101562 -22.453125 5.96875 -26.703125 C 5.832031 -30.140625 5.726562 -33.59375 5.65625 -37.0625 C 5.59375 -40.539062 5.492188 -44 5.359375 -47.4375 C 5.296875 -49.65625 5.242188 -51.878906 5.203125 -54.109375 C 5.171875 -56.335938 5.222656 -58.53125 5.359375 -60.6875 C 6.035156 -61.226562 6.675781 -61.53125 7.28125 -61.59375 C 7.28125 -62.40625 7.550781 -63.179688 8.09375 -63.921875 C 8.90625 -64.929688 9.816406 -65.421875 10.828125 -65.390625 C 11.835938 -65.359375 12.878906 -64.988281 13.953125 -64.28125 C 15.035156 -63.570312 16.015625 -62.757812 16.890625 -61.84375 C 17.765625 -60.9375 18.4375 -60.179688 18.90625 -59.578125 C 20.664062 -57.285156 22.269531 -54.941406 23.71875 -52.546875 C 25.164062 -50.148438 26.566406 -47.703125 27.921875 -45.203125 C 29.066406 -43.253906 30.175781 -41.265625 31.25 -39.234375 C 32.332031 -37.210938 33.378906 -35.160156 34.390625 -33.078125 C 34.523438 -32.804688 34.59375 -32.46875 34.59375 -32.0625 L 36.203125 -28.921875 C 35.929688 -31.484375 35.5625 -34.078125 35.09375 -36.703125 C 34.625 -39.335938 34.15625 -41.9375 33.6875 -44.5 C 33.34375 -46.320312 33 -48.140625 32.65625 -49.953125 C 32.320312 -51.773438 31.890625 -53.597656 31.359375 -55.421875 C 31.085938 -56.367188 30.832031 -57.332031 30.59375 -58.3125 C 30.351562 -59.289062 30.503906 -60.285156 31.046875 -61.296875 C 31.523438 -62.097656 32.097656 -62.703125 32.765625 -63.109375 C 32.765625 -63.179688 32.78125 -63.21875 32.8125 -63.21875 C 32.851562 -63.21875 32.875 -63.25 32.875 -63.3125 C 33.476562 -64.457031 34.398438 -65.03125 35.640625 -65.03125 C 36.890625 -65.03125 37.957031 -64.726562 38.84375 -64.125 C 39.039062 -64.050781 39.273438 -63.882812 39.546875 -63.625 C 39.742188 -62.675781 39.976562 -61.710938 40.25 -60.734375 C 40.519531 -59.753906 40.789062 -58.796875 41.0625 -57.859375 C 41.875 -54.953125 42.546875 -51.960938 43.078125 -48.890625 C 43.617188 -45.828125 44.128906 -42.78125 44.609375 -39.75 C 45.617188 -33.613281 46.425781 -27.410156 47.03125 -21.140625 C 47.632812 -14.867188 48.140625 -8.628906 48.546875 -2.421875 C 48.003906 -1.679688 47.328125 -1.039062 46.515625 -0.5 C 45.710938 0.03125 44.835938 0.296875 43.890625 0.296875 Z M 49.5625 -3.4375 C 49.425781 -3.4375 49.289062 -3.335938 49.15625 -3.140625 C 48.476562 -12.773438 47.550781 -22.394531 46.375 -32 C 45.195312 -41.613281 43.5625 -51.109375 41.46875 -60.484375 C 41.332031 -60.890625 41.429688 -61.257812 41.765625 -61.59375 C 42.035156 -61.925781 42.40625 -62.078125 42.875 -62.046875 C 43.351562 -62.015625 43.625 -61.726562 43.6875 -61.1875 C 45.507812 -52.425781 46.941406 -43.578125 47.984375 -34.640625 C 49.035156 -25.703125 49.523438 -16.75 49.453125 -7.78125 C 49.523438 -7.445312 49.578125 -6.820312 49.609375 -5.90625 C 49.640625 -5 49.625 -4.175781 49.5625 -3.4375 Z M 5.265625 -10.828125 C 4.992188 -14.398438 4.789062 -18.125 4.65625 -22 C 4.519531 -25.875 4.382812 -29.632812 4.25 -33.28125 C 4.113281 -36.851562 4.007812 -40.457031 3.9375 -44.09375 C 3.875 -47.738281 3.8125 -51.378906 3.75 -55.015625 C 3.675781 -55.890625 3.707031 -56.78125 3.84375 -57.6875 C 3.976562 -58.601562 4.210938 -59.46875 4.546875 -60.28125 C 4.484375 -58.664062 4.46875 -57.046875 4.5 -55.421875 C 4.53125 -53.804688 4.582031 -52.191406 4.65625 -50.578125 C 4.71875 -47.066406 4.800781 -43.554688 4.90625 -40.046875 C 5.007812 -36.546875 5.09375 -33.007812 5.15625 -29.4375 L 6.0625 -6.671875 C 6.0625 -6.671875 5.976562 -6.820312 5.8125 -7.125 C 5.644531 -7.425781 5.460938 -8.660156 5.265625 -10.828125 Z M 16.59375 -15.78125 L 16.28125 -15.46875 C 16.28125 -15.46875 16.265625 -15.46875 16.234375 -15.46875 C 16.203125 -15.46875 16.148438 -15.4375 16.078125 -15.375 L 15.984375 -9.3125 C 15.984375 -8.5 16.132812 -7.535156 16.4375 -6.421875 C 16.738281 -5.304688 16.722656 -4.109375 16.390625 -2.828125 C 17.054688 -3.972656 17.320312 -5.117188 17.1875 -6.265625 C 17.125 -7.210938 17.070312 -8.191406 17.03125 -9.203125 C 17 -10.210938 16.921875 -11.222656 16.796875 -12.234375 C 16.796875 -12.835938 16.773438 -13.425781 16.734375 -14 C 16.703125 -14.582031 16.65625 -15.175781 16.59375 -15.78125 Z M 16.59375 -15.78125 "/></g></g></g><g clip-path="url(#9db3750474)"><path fill="#ffffff" d="M 244.578125 91.605469 C 244.386719 91.796875 244.019531 91.738281 243.957031 91.480469 C 243.90625 90.972656 244.71875 91.132812 244.578125 91.605469 Z M 139.164062 201.398438 C 139.109375 201.226562 138.972656 201.128906 138.910156 200.960938 C 138.605469 200.988281 138.65625 201.371094 138.226562 201.269531 C 138.105469 200.988281 137.980469 200.726562 137.914062 200.394531 C 138.007812 200.242188 138.132812 200.113281 138.289062 200.023438 C 138.324219 199.777344 138.121094 199.769531 138.164062 199.523438 C 137.5 199.664062 137.632812 200.507812 136.851562 200.652344 C 136.90625 200.121094 137.089844 199.71875 137.597656 199.648438 C 137.484375 199.417969 137.300781 199.136719 137.597656 198.957031 C 137.570312 198.816406 137.257812 198.964844 137.289062 198.773438 C 137.238281 198.34375 137.5625 198.304688 137.726562 198.085938 C 137.683594 197.851562 137.65625 197.613281 137.597656 197.394531 C 137.394531 197.351562 137.0625 197.9375 136.660156 197.710938 C 136.582031 197.222656 136.828125 196.546875 137.414062 196.519531 C 137.300781 195.609375 137.113281 194.785156 137.035156 193.832031 C 136.914062 193.726562 136.449219 194.066406 136.285156 193.769531 C 136.285156 193.269531 136.667969 193.148438 136.914062 192.894531 C 136.859375 192.507812 136.792969 192.140625 136.789062 191.710938 C 136.386719 191.746094 136.605469 192.089844 136.660156 192.332031 C 136.441406 192.484375 136.320312 192.738281 136.03125 192.832031 C 135.90625 192.535156 135.996094 192.089844 136.03125 191.765625 C 135.816406 191.371094 135.300781 191.257812 135.347656 190.582031 C 135.644531 190.511719 135.566406 190.820312 135.722656 190.894531 C 135.855469 190.46875 135.898438 189.773438 135.722656 189.519531 C 135.285156 189.75 135.222656 190.351562 134.601562 190.390625 C 134.375 189.96875 134.261719 189.433594 133.910156 189.144531 C 133.898438 188.941406 134.136719 188.996094 134.222656 188.898438 C 134.25 188.609375 134.15625 188.207031 134.285156 188.015625 C 134.628906 187.859375 134.898438 188.15625 135.101562 188.332031 C 135.160156 188.726562 134.722656 188.621094 134.601562 188.835938 C 134.523438 189.222656 134.691406 189.363281 134.785156 189.582031 C 135.53125 189.441406 134.941406 187.972656 135.597656 187.894531 C 135.957031 187.855469 136.003906 188.113281 136.160156 188.398438 C 136.335938 188.074219 136.082031 187.640625 136.03125 187.332031 C 135.660156 187.578125 135.179688 187.636719 134.722656 187.578125 C 134.707031 186.789062 135.425781 186.789062 135.414062 186.140625 C 134.847656 185.808594 133.714844 184.390625 134.785156 183.953125 C 134.976562 184.082031 134.976562 184.203125 134.910156 184.457031 C 135.011719 184.328125 135.292969 184.378906 135.414062 184.265625 C 135.234375 184.246094 134.855469 184.25 134.976562 183.765625 C 134.523438 183.679688 134.425781 184.144531 134.101562 183.828125 C 134.628906 183.3125 133.988281 181.980469 134.601562 181.515625 C 134.375 181.347656 134.214844 181.105469 133.847656 181.078125 C 133.9375 180.542969 133.734375 180.667969 133.539062 180.449219 C 133.664062 180.273438 133.777344 180.253906 133.664062 179.957031 C 133.613281 179.828125 133.429688 180.289062 133.285156 180.078125 C 133.332031 179.722656 133.480469 179.203125 132.972656 179.140625 C 132.925781 178.886719 133.183594 178.742188 133.347656 178.890625 C 133.207031 178.660156 132.839844 178.460938 133.035156 178.082031 C 132.746094 178.117188 132.632812 177.984375 132.410156 177.953125 C 132.414062 177.742188 132.148438 177.46875 132.28125 177.328125 C 132.558594 177.101562 132.367188 177.757812 132.664062 177.699219 C 133.050781 177.445312 133.417969 177.164062 133.472656 176.578125 C 133.367188 176.578125 133.261719 176.578125 133.164062 176.578125 C 132.894531 176.726562 133.394531 176.839844 133.101562 177.078125 C 132.769531 177.144531 132.769531 177.074219 132.535156 176.953125 C 133.148438 176.367188 132.71875 175.734375 132.535156 175.015625 C 132.5 174.941406 132.234375 175.0625 132.097656 174.949219 C 131.945312 174.578125 132.085938 174.097656 132.410156 174.011719 C 132.488281 173.019531 131.660156 172.925781 131.660156 172.011719 C 131.703125 171.722656 131.992188 171.679688 132.164062 171.515625 C 132.027344 171.453125 131.5625 171.585938 131.40625 171.390625 C 131.335938 170.9375 131.589844 170.820312 131.84375 170.699219 C 131.597656 170.453125 131.019531 170.527344 130.789062 170.261719 C 130.613281 170 130.589844 169.324219 130.851562 169.140625 C 131.160156 169.078125 131.183594 169.554688 131.472656 169.324219 C 130.816406 168.210938 130.210938 166.503906 129.96875 164.761719 C 129.503906 164.753906 128.984375 164.402344 129.347656 163.949219 C 129.679688 163.84375 129.546875 164.210938 129.851562 164.132812 C 130.398438 163.675781 129.636719 162.730469 129.597656 162.074219 C 129.46875 162.0625 129.265625 162.160156 129.160156 161.886719 C 129.039062 161.539062 129.398438 161.667969 129.414062 161.449219 C 129.398438 161.164062 128.953125 161.3125 128.910156 161.074219 C 128.742188 160.875 129.082031 160.785156 129.160156 160.636719 C 129.089844 160.441406 128.769531 160.480469 128.722656 160.257812 C 128.707031 159.9375 128.933594 160.25 128.976562 160.007812 C 128.847656 159.636719 128.734375 159.242188 128.53125 158.945312 C 128.226562 156.5625 127.289062 154.546875 126.78125 152.253906 C 126.699219 152.078125 126.421875 152.078125 126.34375 151.878906 C 126.132812 149.792969 125.402344 148.136719 124.722656 146.445312 C 123.589844 143.609375 122.304688 140.640625 121.09375 137.632812 C 120.832031 136.96875 120.628906 136.15625 120.347656 135.9375 C 120.050781 135.714844 119.519531 135.621094 119.15625 135.4375 C 116.960938 134.324219 115.027344 132.863281 114.527344 129.9375 C 114.523438 129.691406 114.226562 129.742188 114.21875 129.5 C 114.367188 129.253906 114.558594 129.050781 114.527344 128.628906 C 114.585938 128.359375 114.121094 128.621094 114.15625 128.375 C 114.570312 128.140625 114.726562 127.65625 114.902344 127.1875 C 114.847656 127.054688 114.621094 127.105469 114.472656 127.027344 C 114.347656 127.464844 113.5625 127.195312 113.667969 126.738281 C 113.726562 126.695312 113.761719 126.625 113.796875 126.554688 C 114.027344 126.589844 114.226562 126.660156 114.351562 126.792969 C 114.472656 126.300781 115.324219 126.535156 115.464844 126.0625 C 115.445312 125.855469 115.289062 125.785156 115.347656 125.496094 C 115.113281 125.546875 115.199219 125.898438 114.902344 125.878906 C 114.464844 125.792969 114.339844 125.40625 113.910156 125.3125 C 114.105469 124.476562 114.980469 125.816406 115.21875 124.996094 C 115.503906 125.03125 115.574219 125.273438 115.839844 125.3125 C 116.171875 125.328125 116.171875 125.019531 116.40625 124.941406 C 116.066406 124.792969 115.890625 124.242188 116.222656 123.9375 C 116.984375 124.003906 117.136719 123.390625 117.714844 123.121094 C 117.742188 122.867188 117.511719 122.875 117.597656 122.5625 C 117.855469 122.492188 117.835938 122.691406 118.03125 122.683594 C 118.1875 122.988281 117.765625 123.410156 118.160156 123.621094 C 118.308594 123.496094 118.421875 123.199219 118.554688 122.917969 C 118.511719 122.925781 118.46875 122.929688 118.421875 122.925781 C 118.390625 122.875 118.363281 122.820312 118.292969 122.804688 C 118.230469 122.488281 118.574219 122.351562 118.808594 122.464844 C 118.921875 122.316406 119.054688 122.234375 119.21875 122.246094 C 119.476562 122.277344 119.5625 122.347656 119.589844 122.683594 C 119.765625 122.585938 119.78125 122.332031 120.09375 122.375 C 120.527344 122.339844 120.382812 122.882812 120.71875 122.9375 C 120.769531 122.894531 120.683594 122.570312 120.753906 122.402344 C 120.59375 122.457031 120.367188 122.394531 120.296875 122.238281 C 120.269531 121.859375 120.710938 121.789062 120.917969 121.984375 C 120.957031 122.132812 120.9375 122.238281 120.886719 122.3125 C 121.578125 122.296875 121.785156 122.761719 122.285156 122.9375 C 122.546875 122.988281 122.300781 122.523438 122.496094 122.5 C 122.46875 122.5 122.445312 122.496094 122.417969 122.488281 C 122.398438 122.234375 122.441406 122.058594 122.671875 122.050781 C 122.828125 122.15625 122.792969 122.488281 122.523438 122.5 L 122.53125 122.5 C 122.941406 122.488281 122.835938 122.996094 123.160156 123.066406 C 123.109375 122.675781 122.777344 122.367188 122.847656 122.0625 C 123.300781 121.851562 123.566406 122.324219 123.90625 122.4375 C 123.765625 122.628906 123.703125 122.894531 123.597656 123.121094 C 124.082031 123.304688 124.660156 123.390625 125.035156 123.683594 C 125.226562 123.671875 125.140625 123.375 125.40625 123.4375 C 125.28125 123.832031 125.464844 123.917969 125.71875 124.058594 C 125.859375 124.015625 125.710938 123.679688 125.972656 123.75 C 125.949219 124.007812 126.273438 124.152344 126.097656 124.375 C 126.894531 125.054688 127.777344 125.644531 128.347656 126.625 C 128.574219 127.007812 128.652344 127.554688 128.910156 127.816406 C 129.125 128.019531 129.773438 128.15625 130.285156 128.375 C 133.359375 129.691406 136.527344 131.171875 139.347656 132.753906 C 142.597656 134.570312 145.714844 136.800781 148.722656 138.6875 C 150.273438 139.664062 151.859375 140.65625 153.292969 141.820312 C 154.710938 142.96875 156.085938 144.203125 157.609375 145.132812 C 159.914062 146.542969 161.867188 148.511719 163.917969 150.324219 C 165.058594 151.332031 166.222656 152.078125 166.921875 153.507812 C 167.449219 152.917969 166.273438 152.464844 166.730469 151.945312 C 167.054688 151.953125 166.972656 152.269531 166.921875 152.507812 C 167.28125 152.242188 167.085938 151.421875 167.230469 150.945312 C 166.71875 150.378906 167.253906 149.949219 167.359375 149.320312 C 167.210938 149.003906 166.71875 149.390625 166.667969 148.949219 C 167.035156 148.941406 167.089844 148.671875 167.421875 148.382812 C 167.238281 148.257812 166.859375 148.320312 166.667969 148.195312 C 166.632812 147.925781 166.71875 147.777344 166.730469 147.566406 C 166.949219 147.769531 167.011719 147.617188 167.296875 147.566406 C 167.195312 147.292969 166.949219 147.164062 166.859375 146.882812 C 166.949219 146.664062 167.085938 146.488281 167.230469 146.320312 C 167.226562 146.035156 166.984375 145.980469 167.046875 145.632812 C 167.160156 145.359375 167.554688 145.527344 167.730469 145.445312 C 167.796875 145.085938 167.421875 145.246094 167.421875 144.878906 C 167.414062 144.5 168.085938 144.300781 167.796875 143.757812 C 167.71875 144.238281 167.175781 144.5625 167.105469 145.070312 C 166.871094 145.027344 166.878906 144.683594 167.046875 144.570312 C 166.929688 144.332031 166.625 144.28125 166.667969 143.878906 C 166.824219 143.789062 166.914062 143.730469 167.105469 143.816406 C 167.183594 143.476562 167.105469 143.492188 167.050781 143.195312 C 166.949219 143.5 166.378906 143.617188 166.109375 143.378906 C 166.046875 142.816406 166.773438 142.792969 167.050781 143.070312 C 167.253906 142.566406 166.800781 142.40625 166.605469 142.128906 C 166.617188 141.644531 167.191406 141.714844 167.105469 141.128906 C 167 140.972656 166.582031 141.269531 166.421875 141.066406 C 166.457031 140.714844 167.015625 140.820312 167.167969 140.753906 C 167.21875 140.136719 167.378906 139.636719 167.605469 139.191406 C 167.273438 138.589844 167.167969 137.273438 167.667969 136.695312 C 167.816406 136.527344 168.070312 136.554688 168.171875 136.3125 C 167.980469 136.214844 167.65625 136.242188 167.542969 136.066406 C 167.480469 135.503906 167.613281 134.496094 167.988281 134 C 168.507812 133.945312 168.390625 134.542969 168.425781 134.820312 C 168.566406 134.691406 168.445312 134.296875 168.480469 134.066406 C 167.9375 133.847656 167.597656 132.570312 168.042969 132.125 C 168.234375 132.125 168.105469 132.445312 168.296875 132.445312 C 168.585938 132.097656 168.007812 132.078125 167.921875 131.753906 C 167.773438 131.984375 167.921875 132.507812 167.542969 132.507812 C 167.410156 132.183594 167.359375 131.765625 167.167969 131.503906 C 167.558594 131.632812 167.492188 131.394531 167.796875 131.316406 C 167.804688 130.722656 167.738281 130.046875 167.921875 129.628906 C 167.847656 129.410156 167.519531 129.445312 167.542969 129.128906 C 167.804688 128.839844 168.183594 128.683594 168.671875 128.628906 C 168.535156 127.992188 168.375 127.691406 167.988281 127.253906 C 168.085938 126.914062 168.070312 126.441406 167.859375 126.253906 C 168.070312 126.046875 168.121094 125.683594 168.171875 125.316406 C 168.269531 125.222656 168.636719 125.222656 168.734375 125.316406 C 168.824219 124.84375 168.460938 124.835938 168.542969 124.378906 C 168.332031 124.277344 167.972656 124.320312 167.921875 124.058594 C 168.007812 123.425781 168.351562 123.039062 168.542969 122.503906 C 168.429688 122.324219 168.097656 122.359375 168.042969 122.128906 C 168.304688 121.707031 168.261719 121.367188 168.234375 120.691406 C 168.445312 120.378906 168.648438 120.0625 168.796875 119.6875 C 168.671875 119.5625 168.402344 119.574219 168.359375 119.371094 C 168.421875 118.828125 168.894531 118.207031 168.605469 117.875 C 168.5625 117.539062 168.945312 117.628906 168.859375 117.25 C 168.847656 116.996094 168.453125 117.113281 168.480469 116.8125 C 168.796875 116.425781 169.234375 115.703125 168.671875 115.308594 C 168.796875 114.796875 169.023438 114.695312 168.796875 114.371094 C 168.8125 114.011719 169.179688 114.003906 169.234375 113.6875 C 169.078125 113.589844 168.847656 113.574219 168.796875 113.371094 C 168.816406 113.082031 169.042969 112.996094 169.296875 112.933594 C 169.007812 112.398438 169.574219 111.820312 169.296875 111.121094 C 169.242188 110.925781 169.390625 110.925781 169.480469 110.875 C 169.46875 110.613281 169.113281 110.699219 169.234375 110.3125 C 169.363281 110.183594 169.355469 109.964844 169.609375 110.121094 C 169.636719 109.832031 169.691406 109.703125 169.609375 109.4375 C 170.230469 106.355469 171.390625 103.488281 174.796875 103.054688 C 176.488281 102.84375 177.605469 103.761719 178.796875 104.558594 C 179.824219 105.242188 180.644531 105.707031 181.425781 106.433594 C 182.222656 107.167969 182.90625 107.992188 183.675781 108.683594 C 185.992188 110.769531 188.066406 113.222656 189.929688 115.8125 C 191.195312 117.574219 192.550781 119.246094 193.742188 120.9375 C 195.011719 122.753906 196.003906 124.660156 197.367188 126.316406 C 201.351562 131.167969 205.3125 136.335938 209.054688 141.445312 C 210.734375 137.871094 212.425781 134.402344 214.183594 131.003906 C 215.027344 129.363281 216.148438 127.816406 217.121094 126.191406 C 218.089844 124.566406 219.101562 122.945312 220.183594 121.5 C 221.289062 120.027344 222.515625 118.601562 223.621094 117.121094 C 224.742188 115.636719 225.851562 114.183594 227.0625 112.808594 C 229.488281 110.050781 231.5 106.941406 234.3125 104.558594 C 234.285156 104.332031 234.210938 104.199219 234.3125 103.996094 C 235.304688 103.925781 235.328125 102.878906 236.125 102.621094 C 236.09375 102.035156 236.8125 101.976562 236.75 101.308594 C 237.070312 101.246094 237.179688 100.984375 237.378906 100.808594 C 237.703125 100.765625 237.957031 100.984375 238.125 100.746094 C 237.976562 100.589844 237.824219 100.179688 238.0625 99.996094 C 238.4375 99.898438 238.386719 100.214844 238.691406 100.179688 C 239.238281 99.949219 239.128906 99.769531 238.945312 99.242188 C 239.15625 98.960938 239.542969 99.09375 239.882812 99.179688 C 240.105469 98.804688 239.742188 98.542969 239.566406 98.367188 C 239.816406 98.199219 239.996094 97.960938 240.277344 97.824219 C 240.285156 97.804688 240.296875 97.789062 240.304688 97.78125 C 240.136719 97.175781 240.550781 96.789062 240.503906 96.308594 C 240.8125 96.34375 240.855469 96.121094 241.257812 96.121094 C 241.226562 96 241.171875 95.90625 241.152344 95.816406 C 241.144531 95.828125 241.144531 95.84375 241.136719 95.859375 C 240.464844 95.894531 240.960938 95.140625 241.222656 95.535156 C 241.410156 95.414062 241.59375 95.449219 241.828125 95.476562 C 241.828125 95.464844 241.828125 95.441406 241.828125 95.421875 C 241.882812 95.371094 241.960938 95.351562 242.03125 95.359375 C 242.046875 95.28125 242.058594 95.183594 242.128906 95.117188 C 242.328125 95.132812 242.390625 95.003906 242.632812 95.054688 C 242.886719 94.496094 243.535156 94.335938 243.878906 93.871094 C 244.605469 94.089844 245.183594 93.863281 246 93.871094 C 246.25 93.90625 246.164062 93.609375 246.320312 93.554688 C 246.648438 93.515625 246.613281 93.84375 246.820312 93.933594 C 246.917969 93.949219 247.007812 93.976562 247.109375 93.996094 C 247.222656 93.84375 247.503906 93.820312 247.707031 93.917969 C 247.722656 94.023438 247.765625 94.097656 247.769531 94.207031 C 249.730469 94.941406 251.058594 96.605469 251.007812 98.933594 C 250.9375 101.800781 248.996094 103.304688 246.9375 104.25 C 246.855469 105.320312 246.9375 106.574219 246.320312 107.125 C 246.253906 112.308594 246.304688 117.769531 245.882812 122.8125 C 245.367188 128.90625 245.542969 135.285156 245.253906 141.566406 C 244.949219 148.25 245.464844 154.476562 245.753906 160.640625 C 245.972656 165.3125 246.242188 169.945312 246.882812 174.269531 C 247.050781 175.453125 247.171875 176.382812 247.628906 177.265625 C 248.101562 178.167969 248.292969 179.113281 248.566406 180.140625 C 248.84375 181.171875 249.34375 182.085938 249.441406 183.019531 C 249.84375 186.804688 247.152344 189.378906 243.570312 189.082031 C 240.996094 188.871094 239.59375 187.207031 238.625 185.148438 C 232.078125 182.941406 223.050781 182.882812 214.746094 182.644531 C 214.421875 183.125 214.582031 183.6875 214.554688 184.210938 C 214.300781 189.871094 214.789062 196.140625 214.808594 201.964844 C 217.695312 201.773438 220.703125 200.828125 223.875 200.398438 C 226.394531 200.058594 228.285156 199.542969 230.441406 198.898438 C 231.074219 198.707031 231.644531 198.121094 232.1875 198.023438 C 234.226562 197.648438 234.707031 200.433594 233 200.960938 C 232.617188 201.082031 232.203125 201.0625 231.816406 201.144531 C 230.871094 201.363281 229.785156 201.894531 228.75 202.027344 C 228.785156 203.683594 229.03125 206.039062 228.5 207.335938 C 228.316406 207.429688 228.128906 207.503906 227.808594 207.464844 C 227.113281 206.539062 227.238281 204.785156 227.125 203.273438 C 226.6875 203.167969 225.78125 203.605469 225.316406 203.273438 C 225.328125 204.175781 225.722656 206.179688 225.5625 207.273438 C 225.492188 207.765625 225.222656 208.585938 224.433594 208.402344 C 223.507812 207.554688 223.898438 205.398438 223.6875 203.839844 C 220.832031 204.648438 217.769531 205.257812 214.808594 205.960938 C 215.0625 207.816406 214.582031 209.480469 214.746094 211.523438 C 214.824219 212.527344 215.246094 214 215.375 215.09375 C 215.5 216.21875 214.976562 218.1875 213.679688 217.214844 C 213.273438 216.910156 213.089844 215.886719 213.117188 215.21875 C 213.171875 214.019531 213.441406 212.488281 213.371094 210.902344 C 213.292969 209.175781 213.019531 207.632812 213.117188 206.335938 C 211.066406 206.582031 208.957031 207.300781 206.679688 207.527344 C 206.257812 211.078125 207.074219 214.796875 206.988281 218.214844 C 207.75 218.941406 207.363281 220.230469 206.679688 220.402344 C 205.679688 220.65625 205.109375 219.90625 205.179688 219.089844 C 205.207031 218.792969 205.460938 218.574219 205.496094 218.34375 C 205.523438 218.160156 205.445312 218.03125 205.433594 217.84375 C 205.183594 214.808594 205.507812 210.609375 204.996094 207.964844 C 201.886719 208.605469 198.128906 209.140625 194.488281 209.464844 C 194.335938 209.761719 194.335938 210.21875 194.050781 210.402344 C 193.960938 211.855469 193.96875 213.695312 194.050781 215.527344 C 194.144531 217.574219 194.011719 219.84375 194.488281 221.15625 C 194.671875 221.640625 195.230469 222 195.054688 222.777344 C 194.800781 223.898438 193.035156 223.699219 192.867188 222.59375 C 192.804688 222.183594 192.886719 221.417969 192.867188 220.84375 C 192.707031 217.382812 192.964844 212.984375 192.550781 209.777344 C 185.265625 210.113281 177.453125 210.960938 169.359375 210.585938 C 166.730469 210.46875 164.128906 210.707031 161.605469 210.585938 C 159.292969 210.480469 157.101562 210.425781 154.792969 210.277344 C 153.09375 210.164062 151.320312 209.796875 149.660156 209.527344 C 147.992188 209.253906 146.46875 208.839844 145.101562 208.273438 C 142.363281 207.144531 140.03125 205.152344 139.410156 202.273438 C 139.191406 202.289062 138.9375 202.804688 138.351562 202.648438 C 137.554688 202.203125 138.277344 200.855469 139.164062 201.398438 Z M 137.414062 200.769531 C 137.734375 200.726562 137.78125 201.339844 137.351562 201.207031 C 137.351562 201.046875 137.324219 200.855469 137.414062 200.769531 Z M 237.003906 101.554688 C 237.195312 101.5625 237.324219 101.496094 237.378906 101.371094 C 237.1875 101.414062 237.257812 101.195312 237.0625 101.242188 C 237.089844 101.390625 236.949219 101.378906 237.003906 101.554688 Z M 205.742188 148.632812 C 204.902344 149.109375 205.058594 147.53125 204.367188 147.445312 C 204.332031 147.65625 204.339844 147.910156 204.121094 147.945312 C 203.964844 147.765625 203.8125 147.585938 203.867188 147.191406 C 203.957031 146.867188 204.375 147.152344 204.496094 146.945312 C 204.171875 146.394531 203.832031 145.851562 203.304688 145.507812 C 203.269531 145.613281 203.382812 145.875 203.242188 145.882812 C 202.261719 145.667969 202.910156 144.421875 202.246094 144.070312 C 202.230469 144.273438 202.386719 144.371094 202.117188 144.378906 C 201.703125 144.222656 201.886719 143.492188 201.429688 143.695312 C 201.214844 143.371094 201.140625 143.152344 201.363281 142.820312 C 201.210938 142.53125 200.773438 143.046875 200.554688 142.695312 C 200.554688 142.238281 200.695312 141.90625 200.425781 141.566406 C 200.273438 141.390625 200.265625 141.925781 200.054688 141.695312 C 199.960938 140.679688 199.277344 140.261719 198.550781 139.882812 C 198.390625 139.699219 198.578125 139.492188 198.550781 139.253906 C 197.921875 138.816406 197.648438 138.042969 197.121094 137.507812 C 196.9375 137.324219 196.71875 137.273438 196.554688 137.070312 C 196.414062 136.886719 196.359375 136.632812 196.238281 136.441406 C 194.914062 134.363281 193.023438 132.597656 191.429688 130.6875 C 189.796875 128.734375 188.320312 126.691406 186.550781 124.941406 C 186.648438 127.078125 186.417969 129.347656 186.425781 131.507812 C 186.429688 132.4375 186.925781 135.058594 186.175781 135.257812 C 185.664062 135.382812 185.34375 134.820312 185.304688 134.566406 C 185.234375 134.164062 185.628906 133.777344 185.675781 133.316406 C 185.761719 132.472656 185.605469 131.140625 185.550781 129.878906 C 185.488281 128.460938 185.375 126.929688 185.304688 125.753906 C 185.246094 124.929688 185.449219 123.941406 185.304688 123.375 C 185.199219 122.980469 184.589844 122.4375 184.300781 122.066406 C 183.921875 121.570312 183.5 121.078125 183.238281 120.753906 C 182.417969 119.722656 181.800781 118.828125 181.050781 118.316406 C 181.066406 121.796875 181.328125 126.554688 181.671875 129.8125 C 181.707031 130.117188 181.855469 130.363281 181.800781 130.632812 C 181.601562 131.613281 180.15625 131.292969 180.050781 130.566406 C 180 130.207031 180.261719 129.871094 180.296875 129.503906 C 180.417969 128.3125 180.066406 126.535156 179.988281 124.878906 C 179.910156 123.101562 179.867188 120.878906 179.738281 119.125 C 179.667969 118.203125 180 117.15625 179.421875 116.4375 C 178.335938 121.570312 177.316406 127.191406 176.671875 133 C 175.910156 139.953125 174.675781 146.792969 174.359375 154.011719 C 174.289062 155.570312 174.675781 157.121094 174.550781 158.574219 C 174.351562 160.757812 172.746094 162.4375 170.671875 162.578125 C 168.839844 162.699219 167.550781 161.683594 166.921875 160.757812 C 166.589844 160.273438 166.5625 159.636719 166.167969 159.074219 C 165.773438 158.496094 164.835938 157.960938 164.109375 157.386719 C 163.367188 156.804688 162.699219 156.097656 162.105469 155.570312 C 160.722656 154.335938 159.167969 153.328125 157.726562 152.320312 C 151.652344 148.058594 145.828125 143.886719 139.101562 140.507812 C 135.714844 138.804688 132.261719 137.203125 128.660156 135.695312 C 130.660156 139.761719 133.023438 143.625 134.722656 148.011719 C 136.449219 152.453125 137.597656 157.210938 139.289062 161.886719 C 140.898438 166.34375 142.484375 170.890625 144.035156 175.515625 C 145.617188 180.210938 146.820312 185.042969 147.976562 190.019531 C 152.234375 187.488281 156.742188 185.195312 161.796875 183.453125 C 161.894531 182.179688 161.847656 180.753906 161.859375 179.394531 C 159.816406 179.730469 157.269531 180.957031 154.976562 181.515625 C 152.496094 182.128906 150.3125 180.628906 150.105469 178.519531 C 149.882812 176.257812 151.304688 175.191406 152.792969 174.515625 C 152.914062 174.367188 152.890625 174.078125 153.101562 174.011719 C 153.539062 174.019531 153.785156 173.625 154.105469 174.011719 C 154.074219 173.222656 155.4375 173.40625 155.851562 173.449219 C 155.929688 173.238281 155.332031 173 155.605469 172.574219 C 155.9375 172.460938 156.628906 172.398438 157.109375 172.511719 C 157.433594 172.597656 157.566406 172.976562 157.792969 172.828125 C 157.890625 172.722656 157.417969 172.660156 157.542969 172.328125 C 157.582031 172.132812 157.847656 172.175781 157.980469 172.074219 C 157.722656 172.054688 157.550781 171.863281 157.664062 171.636719 C 158.660156 171.25 158.546875 172.246094 158.984375 172.511719 C 158.828125 172.246094 158.695312 172.0625 158.984375 171.957031 C 159.390625 171.800781 159.632812 172.539062 160.039062 172.203125 C 160.148438 172.019531 159.84375 171.6875 160.105469 171.453125 C 160.886719 171.144531 161.664062 171.152344 162.171875 171.636719 C 162.671875 171.625 162.578125 171.011719 162.917969 170.828125 C 163.199219 170.828125 163.304688 171.152344 163.488281 171.222656 C 163.480469 171.109375 163.53125 170.976562 163.558594 170.875 C 163.691406 170.839844 163.785156 170.871094 163.847656 170.933594 C 163.980469 170.777344 164.144531 170.722656 164.292969 171.019531 C 164.285156 170.734375 164.371094 170.546875 164.609375 170.515625 C 164.957031 170.664062 165.074219 170.949219 165.609375 170.765625 C 165.652344 170.550781 165.210938 170.074219 165.667969 169.890625 C 166.1875 169.890625 166.335938 170.480469 166.730469 170.453125 C 167.105469 170.417969 167.070312 170.191406 167.488281 169.953125 C 167.816406 170.117188 168.183594 170.347656 168.425781 169.953125 C 168.269531 169.664062 167.515625 169.980469 167.605469 169.453125 C 167.761719 169.234375 168.078125 169.382812 168.234375 169.515625 C 168.226562 169.234375 168.515625 169.253906 168.796875 169.261719 C 169.042969 169.496094 169.023438 169.996094 169.609375 169.890625 C 169.925781 169.769531 170.039062 169.445312 170.355469 169.324219 C 170.011719 169.3125 169.699219 169.601562 169.546875 169.261719 C 169.699219 168.734375 170.976562 169.007812 170.984375 169.324219 C 171.210938 168.925781 171.589844 169.023438 171.992188 169.09375 C 172.117188 168.980469 172.371094 169 172.519531 169.136719 C 172.949219 169.078125 173.3125 168.769531 173.550781 169.199219 C 173.542969 168.875 173.710938 168.71875 173.925781 168.605469 C 173.867188 168.550781 173.832031 168.472656 173.8125 168.382812 C 173.851562 167.921875 174.671875 168.121094 174.496094 168.628906 C 174.445312 168.65625 174.390625 168.683594 174.375 168.75 C 174.453125 168.796875 174.523438 168.847656 174.609375 168.890625 C 174.707031 168.359375 175.515625 168.542969 175.863281 168.261719 C 176.199219 168.242188 176.125 168.628906 176.425781 168.640625 C 176.511719 168.480469 176.496094 168.21875 176.800781 168.261719 C 177.132812 168.226562 177.101562 168.65625 177.421875 168.453125 C 177.765625 168.53125 177.640625 168.128906 177.921875 168.140625 C 178.210938 168.105469 178.1875 168.375 178.484375 168.324219 C 178.730469 168.347656 178.675781 168.058594 178.921875 168.078125 C 179.097656 168.105469 179.273438 168.121094 179.457031 168.132812 C 179.519531 167.992188 179.71875 167.984375 179.9375 168.007812 C 179.949219 168.050781 179.980469 168.09375 180 168.132812 C 180.847656 168.097656 181.742188 167.929688 182.609375 167.824219 C 183.707031 167.699219 184.832031 167.664062 185.921875 167.578125 C 190.992188 167.191406 196.109375 166.914062 201.242188 167.140625 C 202.535156 167.195312 203.683594 167.148438 204.929688 167.203125 C 209.824219 167.421875 214.40625 168.007812 218.371094 168.824219 C 220.421875 169.25 222.347656 169.59375 224.1875 170.261719 C 225.046875 170.582031 225.898438 171.019531 226.808594 171.265625 C 227.316406 171.40625 227.746094 171.519531 228.183594 171.703125 C 228.605469 171.878906 228.988281 172.179688 229.4375 172.328125 C 229.972656 172.507812 230.144531 172.363281 230.441406 172.511719 C 231.5625 173.085938 231.019531 175.023438 229.558594 174.707031 C 229.070312 174.59375 228.804688 173.992188 228.5 173.832031 C 228.175781 173.65625 227.691406 173.625 227.246094 173.449219 C 226.878906 173.300781 226.511719 173.050781 226.125 172.894531 C 225.292969 172.554688 224.242188 172.476562 223.3125 172.328125 C 221.375 172.027344 219.273438 171.667969 217.3125 171.574219 C 213.046875 171.390625 208.894531 171.46875 204.996094 171.636719 C 193.394531 172.152344 182.882812 174.429688 173.167969 176.390625 C 173.324219 177.660156 173.40625 178.992188 173.421875 180.394531 C 181.375 178.832031 190.578125 177.703125 200.117188 177.265625 C 213.1875 176.671875 226.878906 177.144531 237.503906 179.832031 C 237.167969 171.152344 237.101562 162.050781 237.503906 153.011719 C 237.695312 148.675781 237.625 144.34375 237.816406 140.066406 C 238.0625 134.472656 238.34375 128.953125 238.753906 123.625 C 238.507812 123.476562 238.222656 123.363281 238.125 123.066406 C 238.621094 122.445312 237.789062 122.496094 237.878906 121.9375 C 237.941406 121.535156 238.429688 121.472656 238.878906 121.75 C 238.773438 121.253906 238.824219 120.753906 238.941406 120.308594 C 238.476562 119.921875 237.96875 118.492188 239 118.316406 C 239.308594 118.535156 238.625 119.132812 239.125 119.371094 C 239.191406 118.898438 239.253906 118.421875 239.253906 117.878906 C 238.441406 117.636719 238.765625 116.222656 239.4375 116.066406 C 238.816406 115.832031 238.871094 115.175781 239.5 115 C 239.628906 114.4375 239.554688 113.675781 239.691406 113.125 C 239.15625 112.710938 238.878906 111.164062 239.882812 111.058594 C 239.816406 110.65625 239.988281 110.328125 239.882812 110.058594 C 238.773438 111.050781 237.96875 112.386719 237.003906 113.625 C 236.074219 114.8125 235.058594 115.96875 234.128906 117.1875 C 232.878906 118.808594 231.421875 121.03125 230.121094 122.8125 C 229.464844 123.714844 228.75 124.421875 228.621094 125.5625 C 228.277344 128.742188 228.457031 132.070312 228.3125 135.441406 C 228.183594 138.339844 228.183594 141.039062 228.3125 143.878906 C 228.457031 147.09375 228.640625 149.949219 228.5 153.136719 C 228.472656 153.652344 228.347656 154.644531 228.5 155.078125 C 228.675781 155.554688 229.289062 155.621094 229.3125 156.386719 C 229.332031 157.183594 228.71875 157.683594 228 157.636719 C 226.363281 157.53125 227.125 155.648438 227.125 154.449219 C 227.113281 149.871094 226.730469 144.882812 227.0625 139.753906 C 227.078125 139.542969 227.125 139.347656 227.125 139.128906 C 227.105469 135.519531 226.832031 131.703125 226.625 128.503906 C 225.277344 130.851562 224.015625 133.394531 222.621094 135.878906 C 222.164062 136.695312 221.445312 137.511719 221.246094 138.316406 C 221.132812 138.777344 221.253906 139.382812 221.246094 139.945312 C 221.234375 142.625 220.84375 146.226562 221.121094 148.632812 C 221.203125 149.359375 221.527344 150.761719 220.433594 150.699219 C 219.863281 150.664062 219.730469 149.796875 219.679688 149.257812 C 219.503906 147.019531 219.964844 144.078125 219.433594 141.941406 C 218.652344 144.148438 217.582031 147.171875 216.683594 149.507812 C 215.847656 151.707031 214.675781 153.765625 211.621094 153.511719 C 210.804688 153.441406 210.355469 153.085938 209.492188 152.945312 C 209.148438 152.691406 209.035156 152.191406 208.617188 152.007812 C 208.441406 152.109375 208.5625 152.496094 208.179688 152.382812 C 207.835938 151.988281 207.582031 151.457031 207.679688 150.945312 C 207.484375 151.042969 207.640625 151.261719 207.242188 151.132812 C 206.90625 150.851562 207.449219 150.570312 207.179688 150.378906 C 206.878906 150.339844 206.820312 150.773438 206.554688 150.570312 C 206.023438 150.394531 206.257812 149.625 206.371094 149.386719 C 206.144531 149.5625 205.742188 149.386719 205.679688 149.195312 C 205.691406 148.976562 205.941406 149 206.050781 148.886719 C 205.863281 148.84375 205.769531 148.378906 205.613281 148.503906 C 205.699219 148.511719 205.679688 148.617188 205.742188 148.632812 Z M 168.042969 138.007812 C 168.234375 138.140625 168.148438 138.402344 168.105469 138.625 C 168.296875 138.464844 168.339844 137.816406 168.234375 137.570312 C 168.183594 137.722656 168.066406 137.816406 168.042969 138.007812 Z M 167.605469 140.382812 C 167.832031 140.253906 167.910156 140.390625 168.105469 140.445312 C 168.105469 140.253906 168.105469 140.066406 168.105469 139.882812 C 167.988281 139.882812 167.859375 139.882812 167.734375 139.882812 C 167.726562 140.078125 167.59375 140.15625 167.605469 140.382812 Z M 167.296875 142.941406 C 167.753906 142.792969 167.535156 143.328125 167.734375 143.441406 C 167.859375 143.027344 168.078125 142.378906 167.921875 141.882812 C 167.769531 142.292969 167.296875 142.378906 167.296875 142.941406 Z M 130.472656 165.511719 C 130.464844 165.023438 130.371094 164.613281 130.160156 164.324219 C 130.246094 164.742188 130.253906 165.234375 130.472656 165.511719 Z M 130.972656 167.265625 C 130.949219 167.074219 130.9375 166.886719 130.789062 166.820312 C 130.859375 166.960938 130.792969 167.230469 130.972656 167.265625 Z M 132.472656 174.515625 C 132.820312 174.542969 132.996094 174.746094 133.164062 174.949219 C 133.121094 174.71875 133.007812 174.554688 132.972656 174.332031 C 132.761719 174.351562 132.621094 174.300781 132.472656 174.265625 C 132.472656 174.34375 132.472656 174.429688 132.472656 174.515625 Z M 167.859375 177.828125 C 167.796875 178.933594 167.902344 180.410156 167.859375 181.707031 C 168.917969 181.496094 169.917969 181.226562 170.917969 180.953125 C 170.8125 179.648438 170.941406 178.101562 170.609375 177.015625 C 169.722656 177.3125 168.613281 177.398438 167.859375 177.828125 Z M 133.539062 177.890625 C 133.488281 178.058594 133.65625 178.019531 133.664062 178.136719 C 133.855469 178.101562 133.980469 178.003906 133.976562 177.765625 C 133.742188 177.722656 133.734375 177.898438 133.539062 177.890625 Z M 163.480469 178.890625 C 163.398438 180.183594 163.417969 181.578125 163.417969 182.953125 C 164.230469 182.699219 165.066406 182.480469 165.859375 182.207031 C 165.546875 181.113281 165.828125 179.441406 165.546875 178.328125 C 164.855469 178.511719 164.125 178.652344 163.480469 178.890625 Z M 134.347656 181.078125 C 134.554688 181.09375 134.652344 181.007812 134.660156 180.832031 C 134.589844 180.773438 134.496094 180.746094 134.347656 180.769531 C 134.347656 180.875 134.347656 180.972656 134.347656 181.078125 Z M 179.113281 187.769531 C 174.394531 189.117188 170.015625 190.722656 165.484375 192.519531 C 162.480469 193.710938 159.066406 195.382812 156.234375 197.082031 C 155.253906 197.667969 154.027344 198.261719 153.421875 198.894531 C 153.125 199.199219 152.890625 199.796875 152.601562 200.269531 C 152.269531 200.804688 151.898438 201.339844 151.917969 201.835938 C 151.933594 202.277344 152.597656 203.507812 152.976562 203.710938 C 153.320312 203.894531 154.082031 203.871094 154.730469 203.957031 C 155.324219 204.042969 155.964844 204.121094 156.480469 204.210938 C 159.90625 204.796875 164.242188 205.171875 167.488281 205.339844 C 170.082031 205.464844 172.730469 205.289062 175.296875 205.210938 C 183.257812 204.957031 190.703125 204.449219 198.058594 203.710938 C 203.054688 203.210938 208.046875 203.117188 212.871094 202.335938 C 212.8125 196.058594 212.863281 188.839844 212.242188 182.707031 C 200.144531 183.03125 189.320312 184.855469 179.113281 187.769531 Z M 135.476562 186.082031 C 135.574219 186.082031 135.679688 186.082031 135.785156 186.082031 C 135.859375 185.71875 135.449219 185.824219 135.476562 186.082031 Z M 135.539062 186.703125 C 135.660156 186.703125 135.785156 186.703125 135.914062 186.703125 C 135.886719 186.542969 135.878906 186.367188 135.785156 186.265625 C 135.714844 186.429688 135.632812 186.570312 135.539062 186.703125 Z M 136.414062 189.269531 C 136.414062 189.082031 136.449219 188.855469 136.222656 188.898438 C 136.117188 189.101562 136.257812 189.164062 136.414062 189.269531 Z M 136.289062 189.953125 C 136.394531 189.953125 136.484375 189.96875 136.535156 190.019531 C 136.511719 189.855469 136.492188 189.363281 136.414062 189.453125 C 136.464844 189.714844 136.289062 189.75 136.289062 189.953125 Z M 136.160156 191.144531 C 136.28125 191.257812 136.414062 191.351562 136.660156 191.328125 C 136.683594 191.25 136.738281 190.703125 136.535156 190.644531 C 136.476562 190.878906 136.109375 190.800781 136.160156 191.144531 Z M 134.984375 202.136719 C 134.890625 202.273438 134.820312 202.425781 134.546875 202.386719 C 134.335938 202.039062 134.84375 201.800781 134.984375 202.136719 Z M 135.863281 201.828125 C 135.949219 201.90625 135.949219 202.117188 135.863281 202.203125 C 135.6875 202.1875 135.597656 202.089844 135.609375 201.882812 C 135.667969 201.839844 135.75 201.820312 135.863281 201.828125 Z M 134.546875 200.007812 C 134.582031 200.503906 133.976562 200.832031 133.488281 201.011719 C 133.472656 200.578125 133.9375 199.820312 134.546875 200.007812 Z M 133.234375 199.453125 C 133.496094 199.417969 133.550781 199.789062 133.425781 199.953125 C 133.339844 199.953125 133.253906 199.953125 133.171875 199.953125 C 133.042969 199.8125 133.121094 199.527344 133.234375 199.453125 Z M 134.863281 199.199219 C 135.019531 199.203125 135.101562 199.289062 135.109375 199.453125 C 134.992188 199.453125 135.03125 199.621094 134.863281 199.570312 C 134.777344 199.496094 134.777344 199.277344 134.863281 199.199219 Z M 132.796875 198.824219 C 132.894531 198.804688 132.902344 198.882812 132.988281 198.886719 C 132.996094 199 132.910156 199.015625 132.925781 199.132812 C 132.785156 199.128906 132.789062 198.980469 132.796875 198.824219 Z M 135.363281 198.449219 C 135.582031 198.4375 135.6875 198.535156 135.675781 198.761719 C 135.601562 198.808594 135.503906 198.847656 135.363281 198.824219 C 135.308594 198.640625 135.308594 198.632812 135.363281 198.449219 Z M 133.171875 197.449219 C 133.460938 197.5 133.398438 197.894531 133.488281 198.132812 C 133.722656 198.175781 134.144531 198.019531 134.109375 198.324219 C 134.339844 198.28125 134.488281 197.90625 134.800781 198.132812 C 134.847656 198.4375 134.441406 198.605469 134.234375 198.449219 C 134.058594 198.628906 133.898438 198.816406 133.734375 199.015625 C 133.828125 199.210938 134.265625 199.0625 134.363281 199.261719 C 134.46875 200.226562 133.15625 199.910156 133.542969 199.070312 C 133.453125 198.964844 133.171875 199.027344 133.109375 198.886719 C 133.296875 198.324219 133.25 198.097656 133.171875 197.449219 Z M 135.363281 197.074219 C 135.449219 197.109375 135.511719 197.167969 135.546875 197.257812 C 135.460938 197.484375 135.371094 197.703125 135.109375 197.757812 C 135.101562 197.519531 134.898438 197.46875 134.925781 197.195312 C 135.023438 197.105469 135.273438 197.289062 135.363281 197.074219 Z M 131.988281 196.886719 C 132.015625 197.019531 131.945312 197.054688 131.921875 197.132812 C 131.839844 197.109375 131.824219 197.027344 131.734375 197.011719 C 131.746094 196.898438 131.84375 196.871094 131.988281 196.886719 Z M 132.359375 196.136719 C 132.445312 196.160156 132.457031 196.242188 132.550781 196.257812 C 132.515625 196.519531 132.453125 196.746094 132.359375 196.949219 C 132.164062 196.835938 132.191406 196.25 132.359375 196.136719 Z M 134.609375 196.074219 C 134.773438 196.265625 134.8125 196.574219 134.800781 196.949219 C 134.503906 196.890625 134.59375 196.449219 134.171875 196.511719 C 134.15625 196.203125 134.300781 196.054688 134.609375 196.074219 Z M 133.425781 196.074219 C 133.363281 196.265625 133.277344 196.425781 133.050781 196.449219 C 133.09375 196.242188 133.148438 196.054688 133.425781 196.074219 Z M 133.925781 195.320312 C 134.011719 195.320312 134.085938 195.320312 134.171875 195.320312 C 134.285156 195.441406 134.222656 195.734375 134.234375 195.949219 C 134.082031 196.066406 133.925781 196.179688 133.609375 196.136719 C 133.585938 196.019531 133.472656 195.976562 133.488281 195.820312 C 133.644531 195.664062 133.953125 195.664062 133.925781 195.320312 Z M 133.171875 194.945312 C 133.515625 194.960938 133.523438 195.304688 133.609375 195.574219 C 133.550781 195.601562 133.496094 195.628906 133.488281 195.703125 C 133.007812 195.730469 132.996094 195.25 133.171875 194.945312 Z M 133.863281 194.199219 C 134.171875 194.347656 134.320312 195.082031 133.734375 195.011719 C 133.722656 194.734375 133.621094 194.402344 133.863281 194.199219 Z M 133.734375 193.445312 C 133.734375 193.550781 133.734375 193.65625 133.734375 193.761719 C 133.460938 193.910156 133.21875 193.820312 132.925781 194.007812 C 132.859375 193.457031 133.3125 193.148438 133.734375 193.445312 Z M 134.363281 192.699219 C 134.449219 192.878906 134.363281 193.007812 134.234375 193.132812 C 133.933594 193.113281 134.03125 192.613281 134.363281 192.699219 Z M 131.613281 192.632812 C 131.886719 192.625 132.023438 192.769531 132.050781 193.007812 C 131.886719 193.183594 131.769531 193.394531 131.484375 193.445312 C 131.375 193.132812 131.527344 192.921875 131.613281 192.632812 Z M 132.734375 189.820312 C 132.734375 189.96875 132.839844 190.003906 132.796875 190.195312 C 132.683594 190.363281 132.347656 190.363281 132.234375 190.195312 C 132.148438 189.792969 132.460938 189.679688 132.734375 189.820312 Z M 132.359375 188.691406 C 132.324219 188.953125 132.304688 189.222656 131.988281 189.191406 C 131.957031 189.144531 131.929688 189.085938 131.859375 189.074219 C 131.894531 188.828125 132.105469 188.515625 132.359375 188.691406 Z M 132.796875 185.632812 C 132.640625 186.082031 132.242188 186.28125 131.921875 186.570312 C 131.796875 186.078125 132.058594 185.457031 132.796875 185.632812 Z M 132.488281 183.882812 C 132.566406 183.90625 132.585938 183.988281 132.671875 184.003906 C 132.5 184.476562 132.65625 184.492188 132.796875 184.886719 C 132.726562 184.933594 132.628906 184.964844 132.488281 184.941406 C 132.339844 184.589844 132.070312 184.136719 132.488281 183.882812 Z M 131.296875 183.257812 C 131.484375 183.257812 131.480469 183.699219 131.230469 183.628906 C 131.097656 183.503906 131.226562 183.355469 131.296875 183.257812 Z M 131.484375 180.816406 C 131.703125 181.289062 131.445312 182.171875 131.613281 182.820312 C 131.191406 182.636719 130.90625 181 131.484375 180.816406 Z M 130.792969 180.378906 C 130.832031 180.703125 130.683594 180.84375 130.359375 180.816406 C 130.179688 180.515625 130.535156 180.246094 130.792969 180.378906 Z M 130.421875 177.066406 C 130.449219 177.390625 129.859375 177.277344 129.921875 177.003906 C 130.167969 177.03125 130.300781 176.863281 130.421875 177.066406 Z M 130.175781 175.882812 C 130.132812 176.171875 129.964844 176.339844 129.675781 176.382812 C 129.589844 176.183594 129.828125 175.847656 130.175781 175.882812 Z M 128.171875 165.441406 C 128.269531 165.417969 128.277344 165.496094 128.363281 165.503906 C 128.375 165.804688 128.222656 166.003906 128.363281 166.25 C 128.046875 166.195312 127.976562 165.652344 128.171875 165.441406 Z M 205.757812 155.5625 C 205.664062 155.90625 205.714844 156.089844 205.820312 156.371094 C 205.765625 156.402344 205.707031 156.429688 205.691406 156.5 C 205.171875 156.554688 205.179688 155.222656 205.757812 155.5625 Z M 203.382812 153.558594 C 203.480469 153.785156 203.558594 154.066406 203.382812 154.25 C 202.773438 154.40625 202.691406 153.371094 203.382812 153.558594 Z M 202.878906 152.496094 C 203.105469 152.613281 203.015625 152.726562 203.007812 152.996094 C 202.640625 153.085938 202.730469 152.578125 202.878906 152.496094 Z M 202.445312 151.246094 C 202.230469 151.234375 202.117188 151.113281 202.132812 150.875 C 202.296875 150.71875 202.648438 151.035156 202.445312 151.246094 Z M 203.5625 151.0625 C 203.492188 151.050781 203.457031 151.078125 203.445312 151.121094 C 203.238281 151.113281 203.167969 150.980469 203.191406 150.746094 C 203.386719 150.65625 203.621094 150.738281 203.5625 151.0625 Z M 201.570312 149.808594 C 201.632812 149.808594 201.6875 149.808594 201.753906 149.808594 C 201.773438 149.972656 201.730469 150.078125 201.570312 150.0625 C 201.570312 149.976562 201.570312 149.894531 201.570312 149.808594 Z M 199.441406 149.371094 C 199.242188 149.441406 199.277344 149.398438 199.128906 149.308594 C 199.136719 149.125 199.503906 149.144531 199.441406 149.371094 Z M 165.617188 149.1875 C 165.492188 149.320312 165.34375 149.195312 165.246094 149.125 C 165.246094 148.933594 165.6875 148.941406 165.617188 149.1875 Z M 202.070312 148.808594 C 202.230469 148.808594 202.402344 148.808594 202.570312 148.808594 C 202.683594 148.933594 202.765625 149.316406 202.625 149.5 C 202.210938 149.503906 201.894531 149.203125 202.070312 148.808594 Z M 200.695312 148.125 C 200.632812 148.773438 200.371094 149.214844 199.628906 149.1875 C 199.75 148.632812 200.074219 147.976562 200.695312 148.125 Z M 198.566406 147.6875 C 198.601562 147.890625 198.523438 147.976562 198.503906 148.125 C 198.191406 148.164062 198.09375 147.988281 198.128906 147.6875 C 198.214844 147.59375 198.480469 147.59375 198.566406 147.6875 Z M 197.9375 146.8125 C 197.867188 146.796875 197.832031 146.824219 197.816406 146.867188 C 196.957031 146.578125 198.261719 145.910156 197.9375 146.8125 Z M 165.179688 144 C 165.207031 144.34375 164.628906 144.28125 164.496094 144.117188 C 164.425781 143.753906 165.082031 143.835938 165.179688 144 Z M 165.617188 142.125 C 165.609375 142.277344 165.527344 142.363281 165.371094 142.371094 C 165.34375 142.3125 165.316406 142.257812 165.246094 142.242188 C 165.25 142.089844 165.457031 142.125 165.617188 142.125 Z M 165.246094 142.125 C 164.554688 142.277344 164.292969 141.40625 164.679688 141.058594 C 165.117188 141.164062 164.976562 141.847656 165.246094 142.125 Z M 163.179688 139.183594 C 163.261719 139.203125 163.277344 139.289062 163.367188 139.308594 C 163.277344 139.542969 162.761719 139.636719 162.558594 139.558594 C 162.566406 139.234375 163.007812 139.34375 163.179688 139.183594 Z M 165.554688 138.492188 C 165.6875 138.546875 165.746094 138.675781 165.746094 138.867188 C 165.554688 138.871094 165.5625 138.683594 165.554688 138.492188 Z M 165.054688 138.621094 C 164.878906 138.683594 164.558594 138.832031 164.371094 138.683594 C 164.269531 138.21875 165.171875 138.039062 165.054688 138.621094 Z M 235.199219 137.746094 C 235.199219 137.894531 235.304688 137.929688 235.265625 138.117188 C 235.152344 138.289062 234.75 138.289062 234.636719 138.117188 C 234.53125 137.6875 234.917969 137.605469 235.199219 137.746094 Z M 236.203125 136.617188 C 236.179688 136.820312 235.882812 136.957031 235.699219 136.808594 C 235.625 136.382812 236.097656 136.363281 236.203125 136.617188 Z M 166.246094 136.308594 C 166.027344 136.820312 165.644531 137.492188 165.054688 137.433594 C 165.082031 136.960938 165.765625 136.320312 166.246094 136.308594 Z M 164.871094 136.117188 C 165.125 136.117188 164.921875 136.566406 165.054688 136.679688 C 164.984375 136.75 164.835938 136.75 164.679688 136.742188 C 164.523438 136.46875 164.742188 136.292969 164.871094 136.117188 Z M 236.203125 134.621094 C 236.242188 134.980469 235.425781 134.953125 235.390625 134.679688 C 235.371094 134.347656 236.152344 134.332031 236.203125 134.621094 Z M 235.574219 132.800781 C 235.609375 133.027344 235.523438 133.128906 235.390625 133.183594 C 234.855469 133.167969 235.171875 132.507812 235.574219 132.800781 Z M 165.433594 132.492188 C 165.433594 132.746094 165.203125 132.761719 164.933594 132.746094 C 164.855469 132.667969 164.863281 132.519531 164.871094 132.367188 C 165.027344 132.246094 165.414062 132.289062 165.433594 132.492188 Z M 236.136719 130.554688 C 236.136719 130.976562 236.625 130.898438 236.511719 131.425781 C 235.847656 132.183594 235.144531 130.59375 236.136719 130.554688 Z M 166.246094 130.554688 C 166.4375 130.777344 166.796875 130.835938 166.992188 131.054688 C 166.84375 131.722656 165.855469 131.152344 166.246094 130.554688 Z M 165.308594 129.433594 C 165.5625 129.503906 165.292969 129.679688 165.117188 129.679688 C 165.117188 129.617188 165.117188 129.550781 165.117188 129.488281 C 165.210938 129.496094 165.292969 129.503906 165.308594 129.433594 Z M 236.511719 128.933594 C 236.511719 129.074219 236.511719 129.222656 236.511719 129.367188 C 236.152344 129.65625 235.644531 129.367188 235.699219 128.867188 C 235.871094 128.535156 236.320312 128.761719 236.511719 128.933594 Z M 236.203125 127.992188 C 236.136719 127.992188 236.152344 128.070312 236.136719 128.113281 C 235.222656 128.535156 235.347656 127.015625 235.828125 127.054688 C 236.101562 127.078125 236.066406 127.710938 236.203125 127.992188 Z M 237.265625 126.800781 C 237.132812 126.859375 237.054688 126.964844 236.828125 126.929688 C 236.355469 126.457031 237.394531 125.992188 237.265625 126.800781 Z M 165.679688 126.183594 C 165.878906 126.195312 165.84375 126.761719 165.746094 126.867188 C 165.457031 126.800781 165.632812 126.402344 165.679688 126.183594 Z M 113.351562 124.242188 C 113.570312 124.292969 113.769531 124.371094 113.851562 124.554688 C 113.902344 124.722656 113.734375 124.679688 113.734375 124.800781 C 113.386719 124.8125 113.078125 124.476562 113.351562 124.242188 Z M 166.183594 123.242188 C 166.203125 123.609375 165.589844 123.511719 165.433594 123.371094 C 165.320312 122.9375 166.140625 122.960938 166.183594 123.242188 Z M 114.734375 123.242188 C 114.648438 123.261719 114.636719 123.347656 114.542969 123.371094 C 114.359375 123.382812 114.324219 123.25 114.234375 123.179688 C 114.203125 122.785156 114.839844 122.753906 114.734375 123.242188 Z M 237.386719 122.804688 C 237.289062 123.292969 237.648438 123.722656 237.011719 123.804688 C 236.894531 123.714844 236.792969 123.609375 236.703125 123.488281 C 236.78125 123.136719 237.074219 122.714844 237.386719 122.804688 Z M 166.117188 120.113281 C 166.152344 120.378906 165.90625 120.367188 165.746094 120.429688 C 165.78125 120.238281 165.886719 120.105469 166.117188 120.113281 Z M 238.578125 98.105469 C 238.886719 98.070312 239.035156 98.453125 238.886719 98.671875 C 238.578125 98.707031 238.4375 98.332031 238.578125 98.105469 Z M 239.824219 96.167969 C 239.964844 96.457031 240.136719 96.886719 239.761719 97.050781 C 239.105469 97.125 238.953125 95.957031 239.824219 96.167969 Z M 243.832031 93.542969 C 243.648438 93.671875 243.589844 93.75 243.328125 93.671875 C 242.757812 93.066406 244 92.605469 243.832031 93.542969 Z M 240.453125 93.109375 C 240.445312 93.453125 240.070312 93.347656 239.890625 93.234375 C 239.890625 93.171875 239.890625 93.109375 239.890625 93.042969 C 240.050781 92.902344 240.332031 93.015625 240.453125 93.109375 Z M 240.453125 93.109375 " fill-opacity="1" fill-rule="evenodd"/></g></svg>