<svg xmlns="http://www.w3.org/2000/svg" xmlns:xlink="http://www.w3.org/1999/xlink" width="500" zoomAndPan="magnify" viewBox="0 0 375 374.999991" height="500" preserveAspectRatio="xMidYMid meet" version="1.0"><defs><g/><clipPath id="11dcd3ead7"><path d="M 113.105469 91 L 251.105469 91 L 251.105469 223.636719 L 113.105469 223.636719 Z M 113.105469 91 " clip-rule="nonzero"/></clipPath></defs><g fill="#000000" fill-opacity="1"><g transform="translate(1.794294, 253.636725)"><g><path d="M 51.59375 -3.953125 C 51.53125 -3.878906 51.476562 -3.910156 51.4375 -4.046875 C 51.40625 -4.179688 51.425781 -4.28125 51.5 -4.34375 C 52.300781 -4.6875 52.769531 -5.296875 52.90625 -6.171875 C 53.039062 -7.046875 52.972656 -8.019531 52.703125 -9.09375 C 52.441406 -10.175781 52.125 -11.207031 51.75 -12.1875 C 51.375 -13.164062 51.085938 -13.890625 50.890625 -14.359375 C 49.398438 -18.472656 47.539062 -22.332031 45.3125 -25.9375 C 43.09375 -29.550781 40.5 -32.976562 37.53125 -36.21875 C 38.269531 -35.269531 39.226562 -33.867188 40.40625 -32.015625 C 41.59375 -30.160156 42.828125 -28.101562 44.109375 -25.84375 C 45.390625 -23.582031 46.601562 -21.289062 47.75 -18.96875 C 48.894531 -16.644531 49.851562 -14.488281 50.625 -12.5 C 51.40625 -10.507812 51.832031 -8.941406 51.90625 -7.796875 C 52.039062 -6.441406 51.664062 -5.207031 50.78125 -4.09375 C 49.90625 -2.976562 48.691406 -2.421875 47.140625 -2.421875 C 44.984375 -2.421875 43.46875 -3.367188 42.59375 -5.265625 C 42.125 -6.140625 41.890625 -7.082031 41.890625 -8.09375 C 39.992188 -11.875 37.765625 -15.484375 35.203125 -18.921875 C 32.640625 -22.359375 29.976562 -25.59375 27.21875 -28.625 C 26 -29.976562 24.765625 -31.3125 23.515625 -32.625 C 22.273438 -33.9375 20.910156 -35.132812 19.421875 -36.21875 L 17.8125 -35.609375 C 17.332031 -35.410156 16.890625 -35.222656 16.484375 -35.046875 C 16.085938 -34.878906 15.71875 -34.726562 15.375 -34.59375 C 15.914062 -28.9375 16.523438 -23.304688 17.203125 -17.703125 C 17.335938 -16.628906 17.519531 -15.535156 17.75 -14.421875 C 17.988281 -13.304688 18.207031 -12.175781 18.40625 -11.03125 C 18.675781 -10.082031 19 -9.050781 19.375 -7.9375 C 19.75 -6.820312 20.035156 -5.691406 20.234375 -4.546875 C 20.367188 -4.148438 20.382812 -3.726562 20.28125 -3.28125 C 20.1875 -2.84375 19.96875 -2.457031 19.625 -2.125 C 17.0625 0.03125 14.296875 0.570312 11.328125 -0.5 C 10.179688 -0.363281 9.066406 -0.613281 7.984375 -1.25 C 6.910156 -1.894531 6.101562 -2.757812 5.5625 -3.84375 C 4.957031 -5.257812 4.585938 -6.722656 4.453125 -8.234375 C 4.316406 -9.753906 4.179688 -11.257812 4.046875 -12.75 C 3.640625 -16.1875 3.25 -19.625 2.875 -23.0625 C 2.507812 -26.507812 2.191406 -29.953125 1.921875 -33.390625 C 1.648438 -36.828125 1.429688 -40.265625 1.265625 -43.703125 C 1.097656 -47.140625 0.945312 -50.613281 0.8125 -54.125 C 0.8125 -55.070312 0.789062 -56 0.75 -56.90625 C 0.71875 -57.820312 0.703125 -58.71875 0.703125 -59.59375 C 0.640625 -60.53125 0.722656 -61.488281 0.953125 -62.46875 C 1.191406 -63.445312 1.851562 -64.070312 2.9375 -64.34375 C 3 -64.550781 3.082031 -64.738281 3.1875 -64.90625 C 3.289062 -65.070312 3.375 -65.253906 3.4375 -65.453125 C 4.113281 -66.671875 5.039062 -67.429688 6.21875 -67.734375 C 7.40625 -68.035156 8.570312 -67.953125 9.71875 -67.484375 C 10.863281 -67.015625 11.738281 -66.253906 12.34375 -65.203125 C 12.945312 -64.160156 13.015625 -62.960938 12.546875 -61.609375 C 12.273438 -60.597656 12.125 -59.503906 12.09375 -58.328125 C 12.0625 -57.148438 12.007812 -55.984375 11.9375 -54.828125 L 11.640625 -45.734375 C 11.972656 -46.066406 12.238281 -46.269531 12.4375 -46.34375 C 12.644531 -48.5 12.882812 -50.65625 13.15625 -52.8125 C 13.425781 -54.96875 13.726562 -57.09375 14.0625 -59.1875 C 14.0625 -59.25 14.078125 -59.265625 14.109375 -59.234375 C 14.148438 -59.203125 14.171875 -59.1875 14.171875 -59.1875 L 14.171875 -58.484375 C 14.234375 -56.585938 14.296875 -54.726562 14.359375 -52.90625 C 14.429688 -51.09375 14.5 -49.238281 14.5625 -47.34375 C 18.75 -49.164062 23.1875 -51.222656 27.875 -53.515625 C 32.5625 -55.804688 36.859375 -58.101562 40.765625 -60.40625 C 41.578125 -60.875 42.503906 -61.425781 43.546875 -62.0625 C 44.597656 -62.707031 45.628906 -62.863281 46.640625 -62.53125 C 47.453125 -62.320312 48.054688 -61.878906 48.453125 -61.203125 C 48.859375 -60.535156 49.0625 -59.796875 49.0625 -58.984375 L 49.375 -59.28125 C 49.914062 -59.6875 50.4375 -59.6875 50.9375 -59.28125 C 51.445312 -58.882812 51.53125 -58.378906 51.1875 -57.765625 C 49.4375 -54.460938 47.023438 -51.695312 43.953125 -49.46875 C 40.890625 -47.25 37.738281 -45.226562 34.5 -43.40625 L 31.875 -41.984375 C 32.144531 -41.785156 32.378906 -41.582031 32.578125 -41.375 C 32.773438 -41.175781 33.007812 -40.972656 33.28125 -40.765625 C 33.21875 -41.109375 33.390625 -41.414062 33.796875 -41.6875 C 34.203125 -41.957031 34.535156 -41.921875 34.796875 -41.578125 C 37.898438 -38.679688 40.664062 -35.53125 43.09375 -32.125 C 45.519531 -28.71875 47.578125 -25.09375 49.265625 -21.25 C 50.148438 -19.351562 50.925781 -17.441406 51.59375 -15.515625 C 52.269531 -13.597656 52.84375 -11.664062 53.3125 -9.71875 C 53.519531 -8.695312 53.585938 -7.5625 53.515625 -6.3125 C 53.453125 -5.070312 52.8125 -4.285156 51.59375 -3.953125 Z M 51.59375 -3.953125 "/></g></g></g><g fill="#000000" fill-opacity="1"><g transform="translate(47.927352, 253.636725)"><g><path d="M 57.671875 -38.546875 L 57.359375 -36.421875 C 57.296875 -35.472656 56.859375 -34.644531 56.046875 -33.9375 C 55.234375 -33.226562 54.425781 -32.910156 53.625 -32.984375 C 51.257812 -33.117188 48.878906 -33.285156 46.484375 -33.484375 C 44.085938 -33.691406 41.710938 -33.894531 39.359375 -34.09375 C 42.117188 -29.976562 44.546875 -25.796875 46.640625 -21.546875 C 47.984375 -18.648438 49.328125 -15.632812 50.671875 -12.5 C 52.023438 -9.363281 52.503906 -6.140625 52.109375 -2.828125 C 51.972656 -1.753906 51.429688 -1.0625 50.484375 -0.75 C 49.535156 -0.445312 48.625 -0.46875 47.75 -0.8125 C 47.28125 -0.738281 46.828125 -0.71875 46.390625 -0.75 C 45.953125 -0.789062 45.492188 -0.910156 45.015625 -1.109375 C 44.878906 -1.109375 44.8125 -1.144531 44.8125 -1.21875 C 44.414062 -0.8125 43.976562 -0.707031 43.5 -0.90625 C 42.625 -3.269531 41.679688 -5.648438 40.671875 -8.046875 C 39.660156 -10.441406 38.648438 -12.785156 37.640625 -15.078125 C 37.296875 -15.953125 36.785156 -17.179688 36.109375 -18.765625 C 35.441406 -20.347656 34.734375 -22 33.984375 -23.71875 C 33.242188 -25.445312 32.539062 -26.914062 31.875 -28.125 C 31.332031 -29.34375 30.789062 -30.390625 30.25 -31.265625 L 30.25 -31.359375 C 29.644531 -32.234375 29.070312 -33.179688 28.53125 -34.203125 C 27.25 -34.265625 25.929688 -34.328125 24.578125 -34.390625 C 23.234375 -34.460938 21.882812 -34.53125 20.53125 -34.59375 C 20.800781 -32.300781 21.035156 -30.007812 21.234375 -27.71875 C 21.441406 -25.425781 21.582031 -23.097656 21.65625 -20.734375 C 21.789062 -18.242188 21.941406 -15.734375 22.109375 -13.203125 C 22.273438 -10.671875 22.289062 -8.160156 22.15625 -5.671875 C 22.226562 -5.398438 22.265625 -5.109375 22.265625 -4.796875 C 22.265625 -4.492188 22.265625 -4.210938 22.265625 -3.953125 C 21.585938 -2.671875 20.8125 -1.65625 19.9375 -0.90625 C 19.257812 -0.363281 18.476562 -0.09375 17.59375 -0.09375 C 16.71875 -0.09375 15.976562 -0.429688 15.375 -1.109375 C 15.039062 -1.648438 14.835938 -2.191406 14.765625 -2.734375 C 14.367188 -2.660156 13.96875 -2.773438 13.5625 -3.078125 C 13.15625 -3.390625 12.953125 -3.8125 12.953125 -4.34375 C 12.679688 -5.425781 12.5625 -6.554688 12.59375 -7.734375 C 12.625 -8.921875 12.570312 -10.050781 12.4375 -11.125 L 11.53125 -17.8125 C 11.125 -20.164062 10.71875 -22.539062 10.3125 -24.9375 C 9.914062 -27.332031 9.515625 -29.710938 9.109375 -32.078125 L 8.5 -35.609375 C 8.425781 -35.609375 8.335938 -35.609375 8.234375 -35.609375 C 8.140625 -35.609375 8.023438 -35.609375 7.890625 -35.609375 C 7.890625 -36.015625 7.6875 -36.253906 7.28125 -36.328125 C 6.738281 -36.453125 6.179688 -36.613281 5.609375 -36.8125 C 5.035156 -37.019531 4.484375 -37.226562 3.953125 -37.4375 L 6.265625 -37.734375 C 5.253906 -38.140625 4.242188 -38.679688 3.234375 -39.359375 C 2.296875 -39.960938 1.773438 -40.820312 1.671875 -41.9375 C 1.566406 -43.050781 1.785156 -44.046875 2.328125 -44.921875 C 2.867188 -45.796875 3.644531 -46.234375 4.65625 -46.234375 C 4.988281 -46.304688 5.304688 -46.34375 5.609375 -46.34375 C 5.921875 -46.34375 6.207031 -46.34375 6.46875 -46.34375 C 6.132812 -48.09375 5.78125 -49.84375 5.40625 -51.59375 C 5.039062 -53.351562 4.65625 -55.070312 4.25 -56.75 C 5.125 -57.425781 5.832031 -58.171875 6.375 -58.984375 C 5.425781 -59.796875 4.734375 -60.84375 4.296875 -62.125 C 3.859375 -63.40625 3.910156 -64.617188 4.453125 -65.765625 C 5.128906 -67.046875 6.140625 -67.820312 7.484375 -68.09375 C 8.835938 -68.363281 10.289062 -68.394531 11.84375 -68.1875 C 13.394531 -67.988281 14.707031 -67.785156 15.78125 -67.578125 C 16.113281 -67.578125 16.414062 -67.441406 16.6875 -67.171875 C 17.03125 -67.035156 17.382812 -66.898438 17.75 -66.765625 C 18.125 -66.640625 18.476562 -66.507812 18.8125 -66.375 C 18.882812 -66.375 18.9375 -66.351562 18.96875 -66.3125 C 19 -66.28125 19.050781 -66.265625 19.125 -66.265625 C 24.71875 -64.515625 30.0625 -62.070312 35.15625 -58.9375 C 40.25 -55.800781 45.257812 -52.546875 50.1875 -49.171875 C 50.851562 -48.628906 51.320312 -47.882812 51.59375 -46.9375 C 52.332031 -46.46875 53.039062 -45.960938 53.71875 -45.421875 C 54.394531 -44.878906 55.070312 -44.34375 55.75 -43.8125 C 57.363281 -42.59375 58.003906 -40.835938 57.671875 -38.546875 Z M 16.59375 -54.03125 C 16.65625 -53.957031 16.6875 -53.851562 16.6875 -53.71875 C 16.6875 -53.582031 16.722656 -53.445312 16.796875 -53.3125 C 17.066406 -53.582031 17.382812 -53.703125 17.75 -53.671875 C 18.125 -53.640625 18.34375 -53.382812 18.40625 -52.90625 C 18.675781 -51.832031 18.929688 -50.769531 19.171875 -49.71875 C 19.410156 -48.675781 19.628906 -47.617188 19.828125 -46.546875 C 20.097656 -46.472656 20.367188 -46.4375 20.640625 -46.4375 C 20.910156 -46.4375 21.179688 -46.40625 21.453125 -46.34375 C 21.585938 -46.945312 21.890625 -47.453125 22.359375 -47.859375 C 23.367188 -48.523438 24.394531 -48.722656 25.4375 -48.453125 C 26.488281 -48.191406 27.503906 -47.738281 28.484375 -47.09375 C 29.460938 -46.457031 30.320312 -45.800781 31.0625 -45.125 L 40.875 -43.90625 C 36.957031 -46.601562 32.972656 -48.976562 28.921875 -51.03125 C 24.878906 -53.09375 20.664062 -54.628906 16.28125 -55.640625 Z M 23.78125 -8.5 C 23.570312 -12.675781 23.347656 -16.875 23.109375 -21.09375 C 22.878906 -25.3125 22.460938 -29.476562 21.859375 -33.59375 L 22.65625 -33.59375 C 23.195312 -30.6875 23.601562 -27.71875 23.875 -24.6875 C 24.144531 -21.65625 24.414062 -18.617188 24.6875 -15.578125 C 24.820312 -13.753906 24.753906 -12.421875 24.484375 -11.578125 C 24.210938 -10.734375 23.976562 -9.707031 23.78125 -8.5 Z M 23.78125 -8.5 "/></g></g></g><g fill="#000000" fill-opacity="1"><g transform="translate(103.165716, 253.636725)"><g><path d="M 2.328125 -53.421875 C 5.703125 -55.171875 9.207031 -56.648438 12.84375 -57.859375 C 16.488281 -59.078125 20.132812 -60.160156 23.78125 -61.109375 L 26.109375 -61.71875 C 28.191406 -62.125 30.28125 -62.507812 32.375 -62.875 C 34.46875 -63.25 36.59375 -63.503906 38.75 -63.640625 C 39.21875 -63.703125 39.671875 -63.734375 40.109375 -63.734375 C 40.546875 -63.734375 41.003906 -63.734375 41.484375 -63.734375 C 39.523438 -63.265625 37.53125 -62.773438 35.5 -62.265625 C 33.476562 -61.765625 31.492188 -61.273438 29.546875 -60.796875 C 26.097656 -60.054688 22.671875 -59.265625 19.265625 -58.421875 C 15.867188 -57.578125 12.484375 -56.582031 9.109375 -55.4375 C 7.960938 -55.101562 6.832031 -54.71875 5.71875 -54.28125 C 4.601562 -53.84375 3.472656 -53.351562 2.328125 -52.8125 C 2.054688 -52.945312 2.054688 -53.148438 2.328125 -53.421875 Z M 59.078125 -12.234375 C 58.941406 -11.628906 58.609375 -11.296875 58.078125 -11.234375 C 54.367188 -10.554688 50.640625 -9.726562 46.890625 -8.75 C 43.148438 -7.769531 39.492188 -6.640625 35.921875 -5.359375 C 34.234375 -4.753906 32.53125 -4.144531 30.8125 -3.53125 C 29.09375 -2.925781 27.390625 -2.253906 25.703125 -1.515625 L 25.59375 -1.515625 C 25.53125 -1.453125 25.429688 -1.398438 25.296875 -1.359375 C 25.160156 -1.328125 25.023438 -1.28125 24.890625 -1.21875 C 24.347656 -0.945312 23.789062 -0.707031 23.21875 -0.5 C 22.644531 -0.300781 22.085938 -0.0664062 21.546875 0.203125 L 21.453125 0.296875 C 21.046875 0.566406 20.285156 0.90625 19.171875 1.3125 C 18.054688 1.71875 17.007812 2.054688 16.03125 2.328125 C 15.050781 2.597656 14.5625 2.734375 14.5625 2.734375 C 14.5625 2.734375 14.441406 2.75 14.203125 2.78125 C 13.972656 2.8125 13.757812 2.828125 13.5625 2.828125 C 12.75 2.960938 11.9375 2.960938 11.125 2.828125 C 10.320312 2.691406 9.71875 2.1875 9.3125 1.3125 C 9.101562 0.90625 9.066406 0.4375 9.203125 -0.09375 C 7.921875 -0.632812 6.925781 -1.5625 6.21875 -2.875 C 5.507812 -4.195312 5.394531 -5.5 5.875 -6.78125 C 5.601562 -8.53125 5.378906 -10.296875 5.203125 -12.078125 C 5.035156 -13.867188 4.882812 -15.644531 4.75 -17.40625 L 3.546875 -29.546875 L 2.328125 -41.078125 C 1.046875 -42.492188 0.503906 -44.144531 0.703125 -46.03125 C 0.910156 -47.914062 1.753906 -49.5 3.234375 -50.78125 C 3.304688 -50.914062 3.375 -51.050781 3.4375 -51.1875 C 3.507812 -51.320312 3.578125 -51.457031 3.640625 -51.59375 C 4.722656 -52.070312 5.800781 -52.507812 6.875 -52.90625 C 7.957031 -53.3125 9.039062 -53.6875 10.125 -54.03125 C 13.488281 -55.175781 16.875 -56.171875 20.28125 -57.015625 C 23.6875 -57.859375 27.109375 -58.613281 30.546875 -59.28125 C 33.242188 -59.894531 35.910156 -60.554688 38.546875 -61.265625 C 41.179688 -61.972656 43.8125 -62.660156 46.4375 -63.328125 C 46.769531 -63.265625 47.125 -63.210938 47.5 -63.171875 C 47.875 -63.140625 48.195312 -63.054688 48.46875 -62.921875 L 50.078125 -62.328125 C 50.347656 -62.117188 50.617188 -61.894531 50.890625 -61.65625 C 51.160156 -61.425781 51.429688 -61.207031 51.703125 -61 C 52.035156 -59.925781 52.269531 -58.863281 52.40625 -57.8125 C 52.539062 -56.769531 52.507812 -55.742188 52.3125 -54.734375 L 47.25 -53.21875 C 46.164062 -52.875 45.035156 -52.535156 43.859375 -52.203125 C 42.679688 -51.867188 41.519531 -51.53125 40.375 -51.1875 C 40.101562 -51.050781 39.898438 -50.984375 39.765625 -50.984375 C 38.484375 -50.648438 36.976562 -50.226562 35.25 -49.71875 C 33.53125 -49.21875 31.8125 -48.710938 30.09375 -48.203125 C 28.375 -47.703125 26.90625 -47.25 25.6875 -46.84375 C 24.476562 -46.4375 23.738281 -46.164062 23.46875 -46.03125 C 21.851562 -45.488281 20.234375 -44.914062 18.609375 -44.3125 C 16.992188 -43.707031 15.410156 -43.066406 13.859375 -42.390625 L 13.65625 -42.1875 C 13.726562 -41.851562 13.8125 -41.296875 13.90625 -40.515625 C 14.007812 -39.742188 14.109375 -39.019531 14.203125 -38.34375 C 14.304688 -37.664062 14.359375 -37.226562 14.359375 -37.03125 C 17.191406 -38.238281 20.007812 -39.429688 22.8125 -40.609375 C 25.613281 -41.796875 28.460938 -42.929688 31.359375 -44.015625 C 32.984375 -44.410156 34.617188 -44.828125 36.265625 -45.265625 C 37.921875 -45.710938 39.554688 -46.171875 41.171875 -46.640625 L 42.5 -46.9375 C 43.101562 -47.070312 43.691406 -47.15625 44.265625 -47.1875 C 44.835938 -47.226562 45.425781 -47.28125 46.03125 -47.34375 C 47.3125 -47.414062 48.523438 -47.332031 49.671875 -47.09375 C 50.816406 -46.851562 51.726562 -46.128906 52.40625 -44.921875 C 52.539062 -44.785156 52.625 -44.648438 52.65625 -44.515625 C 52.6875 -44.378906 52.738281 -44.242188 52.8125 -44.109375 C 52.945312 -43.910156 53.046875 -43.707031 53.109375 -43.5 C 53.179688 -43.300781 53.25 -43.097656 53.3125 -42.890625 C 53.382812 -42.828125 53.453125 -42.796875 53.515625 -42.796875 C 54.460938 -42.328125 55.035156 -41.484375 55.234375 -40.265625 C 55.441406 -39.316406 55.289062 -38.351562 54.78125 -37.375 C 54.28125 -36.40625 53.554688 -35.679688 52.609375 -35.203125 C 51.523438 -34.734375 50.425781 -34.445312 49.3125 -34.34375 C 48.207031 -34.25 47.082031 -34.066406 45.9375 -33.796875 C 44.71875 -33.585938 43.484375 -33.363281 42.234375 -33.125 C 40.992188 -32.894531 39.765625 -32.613281 38.546875 -32.28125 C 36.117188 -31.601562 33.707031 -30.875 31.3125 -30.09375 C 28.914062 -29.320312 26.539062 -28.429688 24.1875 -27.421875 C 22.695312 -26.804688 21.257812 -26.160156 19.875 -25.484375 C 18.5 -24.816406 17.101562 -24.113281 15.6875 -23.375 L 16.28125 -16.796875 C 16.28125 -16.722656 16.28125 -16.671875 16.28125 -16.640625 C 16.28125 -16.609375 16.28125 -16.523438 16.28125 -16.390625 L 16.59375 -16.59375 C 17.738281 -17.132812 18.867188 -17.625 19.984375 -18.0625 C 21.097656 -18.5 22.191406 -18.953125 23.265625 -19.421875 L 31.875 -22.765625 C 32.613281 -23.097656 33.367188 -23.398438 34.140625 -23.671875 C 34.921875 -23.941406 35.679688 -24.210938 36.421875 -24.484375 C 37.640625 -24.953125 38.851562 -25.40625 40.0625 -25.84375 C 41.28125 -26.28125 42.492188 -26.703125 43.703125 -27.109375 L 47.65625 -28.328125 C 48.195312 -28.460938 48.734375 -28.644531 49.265625 -28.875 C 49.804688 -29.113281 50.347656 -29.300781 50.890625 -29.4375 C 52.847656 -29.84375 54.445312 -29.675781 55.6875 -28.9375 C 56.9375 -28.195312 57.929688 -27.117188 58.671875 -25.703125 C 59.421875 -24.285156 59.976562 -22.734375 60.34375 -21.046875 C 60.71875 -19.359375 60.9375 -17.804688 61 -16.390625 C 61.070312 -15.515625 60.921875 -14.722656 60.546875 -14.015625 C 60.179688 -13.304688 59.691406 -12.710938 59.078125 -12.234375 Z M 34.59375 -33.6875 C 33.050781 -33.21875 31.484375 -32.742188 29.890625 -32.265625 C 28.304688 -31.796875 26.738281 -31.289062 25.1875 -30.75 C 24.175781 -30.488281 23.179688 -30.203125 22.203125 -29.890625 C 21.222656 -29.585938 20.265625 -29.300781 19.328125 -29.03125 C 19.117188 -27.882812 18.578125 -26.941406 17.703125 -26.203125 C 20.203125 -27.484375 22.75 -28.628906 25.34375 -29.640625 C 27.9375 -30.648438 30.484375 -31.660156 32.984375 -32.671875 C 33.523438 -32.941406 34.097656 -33.179688 34.703125 -33.390625 Z M 12.234375 1.3125 C 12.984375 1.382812 13.828125 1.398438 14.765625 1.359375 C 15.710938 1.328125 16.253906 1.28125 16.390625 1.21875 C 16.523438 1.21875 16.625 1.179688 16.6875 1.109375 C 17.09375 0.910156 17.5 0.707031 17.90625 0.5 C 18.3125 0.300781 18.679688 0.101562 19.015625 -0.09375 C 19.828125 -0.5 20.617188 -0.90625 21.390625 -1.3125 C 22.171875 -1.71875 22.929688 -2.125 23.671875 -2.53125 L 23.671875 -2.734375 C 22.796875 -2.390625 21.882812 -2.050781 20.9375 -1.71875 C 20 -1.382812 19.054688 -1.046875 18.109375 -0.703125 C 17.160156 -0.367188 16.195312 -0.0195312 15.21875 0.34375 C 14.25 0.71875 13.253906 1.039062 12.234375 1.3125 Z M 12.234375 1.3125 "/></g></g></g><g fill="#000000" fill-opacity="1"><g transform="translate(159.415801, 253.636725)"><g><path d="M 53.21875 -7.59375 C 53.082031 -7.519531 52.945312 -7.414062 52.8125 -7.28125 C 51.726562 -5.53125 50.191406 -4.265625 48.203125 -3.484375 C 46.210938 -2.710938 44.242188 -2.054688 42.296875 -1.515625 C 40.066406 -0.972656 37.804688 -0.515625 35.515625 -0.140625 C 33.222656 0.222656 30.894531 0.472656 28.53125 0.609375 C 26.4375 0.671875 24.242188 0.6875 21.953125 0.65625 C 19.660156 0.625 17.503906 0.269531 15.484375 -0.40625 C 13.796875 -0.945312 12.054688 -1.769531 10.265625 -2.875 C 8.484375 -3.988281 7.390625 -5.492188 6.984375 -7.390625 C 6.773438 -8.535156 6.703125 -9.695312 6.765625 -10.875 C 6.835938 -12.050781 7.210938 -13.148438 7.890625 -14.171875 C 8.492188 -15.179688 9.164062 -16.15625 9.90625 -17.09375 C 10.65625 -18.039062 11.367188 -18.988281 12.046875 -19.9375 C 13.460938 -21.75 14.875 -23.582031 16.28125 -25.4375 C 17.695312 -27.300781 19.113281 -29.175781 20.53125 -31.0625 C 20.875 -31.46875 21.195312 -31.890625 21.5 -32.328125 C 21.800781 -32.765625 22.117188 -33.1875 22.453125 -33.59375 L 8.796875 -48.265625 C 8.128906 -49.066406 7.828125 -49.921875 7.890625 -50.828125 C 7.960938 -51.742188 8.300781 -52.503906 8.90625 -53.109375 C 8.96875 -53.109375 8.863281 -53.546875 8.59375 -54.421875 C 8.320312 -55.304688 8.1875 -55.78125 8.1875 -55.84375 C 8.0625 -57.46875 8.570312 -58.765625 9.71875 -59.734375 C 10.863281 -60.710938 12.144531 -61.375 13.5625 -61.71875 C 14.363281 -61.914062 15.171875 -62.066406 15.984375 -62.171875 C 16.796875 -62.273438 17.570312 -62.359375 18.3125 -62.421875 C 20.46875 -62.828125 22.640625 -63.046875 24.828125 -63.078125 C 27.023438 -63.109375 29.171875 -62.925781 31.265625 -62.53125 C 33.148438 -62.1875 35.140625 -61.660156 37.234375 -60.953125 C 39.328125 -60.242188 41.265625 -59.300781 43.046875 -58.125 C 44.835938 -56.945312 46.203125 -55.410156 47.140625 -53.515625 C 48.898438 -50.148438 49.140625 -46.675781 47.859375 -43.09375 C 47.585938 -42.425781 47.0625 -41.566406 46.28125 -40.515625 C 45.507812 -39.472656 44.648438 -38.425781 43.703125 -37.375 C 42.765625 -36.332031 41.921875 -35.40625 41.171875 -34.59375 C 40.429688 -33.789062 39.960938 -33.285156 39.765625 -33.078125 C 39.765625 -33.015625 39.894531 -32.847656 40.15625 -32.578125 C 40.425781 -32.304688 40.597656 -32.171875 40.671875 -32.171875 C 41.347656 -32.910156 42.003906 -33.664062 42.640625 -34.4375 C 43.285156 -35.21875 43.941406 -36.015625 44.609375 -36.828125 C 46.097656 -38.578125 47.5 -40.53125 48.8125 -42.6875 C 50.125 -44.851562 50.546875 -47.179688 50.078125 -49.671875 C 50.078125 -49.742188 50.109375 -49.78125 50.171875 -49.78125 C 50.242188 -49.78125 50.28125 -49.78125 50.28125 -49.78125 C 50.882812 -47.6875 50.816406 -45.660156 50.078125 -43.703125 C 49.335938 -41.742188 48.394531 -39.925781 47.25 -38.25 C 46.375 -37.03125 45.476562 -35.8125 44.5625 -34.59375 C 43.65625 -33.382812 42.726562 -32.207031 41.78125 -31.0625 C 42.863281 -30.050781 43.925781 -29.019531 44.96875 -27.96875 C 46.019531 -26.925781 47.050781 -25.832031 48.0625 -24.6875 C 49.207031 -23.40625 50.351562 -22.101562 51.5 -20.78125 C 52.644531 -19.46875 53.585938 -18.035156 54.328125 -16.484375 C 55.066406 -15.066406 55.382812 -13.515625 55.28125 -11.828125 C 55.1875 -10.148438 54.5 -8.738281 53.21875 -7.59375 Z M 23.0625 -57.765625 C 23.195312 -57.765625 23.316406 -57.78125 23.421875 -57.8125 C 23.523438 -57.851562 23.609375 -57.875 23.671875 -57.875 C 23.609375 -57.875 23.578125 -57.890625 23.578125 -57.921875 C 23.578125 -57.953125 23.578125 -57.96875 23.578125 -57.96875 C 22.492188 -58.175781 21.515625 -58.160156 20.640625 -57.921875 C 19.765625 -57.679688 18.957031 -57.328125 18.21875 -56.859375 C 17.738281 -56.453125 17.429688 -55.910156 17.296875 -55.234375 L 17.296875 -55.03125 C 17.972656 -55.914062 18.847656 -56.539062 19.921875 -56.90625 C 21.003906 -57.28125 22.050781 -57.566406 23.0625 -57.765625 Z M 33.484375 -56.859375 C 33.421875 -56.859375 33.390625 -56.835938 33.390625 -56.796875 C 33.390625 -56.765625 33.351562 -56.75 33.28125 -56.75 C 33.820312 -56.550781 34.394531 -56.210938 35 -55.734375 C 35.613281 -55.265625 36.628906 -54.726562 38.046875 -54.125 C 37.972656 -54.195312 37.597656 -54.617188 36.921875 -55.390625 C 36.253906 -56.171875 35.109375 -56.660156 33.484375 -56.859375 Z M 26.703125 -56.5625 C 25.421875 -56.6875 24.070312 -56.664062 22.65625 -56.5 C 21.238281 -56.332031 19.957031 -55.910156 18.8125 -55.234375 C 18.144531 -54.835938 17.707031 -54.398438 17.5 -53.921875 C 17.90625 -52.578125 18.75 -51.332031 20.03125 -50.1875 C 21.3125 -49.039062 22.457031 -47.992188 23.46875 -47.046875 C 24.613281 -45.960938 25.789062 -44.914062 27 -43.90625 C 28.21875 -42.894531 29.4375 -41.882812 30.65625 -40.875 C 32.207031 -42.289062 33.625 -43.804688 34.90625 -45.421875 C 35.445312 -46.035156 35.984375 -46.660156 36.515625 -47.296875 C 37.054688 -47.941406 37.566406 -48.597656 38.046875 -49.265625 L 39.15625 -50.6875 C 39.15625 -50.820312 39.171875 -50.921875 39.203125 -50.984375 C 39.234375 -51.054688 39.25 -51.125 39.25 -51.1875 C 39.1875 -51.320312 39.15625 -51.457031 39.15625 -51.59375 C 39.15625 -51.726562 39.117188 -51.832031 39.046875 -51.90625 C 37.160156 -53.050781 35.1875 -54.078125 33.125 -54.984375 C 31.070312 -55.898438 28.929688 -56.425781 26.703125 -56.5625 Z M 38.84375 -20.03125 C 37.832031 -20.769531 36.820312 -21.523438 35.8125 -22.296875 C 34.800781 -23.078125 33.789062 -23.875 32.78125 -24.6875 L 32.671875 -24.6875 C 32.273438 -24.28125 31.875 -23.875 31.46875 -23.46875 C 31.0625 -23.0625 30.65625 -22.691406 30.25 -22.359375 C 29.375 -21.484375 28.5 -20.554688 27.625 -19.578125 C 26.75 -18.597656 25.867188 -17.632812 24.984375 -16.6875 C 24.316406 -15.8125 23.609375 -14.765625 22.859375 -13.546875 C 22.117188 -12.335938 22.1875 -11.160156 23.0625 -10.015625 C 23.40625 -9.546875 23.8125 -9.109375 24.28125 -8.703125 C 24.75 -8.296875 25.222656 -7.890625 25.703125 -7.484375 C 27.046875 -6.804688 28.492188 -6.25 30.046875 -5.8125 C 31.597656 -5.375 33.148438 -5.125 34.703125 -5.0625 C 36.453125 -4.988281 38.203125 -5.304688 39.953125 -6.015625 C 41.710938 -6.722656 42.894531 -7.957031 43.5 -9.71875 C 43.976562 -11.269531 43.828125 -12.800781 43.046875 -14.3125 C 42.273438 -15.832031 41.414062 -17.132812 40.46875 -18.21875 C 40.195312 -18.550781 39.941406 -18.867188 39.703125 -19.171875 C 39.472656 -19.472656 39.1875 -19.757812 38.84375 -20.03125 Z M 38.84375 -20.03125 "/></g></g></g><g fill="#000000" fill-opacity="1"><g transform="translate(212.63078, 253.636725)"><g><path d="M 57.765625 -59.59375 C 57.628906 -59.1875 57.492188 -58.847656 57.359375 -58.578125 C 57.296875 -57.703125 57.128906 -56.828125 56.859375 -55.953125 C 56.585938 -55.078125 56.046875 -54.367188 55.234375 -53.828125 C 54.898438 -53.554688 54.394531 -53.351562 53.71875 -53.21875 C 53.445312 -52.945312 53.210938 -52.8125 53.015625 -52.8125 C 50.453125 -52.34375 47.890625 -51.867188 45.328125 -51.390625 C 42.765625 -50.921875 40.203125 -50.519531 37.640625 -50.1875 C 37.640625 -47.957031 37.617188 -45.726562 37.578125 -43.5 C 37.546875 -41.28125 37.53125 -39.054688 37.53125 -36.828125 C 37.53125 -33.722656 37.546875 -30.632812 37.578125 -27.5625 C 37.617188 -24.5 37.640625 -21.414062 37.640625 -18.3125 C 37.703125 -16.5625 37.765625 -14.789062 37.828125 -13 C 37.898438 -11.207031 37.972656 -9.4375 38.046875 -7.6875 C 37.972656 -6.476562 37.785156 -5.316406 37.484375 -4.203125 C 37.179688 -3.085938 36.554688 -2.160156 35.609375 -1.421875 L 35.609375 -1.625 C 35.679688 -2.363281 35.71875 -3.085938 35.71875 -3.796875 C 35.71875 -4.503906 35.75 -5.195312 35.8125 -5.875 L 35.8125 -9.71875 C 35.613281 -8.832031 35.445312 -7.75 35.3125 -6.46875 C 35.175781 -5.1875 34.9375 -4.039062 34.59375 -3.03125 C 34.257812 -1.957031 33.550781 -1.148438 32.46875 -0.609375 C 31.394531 -0.0664062 30.316406 0.0664062 29.234375 -0.203125 C 27.148438 -0.878906 25.769531 -2.210938 25.09375 -4.203125 C 24.414062 -6.191406 24.007812 -8.164062 23.875 -10.125 C 23.738281 -12.6875 23.6875 -15.28125 23.71875 -17.90625 C 23.757812 -20.539062 23.8125 -23.140625 23.875 -25.703125 C 24.007812 -28.265625 24.160156 -30.859375 24.328125 -33.484375 C 24.492188 -36.117188 24.613281 -38.75 24.6875 -41.375 L 24.890625 -45.828125 L 24.890625 -49.0625 C 24.210938 -49.0625 23.550781 -49.0625 22.90625 -49.0625 C 22.269531 -49.0625 21.613281 -49.0625 20.9375 -49.0625 C 18.175781 -49.0625 15.476562 -49.164062 12.84375 -49.375 C 11.769531 -49.507812 10.707031 -49.691406 9.65625 -49.921875 C 8.613281 -50.160156 7.617188 -50.550781 6.671875 -51.09375 C 6.003906 -51.5625 5.382812 -52.132812 4.8125 -52.8125 C 4.238281 -53.488281 3.78125 -54.226562 3.4375 -55.03125 C 2.425781 -55.570312 1.664062 -56.398438 1.15625 -57.515625 C 0.65625 -58.628906 0.539062 -59.789062 0.8125 -61 C 1.144531 -62.019531 1.765625 -62.929688 2.671875 -63.734375 C 3.585938 -64.546875 4.585938 -64.882812 5.671875 -64.75 C 8.429688 -64.476562 11.191406 -64.257812 13.953125 -64.09375 C 16.722656 -63.925781 19.492188 -63.84375 22.265625 -63.84375 C 22.265625 -63.90625 22.28125 -63.953125 22.3125 -63.984375 C 22.34375 -64.023438 22.359375 -64.078125 22.359375 -64.140625 C 16.898438 -64.484375 11.4375 -65.09375 5.96875 -65.96875 C 5.832031 -65.96875 5.78125 -66.066406 5.8125 -66.265625 C 5.851562 -66.472656 5.941406 -66.539062 6.078125 -66.46875 C 13.148438 -66.0625 20.226562 -65.925781 27.3125 -66.0625 C 34.394531 -66.195312 41.445312 -66.566406 48.46875 -67.171875 C 49 -67.304688 49.535156 -67.390625 50.078125 -67.421875 C 50.617188 -67.460938 51.125 -67.515625 51.59375 -67.578125 C 51.863281 -67.578125 52.148438 -67.59375 52.453125 -67.625 C 52.753906 -67.664062 53.039062 -67.648438 53.3125 -67.578125 C 54.0625 -67.710938 54.820312 -67.8125 55.59375 -67.875 C 56.363281 -67.945312 57.125 -68.019531 57.875 -68.09375 C 58.34375 -68.15625 58.625 -67.898438 58.71875 -67.328125 C 58.820312 -66.753906 58.609375 -66.398438 58.078125 -66.265625 C 57.734375 -66.265625 57.492188 -66.234375 57.359375 -66.171875 C 57.628906 -66.035156 57.832031 -65.898438 57.96875 -65.765625 C 59.113281 -65.085938 59.671875 -64.023438 59.640625 -62.578125 C 59.609375 -61.128906 58.984375 -60.132812 57.765625 -59.59375 Z M 12.84375 -51.796875 C 14.601562 -51.660156 16.394531 -51.660156 18.21875 -51.796875 C 16.1875 -52.003906 14.160156 -52.289062 12.140625 -52.65625 C 10.117188 -53.03125 8.128906 -53.519531 6.171875 -54.125 C 6.984375 -53.382812 7.992188 -52.828125 9.203125 -52.453125 C 10.421875 -52.085938 11.632812 -51.867188 12.84375 -51.796875 Z M 12.84375 -51.796875 "/></g></g></g><g fill="#000000" fill-opacity="1"><g transform="translate(266.857439, 253.636725)"><g><path d="M 1.421875 -58.375 C 1.210938 -59.050781 1.273438 -59.722656 1.609375 -60.390625 C 1.953125 -61.066406 2.289062 -61.644531 2.625 -62.125 C 3.300781 -63.132812 4.144531 -63.976562 5.15625 -64.65625 C 5.425781 -64.914062 5.628906 -65.082031 5.765625 -65.15625 C 7.117188 -66.101562 8.550781 -66.8125 10.0625 -67.28125 C 11.582031 -67.75 13.117188 -67.78125 14.671875 -67.375 C 16.015625 -67.039062 17.191406 -66.484375 18.203125 -65.703125 C 19.222656 -64.929688 19.96875 -63.875 20.4375 -62.53125 C 20.632812 -61.988281 20.597656 -61.476562 20.328125 -61 C 20.066406 -60.53125 19.734375 -60.128906 19.328125 -59.796875 C 17.640625 -58.578125 15.851562 -57.765625 13.96875 -57.359375 C 13.351562 -56.691406 12.539062 -56.203125 11.53125 -55.890625 C 10.519531 -55.585938 9.539062 -55.4375 8.59375 -55.4375 C 7.789062 -55.4375 7 -55.503906 6.21875 -55.640625 C 5.445312 -55.773438 4.691406 -55.976562 3.953125 -56.25 C 3.472656 -56.382812 2.960938 -56.65625 2.421875 -57.0625 C 1.890625 -57.46875 1.554688 -57.90625 1.421875 -58.375 Z M 8.1875 -55.953125 C 9.675781 -55.953125 10.65625 -56.101562 11.125 -56.40625 C 11.601562 -56.707031 11.804688 -56.859375 11.734375 -56.859375 C 11.128906 -56.722656 10.453125 -56.617188 9.703125 -56.546875 C 8.960938 -56.484375 8.019531 -56.550781 6.875 -56.75 C 5.394531 -57.09375 4.398438 -57.769531 3.890625 -58.78125 C 3.390625 -59.789062 3.375 -60.867188 3.84375 -62.015625 C 3.375 -61.472656 2.9375 -60.832031 2.53125 -60.09375 C 2.320312 -59.625 2.21875 -59.203125 2.21875 -58.828125 C 2.21875 -58.460938 2.421875 -58.109375 2.828125 -57.765625 C 3.503906 -57.222656 4.144531 -56.851562 4.75 -56.65625 C 5.757812 -56.320312 6.90625 -56.085938 8.1875 -55.953125 Z M 18.71875 -5.359375 C 18.25 -4.546875 17.539062 -3.972656 16.59375 -3.640625 C 16.65625 -3.304688 16.617188 -2.953125 16.484375 -2.578125 C 16.347656 -2.210938 16.046875 -1.925781 15.578125 -1.71875 C 14.367188 -1.113281 13.070312 -0.945312 11.6875 -1.21875 C 10.300781 -1.488281 9.132812 -2.09375 8.1875 -3.03125 L 8 -3.34375 C 7.519531 -3.539062 7.007812 -3.84375 6.46875 -4.25 C 5.394531 -5.257812 4.738281 -6.472656 4.5 -7.890625 C 4.257812 -9.304688 4.039062 -10.722656 3.84375 -12.140625 C 3.375 -15.921875 3.019531 -19.679688 2.78125 -23.421875 C 2.539062 -27.160156 2.457031 -30.921875 2.53125 -34.703125 C 2.53125 -36.523438 2.53125 -38.363281 2.53125 -40.21875 C 2.53125 -42.070312 2.628906 -43.910156 2.828125 -45.734375 C 2.960938 -46.671875 3.195312 -47.59375 3.53125 -48.5 C 3.875 -49.414062 4.347656 -50.175781 4.953125 -50.78125 C 5.085938 -50.988281 5.222656 -51.175781 5.359375 -51.34375 C 5.492188 -51.507812 5.628906 -51.660156 5.765625 -51.796875 C 6.503906 -52.273438 7.460938 -52.867188 8.640625 -53.578125 C 9.828125 -54.285156 10.992188 -54.6875 12.140625 -54.78125 C 13.285156 -54.882812 14.128906 -54.257812 14.671875 -52.90625 C 15.003906 -52.976562 15.335938 -52.910156 15.671875 -52.703125 C 16.015625 -52.503906 16.21875 -52.171875 16.28125 -51.703125 C 16.28125 -49.804688 16.25 -47.945312 16.1875 -46.125 C 16.125 -44.3125 16.09375 -42.457031 16.09375 -40.5625 C 16.09375 -38.75 16.125 -36.914062 16.1875 -35.0625 C 16.25 -33.207031 16.316406 -31.332031 16.390625 -29.4375 C 16.390625 -29.101562 16.40625 -28.71875 16.4375 -28.28125 C 16.46875 -27.84375 16.519531 -27.382812 16.59375 -26.90625 C 16.65625 -26.976562 16.738281 -26.707031 16.84375 -26.09375 C 16.945312 -25.488281 17.03125 -24.898438 17.09375 -24.328125 C 17.164062 -23.753906 17.234375 -23.46875 17.296875 -23.46875 C 17.234375 -25.894531 17.179688 -28.59375 17.140625 -31.5625 C 17.109375 -34.53125 17.109375 -37.5 17.140625 -40.46875 C 17.179688 -43.4375 17.269531 -46.101562 17.40625 -48.46875 C 17.40625 -48.59375 17.519531 -48.671875 17.75 -48.703125 C 17.988281 -48.742188 18.109375 -48.726562 18.109375 -48.65625 C 17.910156 -41.445312 18.007812 -34.25 18.40625 -27.0625 C 18.8125 -19.875 19.488281 -12.675781 20.4375 -5.46875 C 20.5 -4.988281 20.257812 -4.734375 19.71875 -4.703125 C 19.1875 -4.671875 18.851562 -4.890625 18.71875 -5.359375 Z M 7.484375 -46.640625 C 6.742188 -44.347656 6.320312 -41.9375 6.21875 -39.40625 C 6.125 -36.875 6.007812 -34.429688 5.875 -32.078125 L 5.875 -31.0625 C 5.875 -30.988281 5.875 -30.953125 5.875 -30.953125 C 5.875 -30.953125 5.875 -30.921875 5.875 -30.859375 C 6.007812 -29.640625 6.140625 -28.421875 6.265625 -27.203125 C 6.398438 -25.992188 6.535156 -24.785156 6.671875 -23.578125 L 6.984375 -23.578125 C 6.984375 -25.867188 6.960938 -28.144531 6.921875 -30.40625 C 6.890625 -32.664062 6.910156 -34.941406 6.984375 -37.234375 C 6.984375 -38.984375 7.066406 -40.75 7.234375 -42.53125 C 7.398438 -44.320312 7.753906 -46.03125 8.296875 -47.65625 L 8.1875 -47.65625 C 7.71875 -47.3125 7.484375 -46.972656 7.484375 -46.640625 Z M 7.484375 -46.640625 "/></g></g></g><g fill="#000000" fill-opacity="1"><g transform="translate(283.54995, 253.636725)"><g><path d="M 38.25 -43.40625 C 38.78125 -40.300781 39.113281 -37.160156 39.25 -33.984375 C 39.382812 -30.816406 39.285156 -27.648438 38.953125 -24.484375 C 38.679688 -21.710938 38.238281 -18.859375 37.625 -15.921875 C 37.019531 -12.992188 35.878906 -10.351562 34.203125 -8 C 33.660156 -7.25 33.082031 -6.519531 32.46875 -5.8125 C 31.863281 -5.101562 31.191406 -4.445312 30.453125 -3.84375 C 29.503906 -2.894531 28.441406 -2.097656 27.265625 -1.453125 C 26.085938 -0.816406 24.789062 -0.398438 23.375 -0.203125 C 22.289062 -0.128906 21.175781 -0.128906 20.03125 -0.203125 C 18.34375 0.0664062 16.617188 -0.0664062 14.859375 -0.609375 C 13.109375 -1.148438 11.5625 -1.957031 10.21875 -3.03125 C 7.851562 -5.0625 6.097656 -7.507812 4.953125 -10.375 C 3.804688 -13.238281 2.960938 -16.15625 2.421875 -19.125 C 1.410156 -25.59375 1.410156 -32.066406 2.421875 -38.546875 C 3.441406 -45.023438 5.632812 -51.09375 9 -56.75 C 9 -56.75 9.066406 -56.816406 9.203125 -56.953125 C 10.210938 -59.648438 11.5625 -62.082031 13.25 -64.25 C 13.320312 -64.382812 13.390625 -64.429688 13.453125 -64.390625 C 13.523438 -64.359375 13.523438 -64.273438 13.453125 -64.140625 C 13.179688 -63.671875 12.894531 -63.179688 12.59375 -62.671875 C 12.289062 -62.171875 12.039062 -61.648438 11.84375 -61.109375 C 11.570312 -60.566406 11.332031 -60.007812 11.125 -59.4375 C 10.925781 -58.863281 10.722656 -58.304688 10.515625 -57.765625 C 10.648438 -57.835938 10.800781 -57.851562 10.96875 -57.8125 C 11.144531 -57.78125 11.265625 -57.765625 11.328125 -57.765625 C 12.203125 -59.660156 13.242188 -61.3125 14.453125 -62.71875 C 15.671875 -64.132812 17.09375 -65.015625 18.71875 -65.359375 C 19.394531 -65.628906 20.050781 -65.847656 20.6875 -66.015625 C 21.332031 -66.179688 21.988281 -66.234375 22.65625 -66.171875 C 23.40625 -66.304688 24.164062 -66.351562 24.9375 -66.3125 C 25.71875 -66.28125 26.410156 -66.097656 27.015625 -65.765625 C 27.691406 -65.359375 28.28125 -64.78125 28.78125 -64.03125 C 29.289062 -63.289062 29.710938 -62.585938 30.046875 -61.921875 C 30.453125 -62.054688 30.875 -62.070312 31.3125 -61.96875 C 31.75 -61.863281 32.101562 -61.578125 32.375 -61.109375 C 33.113281 -59.753906 33.820312 -58.367188 34.5 -56.953125 C 35.175781 -55.535156 35.75 -54.085938 36.21875 -52.609375 C 36.6875 -51.128906 37.070312 -49.613281 37.375 -48.0625 C 37.6875 -46.507812 37.976562 -44.957031 38.25 -43.40625 Z M 25.59375 -13.96875 C 26.46875 -16.320312 27.070312 -18.742188 27.40625 -21.234375 C 27.75 -23.734375 27.921875 -26.234375 27.921875 -28.734375 C 27.722656 -31.296875 27.519531 -33.84375 27.3125 -36.375 C 27.113281 -38.90625 26.8125 -41.414062 26.40625 -43.90625 C 26.269531 -44.644531 26.132812 -45.398438 26 -46.171875 C 25.863281 -46.953125 25.726562 -47.679688 25.59375 -48.359375 C 25.320312 -49.304688 25.019531 -50.21875 24.6875 -51.09375 C 24.351562 -51.96875 24.015625 -52.84375 23.671875 -53.71875 C 23.535156 -54.0625 23.382812 -54.429688 23.21875 -54.828125 C 23.050781 -55.234375 22.863281 -55.609375 22.65625 -55.953125 C 22.519531 -56.085938 22.390625 -56.15625 22.265625 -56.15625 L 21.75 -56.15625 C 21.476562 -55.613281 21.222656 -55.035156 20.984375 -54.421875 C 20.753906 -53.816406 20.570312 -53.242188 20.4375 -52.703125 C 19.894531 -50.890625 19.40625 -49.054688 18.96875 -47.203125 C 18.53125 -45.347656 18.175781 -43.441406 17.90625 -41.484375 C 17.4375 -37.773438 17.234375 -33.992188 17.296875 -30.140625 C 17.367188 -26.296875 17.707031 -22.488281 18.3125 -18.71875 C 18.507812 -17.570312 18.375 -16.5625 17.90625 -15.6875 C 16.488281 -22.289062 15.929688 -29.113281 16.234375 -36.15625 C 16.535156 -43.207031 18.140625 -49.769531 21.046875 -55.84375 C 20.773438 -55.644531 20.519531 -55.359375 20.28125 -54.984375 C 20.050781 -54.617188 19.832031 -54.265625 19.625 -53.921875 C 18.6875 -52.035156 17.878906 -50.078125 17.203125 -48.046875 C 16.523438 -46.023438 15.984375 -43.972656 15.578125 -41.890625 C 15.441406 -41.617188 15.375 -41.484375 15.375 -41.484375 C 15.175781 -40.335938 15.023438 -39.171875 14.921875 -37.984375 C 14.816406 -36.804688 14.695312 -35.644531 14.5625 -34.5 C 14.425781 -31.0625 14.546875 -27.640625 14.921875 -24.234375 C 15.296875 -20.828125 15.851562 -17.472656 16.59375 -14.171875 C 16.257812 -13.898438 15.890625 -13.726562 15.484375 -13.65625 C 14.265625 -13.382812 13.082031 -13.585938 11.9375 -14.265625 C 12.476562 -13.179688 13.21875 -12.066406 14.15625 -10.921875 C 15.101562 -9.773438 16.203125 -8.914062 17.453125 -8.34375 C 18.703125 -7.769531 20.035156 -7.6875 21.453125 -8.09375 C 22.597656 -8.5 23.507812 -9.304688 24.1875 -10.515625 C 24.519531 -11.054688 24.800781 -11.613281 25.03125 -12.1875 C 25.269531 -12.757812 25.457031 -13.351562 25.59375 -13.96875 Z M 25.59375 -13.96875 "/></g></g></g><g fill="#000000" fill-opacity="1"><g transform="translate(321.589391, 253.636725)"><g><path d="M 43.90625 0.296875 C 43.300781 0.703125 42.628906 0.703125 41.890625 0.296875 C 40.535156 -0.304688 39.625 -1.296875 39.15625 -2.671875 C 38.6875 -4.054688 38.316406 -5.390625 38.046875 -6.671875 L 37.4375 -10.125 L 19.828125 -41.578125 C 19.554688 -41.921875 19.285156 -42.289062 19.015625 -42.6875 C 18.742188 -43.09375 18.476562 -43.46875 18.21875 -43.8125 C 18.28125 -40.363281 18.296875 -36.921875 18.265625 -33.484375 C 18.234375 -30.046875 18.21875 -26.609375 18.21875 -23.171875 C 18.34375 -21.148438 18.421875 -19.125 18.453125 -17.09375 C 18.492188 -15.070312 18.546875 -13.050781 18.609375 -11.03125 C 18.679688 -10.019531 18.75 -8.785156 18.8125 -7.328125 C 18.882812 -5.878906 18.734375 -4.582031 18.359375 -3.4375 C 17.992188 -2.289062 17.101562 -1.617188 15.6875 -1.421875 C 15.070312 -0.410156 14.242188 0.28125 13.203125 0.65625 C 12.160156 1.03125 11.066406 1.046875 9.921875 0.703125 C 8.835938 0.429688 7.890625 -0.207031 7.078125 -1.21875 C 6.804688 -5.46875 6.585938 -9.710938 6.421875 -13.953125 C 6.253906 -18.203125 6.101562 -22.453125 5.96875 -26.703125 C 5.832031 -30.148438 5.726562 -33.609375 5.65625 -37.078125 C 5.59375 -40.554688 5.492188 -44.015625 5.359375 -47.453125 C 5.296875 -49.671875 5.242188 -51.894531 5.203125 -54.125 C 5.171875 -56.351562 5.222656 -58.546875 5.359375 -60.703125 C 6.035156 -61.242188 6.675781 -61.546875 7.28125 -61.609375 C 7.28125 -62.421875 7.550781 -63.195312 8.09375 -63.9375 C 8.90625 -64.945312 9.816406 -65.4375 10.828125 -65.40625 C 11.835938 -65.375 12.878906 -65.003906 13.953125 -64.296875 C 15.035156 -63.585938 16.015625 -62.773438 16.890625 -61.859375 C 17.773438 -60.953125 18.453125 -60.195312 18.921875 -59.59375 C 20.671875 -57.300781 22.269531 -54.957031 23.71875 -52.5625 C 25.175781 -50.164062 26.578125 -47.71875 27.921875 -45.21875 C 29.066406 -43.269531 30.175781 -41.28125 31.25 -39.25 C 32.332031 -37.226562 33.382812 -35.171875 34.40625 -33.078125 C 34.53125 -32.804688 34.59375 -32.472656 34.59375 -32.078125 L 36.21875 -28.9375 C 35.945312 -31.5 35.578125 -34.09375 35.109375 -36.71875 C 34.640625 -39.351562 34.164062 -41.953125 33.6875 -44.515625 C 33.351562 -46.335938 33.015625 -48.15625 32.671875 -49.96875 C 32.335938 -51.789062 31.898438 -53.613281 31.359375 -55.4375 C 31.085938 -56.382812 30.832031 -57.347656 30.59375 -58.328125 C 30.363281 -59.304688 30.519531 -60.300781 31.0625 -61.3125 C 31.53125 -62.125 32.101562 -62.726562 32.78125 -63.125 C 32.78125 -63.195312 32.796875 -63.234375 32.828125 -63.234375 C 32.859375 -63.234375 32.875 -63.265625 32.875 -63.328125 C 33.488281 -64.472656 34.414062 -65.046875 35.65625 -65.046875 C 36.90625 -65.046875 37.96875 -64.742188 38.84375 -64.140625 C 39.050781 -64.078125 39.289062 -63.910156 39.5625 -63.640625 C 39.757812 -62.691406 39.992188 -61.726562 40.265625 -60.75 C 40.535156 -59.769531 40.804688 -58.8125 41.078125 -57.875 C 41.890625 -54.96875 42.5625 -51.976562 43.09375 -48.90625 C 43.632812 -45.84375 44.140625 -42.796875 44.609375 -39.765625 C 45.628906 -33.617188 46.441406 -27.410156 47.046875 -21.140625 C 47.648438 -14.867188 48.15625 -8.628906 48.5625 -2.421875 C 48.019531 -1.679688 47.34375 -1.039062 46.53125 -0.5 C 45.726562 0.03125 44.851562 0.296875 43.90625 0.296875 Z M 49.578125 -3.4375 C 49.441406 -3.4375 49.304688 -3.335938 49.171875 -3.140625 C 48.492188 -12.785156 47.5625 -22.410156 46.375 -32.015625 C 45.195312 -41.628906 43.566406 -51.125 41.484375 -60.5 C 41.347656 -60.90625 41.445312 -61.273438 41.78125 -61.609375 C 42.050781 -61.953125 42.421875 -62.101562 42.890625 -62.0625 C 43.367188 -62.03125 43.640625 -61.742188 43.703125 -61.203125 C 45.523438 -52.441406 46.957031 -43.59375 48 -34.65625 C 49.050781 -25.71875 49.539062 -16.765625 49.46875 -7.796875 C 49.539062 -7.453125 49.59375 -6.820312 49.625 -5.90625 C 49.65625 -5 49.640625 -4.175781 49.578125 -3.4375 Z M 5.265625 -10.828125 C 4.992188 -14.398438 4.789062 -18.125 4.65625 -22 C 4.519531 -25.882812 4.382812 -29.644531 4.25 -33.28125 C 4.113281 -36.851562 4.007812 -40.460938 3.9375 -44.109375 C 3.875 -47.753906 3.8125 -51.394531 3.75 -55.03125 C 3.675781 -55.914062 3.707031 -56.8125 3.84375 -57.71875 C 3.976562 -58.625 4.210938 -59.484375 4.546875 -60.296875 C 4.484375 -58.679688 4.46875 -57.0625 4.5 -55.4375 C 4.53125 -53.820312 4.582031 -52.207031 4.65625 -50.59375 C 4.71875 -47.082031 4.800781 -43.570312 4.90625 -40.0625 C 5.007812 -36.550781 5.09375 -33.007812 5.15625 -29.4375 L 6.078125 -6.671875 C 6.078125 -6.671875 5.988281 -6.820312 5.8125 -7.125 C 5.644531 -7.4375 5.460938 -8.671875 5.265625 -10.828125 Z M 16.59375 -15.78125 L 16.28125 -15.484375 C 16.28125 -15.484375 16.265625 -15.484375 16.234375 -15.484375 C 16.203125 -15.484375 16.15625 -15.445312 16.09375 -15.375 L 15.984375 -9.3125 C 15.984375 -8.5 16.132812 -7.535156 16.4375 -6.421875 C 16.738281 -5.304688 16.722656 -4.109375 16.390625 -2.828125 C 17.066406 -3.972656 17.335938 -5.117188 17.203125 -6.265625 C 17.128906 -7.210938 17.078125 -8.191406 17.046875 -9.203125 C 17.015625 -10.210938 16.929688 -11.222656 16.796875 -12.234375 C 16.796875 -12.847656 16.773438 -13.441406 16.734375 -14.015625 C 16.703125 -14.585938 16.65625 -15.175781 16.59375 -15.78125 Z M 16.59375 -15.78125 "/></g></g></g><g clip-path="url(#11dcd3ead7)"><path fill="#000000" d="M 244.652344 91.546875 C 244.460938 91.738281 244.09375 91.679688 244.03125 91.421875 C 243.980469 90.914062 244.792969 91.074219 244.652344 91.546875 Z M 139.214844 201.160156 C 139.15625 200.992188 139.023438 200.890625 138.960938 200.722656 C 138.65625 200.75 138.707031 201.132812 138.277344 201.03125 C 138.15625 200.75 138.027344 200.492188 137.964844 200.160156 C 138.058594 200.003906 138.183594 199.878906 138.339844 199.789062 C 138.375 199.539062 138.167969 199.535156 138.210938 199.289062 C 137.546875 199.429688 137.683594 200.273438 136.898438 200.414062 C 136.957031 199.886719 137.140625 199.484375 137.648438 199.414062 C 137.535156 199.183594 137.351562 198.902344 137.648438 198.722656 C 137.621094 198.582031 137.308594 198.730469 137.335938 198.542969 C 137.289062 198.113281 137.613281 198.070312 137.773438 197.851562 C 137.730469 197.621094 137.703125 197.378906 137.648438 197.160156 C 137.441406 197.121094 137.113281 197.703125 136.710938 197.480469 C 136.632812 196.992188 136.878906 196.316406 137.464844 196.289062 C 137.351562 195.382812 137.160156 194.558594 137.082031 193.605469 C 136.964844 193.5 136.496094 193.839844 136.335938 193.542969 C 136.335938 193.042969 136.714844 192.925781 136.964844 192.671875 C 136.90625 192.285156 136.84375 191.917969 136.835938 191.488281 C 136.433594 191.523438 136.652344 191.867188 136.710938 192.109375 C 136.492188 192.261719 136.371094 192.515625 136.082031 192.609375 C 135.953125 192.3125 136.046875 191.867188 136.082031 191.546875 C 135.863281 191.152344 135.347656 191.039062 135.398438 190.363281 C 135.695312 190.292969 135.617188 190.601562 135.769531 190.671875 C 135.90625 190.25 135.949219 189.550781 135.769531 189.300781 C 135.335938 189.53125 135.269531 190.128906 134.648438 190.171875 C 134.425781 189.75 134.3125 189.214844 133.957031 188.925781 C 133.945312 188.722656 134.183594 188.777344 134.269531 188.679688 C 134.296875 188.390625 134.207031 187.988281 134.332031 187.800781 C 134.679688 187.644531 134.945312 187.941406 135.152344 188.117188 C 135.207031 188.511719 134.769531 188.40625 134.648438 188.617188 C 134.574219 189.003906 134.742188 189.144531 134.832031 189.363281 C 135.582031 189.222656 134.988281 187.757812 135.644531 187.679688 C 136.003906 187.636719 136.054688 187.898438 136.207031 188.179688 C 136.382812 187.855469 136.128906 187.425781 136.082031 187.117188 C 135.707031 187.363281 135.226562 187.421875 134.769531 187.363281 C 134.753906 186.574219 135.476562 186.574219 135.460938 185.925781 C 134.898438 185.597656 133.761719 184.183594 134.832031 183.746094 C 135.023438 183.871094 135.023438 183.992188 134.960938 184.246094 C 135.058594 184.117188 135.339844 184.167969 135.460938 184.054688 C 135.285156 184.035156 134.902344 184.039062 135.023438 183.554688 C 134.574219 183.472656 134.472656 183.933594 134.148438 183.617188 C 134.679688 183.105469 134.035156 181.773438 134.648438 181.308594 C 134.425781 181.140625 134.261719 180.902344 133.894531 180.875 C 133.988281 180.339844 133.78125 180.464844 133.585938 180.246094 C 133.710938 180.070312 133.824219 180.050781 133.710938 179.753906 C 133.664062 179.628906 133.480469 180.085938 133.332031 179.875 C 133.382812 179.523438 133.527344 179 133.019531 178.9375 C 132.972656 178.683594 133.234375 178.542969 133.394531 178.691406 C 133.253906 178.457031 132.886719 178.261719 133.085938 177.882812 C 132.796875 177.917969 132.683594 177.78125 132.457031 177.753906 C 132.464844 177.542969 132.195312 177.269531 132.328125 177.128906 C 132.605469 176.902344 132.414062 177.558594 132.710938 177.5 C 133.097656 177.246094 133.464844 176.964844 133.523438 176.382812 C 133.417969 176.382812 133.308594 176.382812 133.210938 176.382812 C 132.941406 176.53125 133.445312 176.640625 133.148438 176.882812 C 132.816406 176.945312 132.816406 176.875 132.582031 176.753906 C 133.199219 176.171875 132.765625 175.535156 132.582031 174.820312 C 132.546875 174.75 132.28125 174.867188 132.148438 174.753906 C 131.992188 174.382812 132.132812 173.902344 132.457031 173.820312 C 132.535156 172.828125 131.710938 172.734375 131.710938 171.820312 C 131.75 171.53125 132.039062 171.488281 132.210938 171.328125 C 132.074219 171.265625 131.609375 171.398438 131.457031 171.199219 C 131.386719 170.75 131.640625 170.628906 131.894531 170.511719 C 131.644531 170.265625 131.066406 170.339844 130.835938 170.074219 C 130.660156 169.8125 130.636719 169.136719 130.898438 168.953125 C 131.210938 168.890625 131.230469 169.371094 131.519531 169.136719 C 130.863281 168.023438 130.257812 166.320312 130.015625 164.582031 C 129.550781 164.578125 129.03125 164.222656 129.394531 163.773438 C 129.726562 163.667969 129.59375 164.035156 129.898438 163.957031 C 130.445312 163.5 129.683594 162.554688 129.644531 161.902344 C 129.515625 161.886719 129.3125 161.984375 129.207031 161.710938 C 129.085938 161.367188 129.445312 161.492188 129.460938 161.273438 C 129.445312 160.992188 129 161.140625 128.960938 160.902344 C 128.789062 160.703125 129.128906 160.613281 129.207031 160.464844 C 129.136719 160.269531 128.816406 160.308594 128.769531 160.085938 C 128.753906 159.769531 128.980469 160.078125 129.023438 159.839844 C 128.894531 159.464844 128.78125 159.070312 128.578125 158.777344 C 128.273438 156.398438 127.335938 154.382812 126.828125 152.097656 C 126.746094 151.917969 126.46875 151.917969 126.390625 151.722656 C 126.179688 149.640625 125.445312 147.984375 124.769531 146.296875 C 123.636719 143.464844 122.351562 140.503906 121.140625 137.496094 C 120.878906 136.835938 120.671875 136.027344 120.390625 135.808594 C 120.09375 135.582031 119.566406 135.492188 119.199219 135.308594 C 117.007812 134.195312 115.074219 132.738281 114.574219 129.816406 C 114.566406 129.570312 114.269531 129.621094 114.261719 129.378906 C 114.410156 129.132812 114.601562 128.929688 114.574219 128.507812 C 114.628906 128.242188 114.164062 128.5 114.199219 128.253906 C 114.617188 128.023438 114.769531 127.535156 114.945312 127.074219 C 114.890625 126.9375 114.664062 126.988281 114.515625 126.910156 C 114.390625 127.347656 113.605469 127.078125 113.710938 126.621094 C 113.769531 126.578125 113.804688 126.507812 113.839844 126.4375 C 114.074219 126.472656 114.269531 126.542969 114.394531 126.679688 C 114.515625 126.183594 115.371094 126.417969 115.511719 125.945312 C 115.488281 125.742188 115.335938 125.671875 115.390625 125.382812 C 115.15625 125.433594 115.242188 125.785156 114.945312 125.761719 C 114.507812 125.679688 114.382812 125.292969 113.953125 125.199219 C 114.148438 124.363281 115.023438 125.699219 115.265625 124.882812 C 115.546875 124.917969 115.617188 125.15625 115.882812 125.199219 C 116.214844 125.214844 116.214844 124.90625 116.449219 124.828125 C 116.109375 124.679688 115.933594 124.128906 116.265625 123.828125 C 117.027344 123.890625 117.183594 123.277344 117.761719 123.011719 C 117.789062 122.757812 117.554688 122.765625 117.640625 122.453125 C 117.902344 122.382812 117.878906 122.582031 118.078125 122.574219 C 118.234375 122.878906 117.808594 123.300781 118.203125 123.511719 C 118.351562 123.382812 118.464844 123.089844 118.597656 122.808594 C 118.558594 122.8125 118.515625 122.820312 118.464844 122.8125 C 118.4375 122.765625 118.410156 122.707031 118.339844 122.695312 C 118.273438 122.378906 118.621094 122.242188 118.851562 122.355469 C 118.964844 122.207031 119.101562 122.125 119.261719 122.136719 C 119.523438 122.167969 119.609375 122.238281 119.636719 122.574219 C 119.8125 122.476562 119.828125 122.222656 120.136719 122.265625 C 120.574219 122.230469 120.425781 122.773438 120.765625 122.828125 C 120.8125 122.785156 120.730469 122.460938 120.800781 122.292969 C 120.636719 122.347656 120.410156 122.285156 120.339844 122.132812 C 120.3125 121.75 120.757812 121.679688 120.960938 121.878906 C 121.003906 122.027344 120.984375 122.132812 120.933594 122.203125 C 121.625 122.1875 121.828125 122.652344 122.332031 122.828125 C 122.589844 122.878906 122.34375 122.414062 122.542969 122.390625 C 122.515625 122.390625 122.492188 122.382812 122.464844 122.378906 C 122.441406 122.125 122.484375 121.949219 122.71875 121.941406 C 122.875 122.046875 122.839844 122.378906 122.570312 122.390625 L 122.578125 122.390625 C 122.984375 122.378906 122.878906 122.882812 123.203125 122.953125 C 123.15625 122.566406 122.824219 122.257812 122.894531 121.957031 C 123.347656 121.742188 123.613281 122.214844 123.953125 122.328125 C 123.8125 122.519531 123.746094 122.785156 123.640625 123.011719 C 124.128906 123.195312 124.707031 123.277344 125.082031 123.574219 C 125.269531 123.558594 125.1875 123.265625 125.453125 123.328125 C 125.328125 123.722656 125.511719 123.804688 125.765625 123.945312 C 125.90625 123.90625 125.757812 123.566406 126.019531 123.636719 C 125.996094 123.898438 126.320312 124.039062 126.144531 124.265625 C 126.941406 124.941406 127.824219 125.53125 128.394531 126.507812 C 128.621094 126.890625 128.699219 127.4375 128.957031 127.699219 C 129.171875 127.902344 129.820312 128.035156 130.332031 128.253906 C 133.410156 129.570312 136.574219 131.050781 139.394531 132.625 C 142.648438 134.441406 145.765625 136.667969 148.777344 138.554688 C 150.328125 139.523438 151.914062 140.515625 153.34375 141.679688 C 154.761719 142.824219 156.136719 144.058594 157.660156 144.988281 C 159.96875 146.394531 161.921875 148.359375 163.972656 150.167969 C 165.117188 151.175781 166.277344 151.921875 166.976562 153.351562 C 167.507812 152.757812 166.328125 152.308594 166.785156 151.785156 C 167.113281 151.792969 167.027344 152.109375 166.976562 152.351562 C 167.335938 152.082031 167.140625 151.265625 167.289062 150.789062 C 166.773438 150.226562 167.308594 149.796875 167.414062 149.167969 C 167.265625 148.851562 166.773438 149.238281 166.722656 148.796875 C 167.089844 148.789062 167.148438 148.519531 167.476562 148.234375 C 167.296875 148.105469 166.914062 148.167969 166.722656 148.042969 C 166.6875 147.773438 166.773438 147.628906 166.785156 147.417969 C 167.003906 147.621094 167.070312 147.464844 167.351562 147.417969 C 167.253906 147.140625 167.003906 147.015625 166.914062 146.734375 C 167.003906 146.515625 167.140625 146.339844 167.289062 146.171875 C 167.28125 145.886719 167.039062 145.832031 167.105469 145.488281 C 167.21875 145.214844 167.613281 145.382812 167.789062 145.296875 C 167.851562 144.9375 167.476562 145.101562 167.476562 144.734375 C 167.472656 144.355469 168.140625 144.15625 167.851562 143.613281 C 167.773438 144.09375 167.230469 144.417969 167.160156 144.925781 C 166.929688 144.882812 166.933594 144.539062 167.105469 144.425781 C 166.984375 144.183594 166.679688 144.136719 166.722656 143.734375 C 166.878906 143.644531 166.96875 143.585938 167.160156 143.671875 C 167.238281 143.332031 167.160156 143.347656 167.105469 143.050781 C 167.003906 143.355469 166.433594 143.476562 166.167969 143.234375 C 166.101562 142.671875 166.828125 142.652344 167.105469 142.925781 C 167.308594 142.425781 166.859375 142.265625 166.660156 141.988281 C 166.675781 141.503906 167.246094 141.574219 167.160156 140.988281 C 167.054688 140.835938 166.640625 141.128906 166.476562 140.925781 C 166.511719 140.574219 167.070312 140.679688 167.226562 140.617188 C 167.273438 139.996094 167.4375 139.496094 167.664062 139.054688 C 167.332031 138.457031 167.226562 137.140625 167.726562 136.5625 C 167.875 136.394531 168.128906 136.421875 168.226562 136.183594 C 168.035156 136.082031 167.710938 136.113281 167.597656 135.9375 C 167.535156 135.371094 167.667969 134.367188 168.042969 133.875 C 168.566406 133.816406 168.445312 134.414062 168.480469 134.691406 C 168.621094 134.5625 168.5 134.167969 168.535156 133.9375 C 167.992188 133.71875 167.65625 132.445312 168.097656 132 C 168.289062 132 168.164062 132.316406 168.351562 132.316406 C 168.640625 131.972656 168.0625 131.953125 167.980469 131.628906 C 167.832031 131.859375 167.980469 132.382812 167.597656 132.382812 C 167.464844 132.058594 167.414062 131.640625 167.226562 131.382812 C 167.613281 131.507812 167.550781 131.269531 167.851562 131.191406 C 167.859375 130.601562 167.796875 129.925781 167.980469 129.507812 C 167.902344 129.289062 167.578125 129.324219 167.597656 129.007812 C 167.859375 128.71875 168.242188 128.566406 168.726562 128.507812 C 168.59375 127.875 168.429688 127.574219 168.042969 127.136719 C 168.140625 126.796875 168.128906 126.328125 167.914062 126.136719 C 168.128906 125.933594 168.175781 125.566406 168.226562 125.199219 C 168.324219 125.109375 168.691406 125.109375 168.789062 125.199219 C 168.882812 124.730469 168.515625 124.722656 168.601562 124.265625 C 168.386719 124.167969 168.027344 124.207031 167.980469 123.949219 C 168.0625 123.3125 168.410156 122.925781 168.601562 122.390625 C 168.488281 122.214844 168.15625 122.25 168.097656 122.019531 C 168.359375 121.597656 168.316406 121.257812 168.289062 120.582031 C 168.5 120.273438 168.707031 119.957031 168.851562 119.582031 C 168.726562 119.457031 168.457031 119.472656 168.414062 119.265625 C 168.480469 118.726562 168.953125 118.105469 168.664062 117.773438 C 168.621094 117.4375 169 117.527344 168.917969 117.148438 C 168.902344 116.894531 168.507812 117.015625 168.535156 116.710938 C 168.851562 116.324219 169.289062 115.605469 168.726562 115.210938 C 168.851562 114.699219 169.078125 114.601562 168.851562 114.277344 C 168.867188 113.917969 169.234375 113.910156 169.289062 113.59375 C 169.136719 113.496094 168.902344 113.480469 168.851562 113.277344 C 168.875 112.988281 169.101562 112.902344 169.355469 112.839844 C 169.066406 112.304688 169.628906 111.726562 169.355469 111.03125 C 169.296875 110.835938 169.445312 110.835938 169.539062 110.785156 C 169.523438 110.523438 169.171875 110.609375 169.289062 110.222656 C 169.417969 110.09375 169.410156 109.875 169.664062 110.03125 C 169.691406 109.742188 169.75 109.617188 169.664062 109.347656 C 170.285156 106.273438 171.449219 103.40625 174.855469 102.980469 C 176.546875 102.765625 177.660156 103.683594 178.855469 104.476562 C 179.882812 105.160156 180.703125 105.625 181.484375 106.351562 C 182.28125 107.082031 182.964844 107.90625 183.734375 108.597656 C 186.054688 110.679688 188.128906 113.128906 189.988281 115.710938 C 191.257812 117.472656 192.613281 119.140625 193.804688 120.828125 C 195.074219 122.644531 196.066406 124.546875 197.429688 126.199219 C 201.414062 131.042969 205.375 136.203125 209.121094 141.304688 C 210.800781 137.738281 212.492188 134.273438 214.25 130.882812 C 215.09375 129.242188 216.214844 127.699219 217.1875 126.074219 C 218.15625 124.453125 219.171875 122.835938 220.25 121.394531 C 221.355469 119.921875 222.585938 118.5 223.691406 117.023438 C 224.8125 115.535156 225.917969 114.085938 227.132812 112.714844 C 229.558594 109.960938 231.570312 106.855469 234.382812 104.476562 C 234.355469 104.253906 234.285156 104.117188 234.382812 103.914062 C 235.375 103.84375 235.398438 102.800781 236.195312 102.542969 C 236.167969 101.957031 236.886719 101.902344 236.824219 101.234375 C 237.140625 101.167969 237.253906 100.910156 237.449219 100.734375 C 237.773438 100.691406 238.027344 100.910156 238.199219 100.671875 C 238.050781 100.515625 237.894531 100.105469 238.132812 99.925781 C 238.507812 99.824219 238.457031 100.140625 238.761719 100.105469 C 239.3125 99.875 239.199219 99.699219 239.015625 99.171875 C 239.226562 98.890625 239.617188 99.023438 239.953125 99.109375 C 240.179688 98.734375 239.8125 98.472656 239.636719 98.296875 C 239.890625 98.128906 240.066406 97.890625 240.347656 97.757812 C 240.355469 97.734375 240.371094 97.722656 240.375 97.714844 C 240.207031 97.109375 240.625 96.722656 240.574219 96.242188 C 240.882812 96.277344 240.925781 96.050781 241.328125 96.050781 C 241.300781 95.933594 241.242188 95.839844 241.222656 95.75 C 241.214844 95.765625 241.214844 95.777344 241.207031 95.792969 C 240.539062 95.828125 241.03125 95.074219 241.292969 95.46875 C 241.484375 95.347656 241.667969 95.382812 241.898438 95.414062 C 241.898438 95.398438 241.898438 95.378906 241.898438 95.355469 C 241.957031 95.308594 242.035156 95.285156 242.105469 95.292969 C 242.117188 95.214844 242.132812 95.117188 242.203125 95.054688 C 242.402344 95.066406 242.464844 94.941406 242.703125 94.988281 C 242.957031 94.433594 243.605469 94.273438 243.953125 93.808594 C 244.679688 94.023438 245.257812 93.800781 246.074219 93.808594 C 246.320312 93.84375 246.238281 93.546875 246.390625 93.492188 C 246.722656 93.457031 246.6875 93.777344 246.894531 93.871094 C 246.992188 93.882812 247.082031 93.914062 247.183594 93.933594 C 247.296875 93.777344 247.578125 93.757812 247.78125 93.855469 C 247.796875 93.960938 247.839844 94.03125 247.84375 94.144531 C 249.804688 94.878906 251.132812 96.539062 251.082031 98.863281 C 251.011719 101.726562 249.070312 103.226562 247.011719 104.167969 C 246.929688 105.238281 247.011719 106.492188 246.390625 107.039062 C 246.328125 112.214844 246.378906 117.667969 245.957031 122.703125 C 245.441406 128.785156 245.617188 135.15625 245.328125 141.425781 C 245.023438 148.101562 245.539062 154.316406 245.828125 160.46875 C 246.046875 165.136719 246.316406 169.757812 246.957031 174.074219 C 247.125 175.257812 247.246094 176.1875 247.703125 177.066406 C 248.175781 177.96875 248.367188 178.910156 248.640625 179.9375 C 248.917969 180.964844 249.417969 181.878906 249.515625 182.808594 C 249.917969 186.589844 247.222656 189.160156 243.640625 188.863281 C 241.066406 188.652344 239.664062 186.992188 238.699219 184.9375 C 232.148438 182.734375 223.121094 182.675781 214.8125 182.4375 C 214.488281 182.917969 214.648438 183.480469 214.621094 184 C 214.367188 189.652344 214.855469 195.910156 214.875 201.722656 C 217.761719 201.535156 220.773438 200.589844 223.945312 200.160156 C 226.460938 199.824219 228.351562 199.308594 230.511719 198.664062 C 231.144531 198.472656 231.714844 197.886719 232.257812 197.789062 C 234.296875 197.417969 234.777344 200.199219 233.070312 200.726562 C 232.691406 200.84375 232.273438 200.824219 231.886719 200.90625 C 230.941406 201.125 229.855469 201.65625 228.816406 201.789062 C 228.851562 203.441406 229.097656 205.792969 228.570312 207.089844 C 228.386719 207.179688 228.195312 207.257812 227.878906 207.214844 C 227.179688 206.292969 227.308594 204.539062 227.195312 203.035156 C 226.757812 202.929688 225.847656 203.363281 225.382812 203.035156 C 225.398438 203.933594 225.792969 205.933594 225.628906 207.023438 C 225.558594 207.519531 225.292969 208.335938 224.5 208.152344 C 223.578125 207.308594 223.964844 205.152344 223.753906 203.597656 C 220.898438 204.40625 217.835938 205.011719 214.875 205.714844 C 215.128906 207.566406 214.648438 209.226562 214.8125 211.269531 C 214.890625 212.269531 215.3125 213.742188 215.441406 214.832031 C 215.566406 215.957031 215.042969 217.921875 213.746094 216.949219 C 213.339844 216.648438 213.15625 215.628906 213.183594 214.957031 C 213.238281 213.761719 213.507812 212.234375 213.4375 210.648438 C 213.359375 208.925781 213.085938 207.382812 213.183594 206.089844 C 211.128906 206.335938 209.023438 207.054688 206.746094 207.277344 C 206.320312 210.828125 207.140625 214.535156 207.054688 217.949219 C 207.816406 218.675781 207.429688 219.964844 206.746094 220.132812 C 205.742188 220.386719 205.171875 219.640625 205.242188 218.824219 C 205.269531 218.527344 205.523438 218.308594 205.558594 218.078125 C 205.585938 217.894531 205.511719 217.765625 205.496094 217.578125 C 205.25 214.550781 205.574219 210.355469 205.058594 207.714844 C 201.949219 208.355469 198.191406 208.890625 194.550781 209.214844 C 194.394531 209.511719 194.394531 209.96875 194.113281 210.152344 C 194.023438 211.601562 194.027344 213.4375 194.113281 215.269531 C 194.207031 217.308594 194.070312 219.574219 194.550781 220.886719 C 194.734375 221.371094 195.292969 221.730469 195.117188 222.503906 C 194.863281 223.625 193.097656 223.425781 192.929688 222.320312 C 192.867188 221.914062 192.949219 221.144531 192.929688 220.574219 C 192.765625 217.121094 193.027344 212.726562 192.613281 209.523438 C 185.328125 209.863281 177.511719 210.707031 169.417969 210.332031 C 166.785156 210.214844 164.183594 210.453125 161.660156 210.332031 C 159.347656 210.226562 157.152344 210.171875 154.847656 210.023438 C 153.148438 209.910156 151.371094 209.546875 149.714844 209.277344 C 148.042969 209.003906 146.519531 208.589844 145.148438 208.023438 C 142.414062 206.898438 140.078125 204.90625 139.460938 202.035156 C 139.242188 202.050781 138.988281 202.5625 138.402344 202.40625 C 137.605469 201.960938 138.324219 200.617188 139.214844 201.160156 Z M 137.464844 200.535156 C 137.78125 200.492188 137.832031 201.105469 137.402344 200.96875 C 137.402344 200.808594 137.371094 200.617188 137.464844 200.535156 Z M 237.078125 101.480469 C 237.265625 101.484375 237.394531 101.421875 237.449219 101.296875 C 237.261719 101.339844 237.332031 101.121094 237.132812 101.167969 C 237.160156 101.316406 237.019531 101.304688 237.078125 101.480469 Z M 205.808594 148.480469 C 204.96875 148.957031 205.125 147.378906 204.433594 147.296875 C 204.398438 147.507812 204.402344 147.761719 204.183594 147.796875 C 204.03125 147.613281 203.875 147.4375 203.929688 147.042969 C 204.023438 146.71875 204.4375 147 204.558594 146.796875 C 204.234375 146.246094 203.894531 145.707031 203.367188 145.359375 C 203.332031 145.464844 203.445312 145.726562 203.304688 145.734375 C 202.324219 145.523438 202.972656 144.277344 202.308594 143.925781 C 202.296875 144.128906 202.449219 144.226562 202.183594 144.234375 C 201.765625 144.078125 201.949219 143.347656 201.492188 143.550781 C 201.28125 143.226562 201.203125 143.011719 201.429688 142.679688 C 201.273438 142.390625 200.835938 142.90625 200.617188 142.550781 C 200.617188 142.09375 200.757812 141.765625 200.488281 141.425781 C 200.335938 141.25 200.328125 141.785156 200.117188 141.554688 C 200.023438 140.539062 199.339844 140.125 198.613281 139.742188 C 198.453125 139.5625 198.644531 139.355469 198.613281 139.117188 C 197.988281 138.679688 197.710938 137.90625 197.183594 137.371094 C 197 137.1875 196.78125 137.140625 196.617188 136.9375 C 196.476562 136.753906 196.421875 136.5 196.300781 136.308594 C 194.976562 134.234375 193.085938 132.472656 191.492188 130.566406 C 189.855469 128.617188 188.382812 126.574219 186.613281 124.828125 C 186.710938 126.960938 186.476562 129.226562 186.484375 131.382812 C 186.492188 132.3125 186.984375 134.929688 186.238281 135.125 C 185.722656 135.253906 185.40625 134.691406 185.363281 134.4375 C 185.292969 134.035156 185.6875 133.648438 185.738281 133.191406 C 185.820312 132.347656 185.667969 131.015625 185.609375 129.753906 C 185.546875 128.339844 185.433594 126.8125 185.363281 125.636719 C 185.304688 124.816406 185.511719 123.828125 185.363281 123.265625 C 185.257812 122.871094 184.652344 122.328125 184.363281 121.957031 C 183.980469 121.464844 183.558594 120.96875 183.296875 120.648438 C 182.480469 119.621094 181.859375 118.726562 181.109375 118.210938 C 181.125 121.6875 181.386719 126.441406 181.730469 129.691406 C 181.765625 129.996094 181.914062 130.242188 181.859375 130.507812 C 181.660156 131.488281 180.214844 131.171875 180.109375 130.445312 C 180.058594 130.085938 180.320312 129.75 180.355469 129.382812 C 180.476562 128.191406 180.125 126.417969 180.046875 124.765625 C 179.96875 122.992188 179.925781 120.773438 179.796875 119.019531 C 179.726562 118.097656 180.058594 117.058594 179.480469 116.339844 C 178.394531 121.464844 177.371094 127.074219 176.730469 132.875 C 175.96875 139.816406 174.734375 146.644531 174.417969 153.851562 C 174.347656 155.40625 174.734375 156.957031 174.609375 158.40625 C 174.410156 160.585938 172.804688 162.261719 170.730469 162.402344 C 168.894531 162.523438 167.605469 161.507812 166.976562 160.585938 C 166.644531 160.101562 166.617188 159.46875 166.222656 158.90625 C 165.828125 158.328125 164.890625 157.792969 164.164062 157.222656 C 163.421875 156.636719 162.753906 155.933594 162.160156 155.40625 C 160.777344 154.175781 159.21875 153.167969 157.78125 152.160156 C 151.703125 147.910156 145.878906 143.742188 139.148438 140.371094 C 135.765625 138.667969 132.308594 137.070312 128.707031 135.5625 C 130.707031 139.625 133.070312 143.480469 134.769531 147.859375 C 136.5 152.292969 137.648438 157.046875 139.339844 161.714844 C 140.949219 166.160156 142.535156 170.703125 144.085938 175.320312 C 145.667969 180.007812 146.871094 184.828125 148.027344 189.800781 C 152.289062 187.273438 156.792969 184.984375 161.851562 183.246094 C 161.949219 181.972656 161.898438 180.550781 161.914062 179.191406 C 159.867188 179.527344 157.324219 180.753906 155.03125 181.308594 C 152.550781 181.921875 150.363281 180.421875 150.160156 178.316406 C 149.933594 176.058594 151.355469 174.996094 152.84375 174.320312 C 152.964844 174.171875 152.945312 173.882812 153.15625 173.820312 C 153.59375 173.828125 153.839844 173.433594 154.15625 173.820312 C 154.128906 173.03125 155.488281 173.214844 155.90625 173.257812 C 155.984375 173.046875 155.382812 172.804688 155.660156 172.382812 C 155.992188 172.273438 156.679688 172.207031 157.160156 172.320312 C 157.484375 172.40625 157.621094 172.785156 157.84375 172.636719 C 157.945312 172.53125 157.472656 172.46875 157.597656 172.140625 C 157.632812 171.941406 157.902344 171.984375 158.035156 171.886719 C 157.773438 171.863281 157.605469 171.675781 157.71875 171.449219 C 158.710938 171.0625 158.601562 172.054688 159.039062 172.320312 C 158.882812 172.054688 158.746094 171.871094 159.039062 171.765625 C 159.445312 171.609375 159.6875 172.351562 160.09375 172.011719 C 160.199219 171.828125 159.898438 171.496094 160.160156 171.265625 C 160.941406 170.957031 161.71875 170.960938 162.226562 171.449219 C 162.726562 171.433594 162.632812 170.820312 162.972656 170.640625 C 163.253906 170.640625 163.359375 170.960938 163.542969 171.035156 C 163.535156 170.921875 163.585938 170.785156 163.613281 170.6875 C 163.75 170.652344 163.839844 170.679688 163.902344 170.746094 C 164.039062 170.589844 164.199219 170.535156 164.347656 170.828125 C 164.339844 170.546875 164.425781 170.359375 164.664062 170.328125 C 165.011719 170.476562 165.128906 170.757812 165.667969 170.574219 C 165.707031 170.363281 165.265625 169.886719 165.722656 169.703125 C 166.246094 169.703125 166.394531 170.292969 166.789062 170.265625 C 167.160156 170.230469 167.125 170.007812 167.542969 169.765625 C 167.875 169.929688 168.242188 170.160156 168.480469 169.765625 C 168.324219 169.476562 167.570312 169.792969 167.664062 169.265625 C 167.816406 169.046875 168.132812 169.195312 168.289062 169.328125 C 168.28125 169.046875 168.570312 169.070312 168.855469 169.078125 C 169.101562 169.308594 169.078125 169.808594 169.664062 169.703125 C 169.980469 169.582031 170.09375 169.261719 170.414062 169.140625 C 170.066406 169.125 169.757812 169.414062 169.601562 169.078125 C 169.757812 168.550781 171.03125 168.824219 171.039062 169.140625 C 171.265625 168.738281 171.648438 168.835938 172.050781 168.910156 C 172.175781 168.796875 172.429688 168.816406 172.578125 168.949219 C 173.007812 168.894531 173.367188 168.585938 173.605469 169.011719 C 173.601562 168.691406 173.769531 168.535156 173.980469 168.421875 C 173.925781 168.367188 173.890625 168.289062 173.867188 168.199219 C 173.910156 167.738281 174.726562 167.9375 174.550781 168.445312 C 174.503906 168.472656 174.445312 168.5 174.433594 168.5625 C 174.511719 168.613281 174.578125 168.660156 174.664062 168.703125 C 174.765625 168.175781 175.574219 168.359375 175.921875 168.078125 C 176.257812 168.054688 176.179688 168.445312 176.484375 168.457031 C 176.570312 168.296875 176.554688 168.035156 176.859375 168.078125 C 177.1875 168.042969 177.160156 168.472656 177.476562 168.269531 C 177.824219 168.34375 177.695312 167.945312 177.980469 167.957031 C 178.269531 167.921875 178.246094 168.191406 178.542969 168.140625 C 178.789062 168.160156 178.734375 167.875 178.980469 167.894531 C 179.15625 167.921875 179.332031 167.9375 179.515625 167.949219 C 179.578125 167.808594 179.777344 167.800781 179.996094 167.824219 C 180.007812 167.867188 180.039062 167.910156 180.058594 167.949219 C 180.90625 167.914062 181.800781 167.746094 182.667969 167.640625 C 183.769531 167.515625 184.890625 167.480469 185.984375 167.394531 C 191.054688 167.007812 196.171875 166.734375 201.308594 166.957031 C 202.597656 167.015625 203.746094 166.964844 204.996094 167.019531 C 209.890625 167.238281 214.472656 167.824219 218.4375 168.640625 C 220.488281 169.0625 222.414062 169.40625 224.253906 170.078125 C 225.117188 170.394531 225.96875 170.828125 226.878906 171.074219 C 227.386719 171.214844 227.816406 171.328125 228.253906 171.511719 C 228.675781 171.6875 229.058594 171.992188 229.507812 172.140625 C 230.042969 172.316406 230.214844 172.171875 230.511719 172.320312 C 231.632812 172.890625 231.089844 174.828125 229.628906 174.511719 C 229.140625 174.398438 228.875 173.800781 228.570312 173.636719 C 228.246094 173.460938 227.761719 173.433594 227.316406 173.257812 C 226.949219 173.109375 226.582031 172.855469 226.195312 172.703125 C 225.363281 172.363281 224.3125 172.285156 223.378906 172.140625 C 221.441406 171.835938 219.339844 171.476562 217.378906 171.386719 C 213.113281 171.203125 208.957031 171.28125 205.058594 171.449219 C 193.457031 171.964844 182.941406 174.238281 173.226562 176.191406 C 173.378906 177.460938 173.464844 178.789062 173.480469 180.191406 C 181.433594 178.628906 190.636719 177.503906 200.179688 177.066406 C 213.253906 176.476562 226.949219 176.945312 237.578125 179.628906 C 237.238281 170.960938 237.175781 161.875 237.578125 152.851562 C 237.765625 148.523438 237.695312 144.199219 237.886719 139.925781 C 238.132812 134.34375 238.414062 128.832031 238.824219 123.511719 C 238.578125 123.363281 238.296875 123.253906 238.195312 122.957031 C 238.691406 122.335938 237.859375 122.386719 237.949219 121.832031 C 238.011719 121.429688 238.5 121.367188 238.953125 121.640625 C 238.847656 121.148438 238.894531 120.648438 239.015625 120.203125 C 238.550781 119.816406 238.042969 118.386719 239.070312 118.210938 C 239.382812 118.429688 238.699219 119.027344 239.199219 119.269531 C 239.261719 118.796875 239.324219 118.316406 239.324219 117.777344 C 238.515625 117.535156 238.839844 116.121094 239.507812 115.964844 C 238.886719 115.734375 238.945312 115.078125 239.570312 114.902344 C 239.699219 114.339844 239.628906 113.582031 239.761719 113.03125 C 239.226562 112.617188 238.953125 111.074219 239.953125 110.96875 C 239.890625 110.566406 240.058594 110.238281 239.953125 109.96875 C 238.847656 110.960938 238.042969 112.292969 237.074219 113.53125 C 236.144531 114.714844 235.128906 115.867188 234.199219 117.085938 C 232.949219 118.703125 231.492188 120.921875 230.191406 122.703125 C 229.535156 123.605469 228.816406 124.308594 228.691406 125.449219 C 228.34375 128.621094 228.527344 131.945312 228.378906 135.308594 C 228.253906 138.203125 228.253906 140.898438 228.378906 143.734375 C 228.527344 146.945312 228.710938 149.796875 228.570312 152.976562 C 228.542969 153.492188 228.414062 154.484375 228.570312 154.914062 C 228.746094 155.394531 229.359375 155.457031 229.382812 156.222656 C 229.402344 157.019531 228.789062 157.519531 228.070312 157.46875 C 226.433594 157.363281 227.195312 155.484375 227.195312 154.289062 C 227.179688 149.71875 226.800781 144.734375 227.132812 139.617188 C 227.144531 139.40625 227.195312 139.210938 227.195312 138.992188 C 227.175781 135.386719 226.898438 131.578125 226.695312 128.382812 C 225.347656 130.726562 224.085938 133.269531 222.6875 135.746094 C 222.230469 136.5625 221.511719 137.378906 221.3125 138.183594 C 221.203125 138.640625 221.320312 139.246094 221.3125 139.808594 C 221.300781 142.484375 220.914062 146.078125 221.1875 148.480469 C 221.273438 149.207031 221.597656 150.605469 220.503906 150.542969 C 219.933594 150.507812 219.796875 149.640625 219.75 149.105469 C 219.574219 146.867188 220.03125 143.933594 219.503906 141.800781 C 218.71875 144.003906 217.648438 147.023438 216.75 149.351562 C 215.914062 151.550781 214.742188 153.605469 211.6875 153.351562 C 210.871094 153.28125 210.417969 152.929688 209.558594 152.789062 C 209.210938 152.535156 209.101562 152.035156 208.683594 151.851562 C 208.507812 151.949219 208.628906 152.335938 208.246094 152.222656 C 207.902344 151.832031 207.648438 151.300781 207.746094 150.789062 C 207.546875 150.886719 207.703125 151.105469 207.308594 150.976562 C 206.96875 150.695312 207.511719 150.414062 207.246094 150.226562 C 206.941406 150.183594 206.886719 150.621094 206.617188 150.414062 C 206.089844 150.238281 206.320312 149.472656 206.433594 149.234375 C 206.207031 149.410156 205.808594 149.234375 205.742188 149.042969 C 205.757812 148.824219 206.003906 148.84375 206.117188 148.734375 C 205.925781 148.691406 205.835938 148.226562 205.679688 148.351562 C 205.765625 148.359375 205.742188 148.464844 205.808594 148.480469 Z M 168.097656 137.871094 C 168.289062 138.003906 168.203125 138.265625 168.164062 138.492188 C 168.351562 138.328125 168.394531 137.679688 168.289062 137.433594 C 168.242188 137.589844 168.121094 137.679688 168.097656 137.871094 Z M 167.664062 140.242188 C 167.886719 140.117188 167.964844 140.25 168.164062 140.308594 C 168.164062 140.117188 168.164062 139.925781 168.164062 139.742188 C 168.042969 139.742188 167.917969 139.742188 167.789062 139.742188 C 167.78125 139.941406 167.648438 140.019531 167.664062 140.242188 Z M 167.351562 142.796875 C 167.808594 142.652344 167.589844 143.1875 167.789062 143.296875 C 167.914062 142.882812 168.132812 142.234375 167.980469 141.742188 C 167.824219 142.152344 167.351562 142.234375 167.351562 142.796875 Z M 130.519531 165.332031 C 130.511719 164.84375 130.417969 164.4375 130.207031 164.148438 C 130.292969 164.5625 130.300781 165.054688 130.519531 165.332031 Z M 131.019531 167.082031 C 130.996094 166.894531 130.984375 166.703125 130.835938 166.640625 C 130.90625 166.78125 130.84375 167.046875 131.019531 167.082031 Z M 132.519531 174.320312 C 132.867188 174.347656 133.042969 174.550781 133.210938 174.757812 C 133.171875 174.523438 133.058594 174.363281 133.023438 174.136719 C 132.808594 174.15625 132.667969 174.109375 132.519531 174.074219 C 132.519531 174.152344 132.519531 174.234375 132.519531 174.320312 Z M 167.914062 177.628906 C 167.851562 178.734375 167.957031 180.203125 167.914062 181.5 C 168.972656 181.289062 169.976562 181.019531 170.976562 180.746094 C 170.871094 179.445312 170.996094 177.902344 170.664062 176.820312 C 169.777344 177.113281 168.671875 177.199219 167.914062 177.628906 Z M 133.585938 177.691406 C 133.535156 177.859375 133.707031 177.816406 133.710938 177.9375 C 133.902344 177.902344 134.03125 177.804688 134.023438 177.566406 C 133.789062 177.523438 133.78125 177.699219 133.585938 177.691406 Z M 163.535156 178.691406 C 163.453125 179.980469 163.472656 181.371094 163.472656 182.746094 C 164.285156 182.492188 165.125 182.273438 165.914062 182 C 165.601562 180.910156 165.886719 179.238281 165.601562 178.128906 C 164.910156 178.3125 164.179688 178.453125 163.535156 178.691406 Z M 134.398438 180.875 C 134.601562 180.886719 134.699219 180.804688 134.707031 180.625 C 134.636719 180.570312 134.546875 180.542969 134.398438 180.5625 C 134.398438 180.667969 134.398438 180.769531 134.398438 180.875 Z M 179.171875 187.554688 C 174.453125 188.898438 170.074219 190.503906 165.539062 192.296875 C 162.535156 193.488281 159.121094 195.15625 156.285156 196.851562 C 155.304688 197.4375 154.078125 198.027344 153.472656 198.660156 C 153.175781 198.964844 152.945312 199.5625 152.65625 200.035156 C 152.324219 200.566406 151.949219 201.101562 151.972656 201.597656 C 151.984375 202.039062 152.648438 203.265625 153.027344 203.46875 C 153.375 203.652344 154.136719 203.628906 154.785156 203.714844 C 155.378906 203.800781 156.019531 203.878906 156.535156 203.96875 C 159.960938 204.550781 164.296875 204.925781 167.542969 205.09375 C 170.136719 205.222656 172.789062 205.046875 175.355469 204.96875 C 183.316406 204.714844 190.765625 204.207031 198.121094 203.46875 C 203.121094 202.96875 208.113281 202.878906 212.9375 202.097656 C 212.878906 195.832031 212.929688 188.621094 212.308594 182.5 C 200.207031 182.824219 189.382812 184.644531 179.171875 187.554688 Z M 135.523438 185.871094 C 135.625 185.871094 135.730469 185.871094 135.835938 185.871094 C 135.90625 185.503906 135.496094 185.609375 135.523438 185.871094 Z M 135.589844 186.488281 C 135.707031 186.488281 135.835938 186.488281 135.960938 186.488281 C 135.933594 186.328125 135.925781 186.152344 135.835938 186.054688 C 135.765625 186.214844 135.679688 186.355469 135.589844 186.488281 Z M 136.464844 189.050781 C 136.464844 188.863281 136.5 188.636719 136.273438 188.679688 C 136.167969 188.882812 136.308594 188.945312 136.464844 189.050781 Z M 136.335938 189.734375 C 136.441406 189.734375 136.535156 189.75 136.582031 189.796875 C 136.5625 189.636719 136.539062 189.144531 136.460938 189.234375 C 136.511719 189.496094 136.335938 189.53125 136.335938 189.734375 Z M 136.210938 190.925781 C 136.328125 191.039062 136.464844 191.128906 136.710938 191.109375 C 136.730469 191.03125 136.789062 190.480469 136.582031 190.425781 C 136.527344 190.65625 136.160156 190.582031 136.210938 190.925781 Z M 135.03125 201.898438 C 134.941406 202.03125 134.871094 202.1875 134.59375 202.144531 C 134.382812 201.800781 134.890625 201.5625 135.03125 201.898438 Z M 135.914062 201.589844 C 135.996094 201.667969 135.996094 201.878906 135.914062 201.960938 C 135.738281 201.949219 135.644531 201.851562 135.660156 201.644531 C 135.714844 201.601562 135.800781 201.582031 135.914062 201.589844 Z M 134.59375 199.773438 C 134.628906 200.265625 134.023438 200.597656 133.535156 200.773438 C 133.523438 200.34375 133.988281 199.582031 134.59375 199.773438 Z M 133.28125 199.21875 C 133.542969 199.183594 133.601562 199.554688 133.472656 199.71875 C 133.386719 199.71875 133.304688 199.71875 133.21875 199.71875 C 133.09375 199.574219 133.171875 199.292969 133.28125 199.21875 Z M 134.910156 198.964844 C 135.066406 198.96875 135.152344 199.054688 135.160156 199.21875 C 135.039062 199.21875 135.082031 199.386719 134.910156 199.335938 C 134.828125 199.257812 134.828125 199.039062 134.910156 198.964844 Z M 132.84375 198.589844 C 132.945312 198.570312 132.953125 198.648438 133.035156 198.652344 C 133.042969 198.765625 132.957031 198.78125 132.972656 198.902344 C 132.832031 198.894531 132.839844 198.746094 132.84375 198.589844 Z M 135.414062 198.21875 C 135.628906 198.203125 135.738281 198.300781 135.722656 198.527344 C 135.652344 198.578125 135.554688 198.613281 135.414062 198.589844 C 135.355469 198.40625 135.355469 198.398438 135.414062 198.21875 Z M 133.21875 197.21875 C 133.507812 197.265625 133.445312 197.660156 133.535156 197.902344 C 133.769531 197.941406 134.191406 197.789062 134.15625 198.089844 C 134.390625 198.046875 134.539062 197.675781 134.847656 197.902344 C 134.898438 198.203125 134.488281 198.371094 134.285156 198.21875 C 134.109375 198.394531 133.945312 198.582031 133.785156 198.78125 C 133.875 198.976562 134.3125 198.828125 134.410156 199.027344 C 134.515625 199.992188 133.203125 199.675781 133.59375 198.835938 C 133.5 198.730469 133.21875 198.792969 133.15625 198.652344 C 133.347656 198.089844 133.296875 197.867188 133.21875 197.21875 Z M 135.414062 196.84375 C 135.496094 196.878906 135.5625 196.9375 135.59375 197.027344 C 135.511719 197.253906 135.417969 197.472656 135.15625 197.527344 C 135.152344 197.289062 134.945312 197.238281 134.976562 196.964844 C 135.074219 196.871094 135.320312 197.054688 135.414062 196.84375 Z M 132.035156 196.65625 C 132.0625 196.789062 131.992188 196.824219 131.972656 196.902344 C 131.886719 196.878906 131.871094 196.796875 131.78125 196.78125 C 131.792969 196.667969 131.894531 196.640625 132.035156 196.65625 Z M 132.40625 195.910156 C 132.492188 195.929688 132.507812 196.015625 132.597656 196.027344 C 132.5625 196.289062 132.5 196.515625 132.40625 196.71875 C 132.210938 196.605469 132.238281 196.019531 132.40625 195.910156 Z M 134.65625 195.84375 C 134.820312 196.035156 134.863281 196.34375 134.847656 196.71875 C 134.550781 196.660156 134.644531 196.21875 134.21875 196.28125 C 134.207031 195.972656 134.347656 195.824219 134.65625 195.84375 Z M 133.472656 195.84375 C 133.410156 196.035156 133.324219 196.195312 133.097656 196.21875 C 133.140625 196.015625 133.199219 195.824219 133.472656 195.84375 Z M 133.972656 195.09375 C 134.058594 195.09375 134.136719 195.09375 134.21875 195.09375 C 134.332031 195.210938 134.269531 195.507812 134.285156 195.71875 C 134.128906 195.839844 133.972656 195.949219 133.65625 195.910156 C 133.636719 195.789062 133.523438 195.746094 133.535156 195.59375 C 133.691406 195.4375 134 195.4375 133.972656 195.09375 Z M 133.21875 194.71875 C 133.566406 194.734375 133.570312 195.078125 133.65625 195.34375 C 133.601562 195.375 133.542969 195.402344 133.535156 195.472656 C 133.058594 195.5 133.042969 195.023438 133.21875 194.71875 Z M 133.910156 193.972656 C 134.21875 194.121094 134.367188 194.851562 133.78125 194.78125 C 133.769531 194.507812 133.671875 194.175781 133.910156 193.972656 Z M 133.78125 193.21875 C 133.78125 193.324219 133.78125 193.429688 133.78125 193.535156 C 133.507812 193.683594 133.269531 193.59375 132.972656 193.785156 C 132.910156 193.234375 133.359375 192.925781 133.78125 193.21875 Z M 134.410156 192.472656 C 134.496094 192.65625 134.410156 192.785156 134.285156 192.910156 C 133.980469 192.890625 134.078125 192.390625 134.410156 192.472656 Z M 131.660156 192.410156 C 131.9375 192.402344 132.070312 192.542969 132.097656 192.78125 C 131.9375 192.960938 131.816406 193.171875 131.535156 193.21875 C 131.421875 192.910156 131.574219 192.699219 131.660156 192.410156 Z M 132.78125 189.601562 C 132.78125 189.75 132.886719 189.785156 132.84375 189.972656 C 132.730469 190.144531 132.394531 190.144531 132.28125 189.972656 C 132.195312 189.574219 132.507812 189.460938 132.78125 189.601562 Z M 132.40625 188.476562 C 132.371094 188.734375 132.351562 189.003906 132.035156 188.976562 C 132.007812 188.925781 131.976562 188.871094 131.90625 188.855469 C 131.941406 188.609375 132.15625 188.300781 132.40625 188.476562 Z M 132.84375 185.421875 C 132.691406 185.871094 132.289062 186.066406 131.972656 186.355469 C 131.84375 185.863281 132.105469 185.246094 132.84375 185.421875 Z M 132.535156 183.675781 C 132.613281 183.695312 132.632812 183.78125 132.71875 183.792969 C 132.550781 184.265625 132.703125 184.28125 132.84375 184.675781 C 132.773438 184.722656 132.675781 184.75 132.535156 184.730469 C 132.386719 184.378906 132.117188 183.929688 132.535156 183.675781 Z M 131.34375 183.046875 C 131.535156 183.046875 131.527344 183.492188 131.28125 183.421875 C 131.144531 183.292969 131.273438 183.148438 131.34375 183.046875 Z M 131.535156 180.613281 C 131.753906 181.085938 131.492188 181.964844 131.660156 182.613281 C 131.238281 182.429688 130.957031 180.796875 131.535156 180.613281 Z M 130.84375 180.175781 C 130.878906 180.5 130.730469 180.640625 130.40625 180.613281 C 130.230469 180.308594 130.582031 180.042969 130.84375 180.175781 Z M 130.46875 176.867188 C 130.496094 177.191406 129.90625 177.078125 129.96875 176.804688 C 130.214844 176.832031 130.347656 176.664062 130.46875 176.867188 Z M 130.222656 175.683594 C 130.179688 175.972656 130.011719 176.144531 129.722656 176.183594 C 129.636719 175.988281 129.875 175.648438 130.222656 175.683594 Z M 128.21875 165.261719 C 128.316406 165.238281 128.324219 165.316406 128.410156 165.324219 C 128.421875 165.625 128.269531 165.824219 128.410156 166.070312 C 128.09375 166.015625 128.023438 165.472656 128.21875 165.261719 Z M 205.820312 155.398438 C 205.730469 155.742188 205.777344 155.925781 205.882812 156.207031 C 205.828125 156.238281 205.773438 156.265625 205.757812 156.335938 C 205.234375 156.390625 205.242188 155.0625 205.820312 155.398438 Z M 203.445312 153.398438 C 203.542969 153.625 203.621094 153.90625 203.445312 154.089844 C 202.839844 154.242188 202.753906 153.210938 203.445312 153.398438 Z M 202.945312 152.335938 C 203.167969 152.457031 203.078125 152.570312 203.070312 152.835938 C 202.703125 152.929688 202.796875 152.421875 202.945312 152.335938 Z M 202.507812 151.089844 C 202.296875 151.078125 202.183594 150.957031 202.195312 150.71875 C 202.359375 150.5625 202.710938 150.878906 202.507812 151.089844 Z M 203.628906 150.90625 C 203.558594 150.894531 203.523438 150.921875 203.507812 150.964844 C 203.304688 150.957031 203.234375 150.824219 203.253906 150.589844 C 203.453125 150.5 203.683594 150.582031 203.628906 150.90625 Z M 201.632812 149.65625 C 201.695312 149.65625 201.753906 149.65625 201.816406 149.65625 C 201.835938 149.816406 201.792969 149.921875 201.632812 149.90625 C 201.632812 149.824219 201.632812 149.738281 201.632812 149.65625 Z M 199.503906 149.21875 C 199.304688 149.289062 199.339844 149.246094 199.191406 149.15625 C 199.199219 148.972656 199.566406 148.992188 199.503906 149.21875 Z M 165.671875 149.035156 C 165.546875 149.167969 165.398438 149.042969 165.300781 148.972656 C 165.300781 148.78125 165.742188 148.789062 165.671875 149.035156 Z M 202.132812 148.65625 C 202.296875 148.65625 202.464844 148.65625 202.632812 148.65625 C 202.746094 148.78125 202.832031 149.164062 202.691406 149.34375 C 202.273438 149.351562 201.957031 149.050781 202.132812 148.65625 Z M 200.757812 147.972656 C 200.695312 148.621094 200.433594 149.0625 199.691406 149.035156 C 199.8125 148.480469 200.136719 147.824219 200.757812 147.972656 Z M 198.628906 147.535156 C 198.664062 147.738281 198.585938 147.824219 198.566406 147.972656 C 198.253906 148.015625 198.15625 147.839844 198.191406 147.535156 C 198.277344 147.445312 198.542969 147.445312 198.628906 147.535156 Z M 198 146.664062 C 197.929688 146.648438 197.894531 146.675781 197.878906 146.71875 C 197.019531 146.429688 198.324219 145.761719 198 146.664062 Z M 165.234375 143.855469 C 165.265625 144.199219 164.6875 144.136719 164.550781 143.972656 C 164.480469 143.609375 165.136719 143.691406 165.234375 143.855469 Z M 165.671875 141.980469 C 165.667969 142.136719 165.582031 142.222656 165.425781 142.226562 C 165.398438 142.171875 165.371094 142.117188 165.300781 142.101562 C 165.304688 141.945312 165.511719 141.980469 165.671875 141.980469 Z M 165.300781 141.980469 C 164.609375 142.136719 164.347656 141.265625 164.734375 140.917969 C 165.171875 141.023438 165.03125 141.707031 165.300781 141.980469 Z M 163.234375 139.046875 C 163.316406 139.066406 163.332031 139.152344 163.421875 139.171875 C 163.332031 139.40625 162.816406 139.496094 162.613281 139.417969 C 162.621094 139.097656 163.0625 139.207031 163.234375 139.046875 Z M 165.609375 138.355469 C 165.742188 138.414062 165.800781 138.539062 165.800781 138.730469 C 165.609375 138.738281 165.617188 138.546875 165.609375 138.355469 Z M 165.109375 138.484375 C 164.933594 138.546875 164.617188 138.695312 164.425781 138.546875 C 164.328125 138.082031 165.230469 137.90625 165.109375 138.484375 Z M 235.269531 137.609375 C 235.269531 137.757812 235.378906 137.792969 235.335938 137.984375 C 235.222656 138.152344 234.820312 138.152344 234.707031 137.984375 C 234.601562 137.554688 234.988281 137.46875 235.269531 137.609375 Z M 236.273438 136.484375 C 236.25 136.6875 235.957031 136.824219 235.773438 136.675781 C 235.695312 136.253906 236.167969 136.230469 236.273438 136.484375 Z M 166.300781 136.175781 C 166.082031 136.6875 165.703125 137.359375 165.109375 137.300781 C 165.136719 136.828125 165.820312 136.1875 166.300781 136.175781 Z M 164.925781 135.984375 C 165.179688 135.984375 164.976562 136.433594 165.109375 136.546875 C 165.039062 136.617188 164.890625 136.617188 164.734375 136.609375 C 164.578125 136.335938 164.796875 136.160156 164.925781 135.984375 Z M 236.273438 134.492188 C 236.316406 134.851562 235.496094 134.824219 235.460938 134.546875 C 235.441406 134.21875 236.222656 134.203125 236.273438 134.492188 Z M 235.644531 132.675781 C 235.679688 132.902344 235.597656 133 235.460938 133.054688 C 234.925781 133.042969 235.242188 132.378906 235.644531 132.675781 Z M 165.488281 132.367188 C 165.488281 132.621094 165.257812 132.632812 164.988281 132.621094 C 164.910156 132.542969 164.917969 132.394531 164.925781 132.238281 C 165.082031 132.121094 165.46875 132.164062 165.488281 132.367188 Z M 236.210938 130.429688 C 236.210938 130.851562 236.695312 130.777344 236.582031 131.304688 C 235.921875 132.058594 235.214844 130.472656 236.210938 130.429688 Z M 166.300781 130.429688 C 166.492188 130.65625 166.851562 130.710938 167.046875 130.929688 C 166.898438 131.597656 165.914062 131.027344 166.300781 130.429688 Z M 165.363281 129.3125 C 165.617188 129.382812 165.347656 129.558594 165.171875 129.558594 C 165.171875 129.496094 165.171875 129.429688 165.171875 129.367188 C 165.265625 129.375 165.347656 129.382812 165.363281 129.3125 Z M 236.582031 128.8125 C 236.582031 128.953125 236.582031 129.101562 236.582031 129.25 C 236.222656 129.535156 235.714844 129.25 235.773438 128.75 C 235.941406 128.417969 236.394531 128.644531 236.582031 128.8125 Z M 236.273438 127.875 C 236.210938 127.875 236.222656 127.953125 236.210938 127.996094 C 235.292969 128.417969 235.417969 126.898438 235.898438 126.941406 C 236.175781 126.960938 236.140625 127.59375 236.273438 127.875 Z M 237.335938 126.6875 C 237.203125 126.742188 237.125 126.847656 236.898438 126.8125 C 236.429688 126.339844 237.464844 125.875 237.335938 126.6875 Z M 165.738281 126.066406 C 165.933594 126.082031 165.898438 126.644531 165.800781 126.75 C 165.511719 126.6875 165.6875 126.285156 165.738281 126.066406 Z M 113.394531 124.128906 C 113.613281 124.179688 113.8125 124.257812 113.894531 124.441406 C 113.945312 124.609375 113.777344 124.566406 113.777344 124.6875 C 113.429688 124.699219 113.121094 124.363281 113.394531 124.128906 Z M 166.238281 123.132812 C 166.257812 123.496094 165.644531 123.398438 165.488281 123.257812 C 165.375 122.828125 166.195312 122.851562 166.238281 123.132812 Z M 114.777344 123.132812 C 114.691406 123.152344 114.679688 123.238281 114.585938 123.257812 C 114.402344 123.273438 114.367188 123.136719 114.277344 123.066406 C 114.25 122.675781 114.882812 122.644531 114.777344 123.132812 Z M 237.457031 122.695312 C 237.359375 123.179688 237.71875 123.609375 237.085938 123.695312 C 236.964844 123.601562 236.867188 123.496094 236.773438 123.378906 C 236.851562 123.027344 237.148438 122.601562 237.457031 122.695312 Z M 166.175781 120.007812 C 166.210938 120.273438 165.960938 120.257812 165.800781 120.324219 C 165.835938 120.132812 165.941406 120 166.175781 120.007812 Z M 238.648438 98.035156 C 238.960938 98 239.109375 98.382812 238.960938 98.601562 C 238.648438 98.636719 238.507812 98.261719 238.648438 98.035156 Z M 239.898438 96.101562 C 240.039062 96.390625 240.207031 96.820312 239.835938 96.980469 C 239.179688 97.058594 239.023438 95.890625 239.898438 96.101562 Z M 243.902344 93.484375 C 243.71875 93.609375 243.664062 93.6875 243.402344 93.609375 C 242.832031 93.003906 244.074219 92.546875 243.902344 93.484375 Z M 240.523438 93.046875 C 240.519531 93.390625 240.144531 93.285156 239.960938 93.171875 C 239.960938 93.109375 239.960938 93.046875 239.960938 92.984375 C 240.125 92.84375 240.40625 92.953125 240.523438 93.046875 Z M 240.523438 93.046875 " fill-opacity="1" fill-rule="evenodd"/></g></svg>